<svg xmlns="http://www.w3.org/2000/svg" width="400" height="359.5">
  <defs>
    <linearGradient id="left-to-right">
      <stop offset="0" stop-color="#0a0505">
        <animate dur="3s" attributeName="offset" fill="freeze" from="0" to="1" />
      </stop>
      <stop offset="0" stop-color="#fff">
        <animate dur="3s" attributeName="offset" fill="freeze" from="0" to="1" />
      </stop>

    </linearGradient>
  </defs>
  <g fill-rule="evenodd">
    <path id="land"
      d="M299 15l-1 1-2 2 2 9c2 3 2 10 1 13v4c0 4 0 5-2 7-2 1-3 2-2 4v4c2 3-2 8-4 6l-1-1-1 1-5-1-1-1c-2-2-4 1-2 3 1 1 2 3 0 5l-1 2-1 1-2 1-2 2c-1 0-2 1-2 4l-1 4c0 1 2 4 4 4 1 0 2 5 1 8-1 2-2 3-1 6 1 2 3 3 3 1l2-1 2-3 1-2 1-1c0-2 0-2 4-1h4c1-2 1-3-1-3l-1-1-6-4-2-1-2-1v-4l1-2h5l2 1 1 2c1 2 1 2 5-2s5-5 6-4a149 149 0 004 1l2 1 3 2 5 3h2l7 3 1 2 2 1 1-2v-3-3l1-1c-1-3 11-17 13-14 1 1 6 0 7-1l1-1h1l2-2v-1h1l4-2 2-1 2-2 1-1h-1l-2 1c-2 2-5 1-5-2l-1-2c-3-5-3-6-1-11 2-3 2-5 1-6l-1 1c-2 3-7 9-9 9l-4-2c-1-2-2-2-2 0v2l-1-2c-1-1-1-2-3-2h-1-2v-1l-3-1-3-2-4-3-8-8-5-5-5-5c-3-3-3-3-4-2m-11 2v0m2 3l1 3c2 1 2-1 1-2l-2-1m65 32v0c0-1 0 0 0 0m-87 35l-1 1c0 3 1 3 2 1l-1-2m23 15c-2 1-3 7-1 7l4-1c3-2 3-1 2 3-1 3-2 4-4 2-1-1-2-1-2 1-1 2-3 2-3 0l-1-5-1-1h-4v2 1c1 3-1 8-4 8-2 0-3 3-2 4l1 1v2c2 3 1 9-2 9-2 0-2 1-1 2h5v3l1 2-1 3-1 3-2 7-2 6a2884 2884 0 00-3 7l-1 3c0 5-3 8-6 8l-4 4c-1 5-7 12-11 13l-2 1-7 3-3 1c-1 2-5 3-7 2s-3-2-1-2c2-1 2-3 1-3l-2-1 1-1 2-1 2-1 1-2 1-2c2-2-2-2-4 0l-3 1-3 3-1 2v1h1c1 1 1 4-1 4l-1 1-2 4v1l-6 7-2 2-1 2c-2 1-2 3 0 6v1l-1 2-2 1h-1l-1 1-1 1-1 1h-1l-1-2c-1-1-1-1-2 1-2 1-2 0-2-2 0-3-1-4-3-2l-7 1c-4 0-4 0-6 2l-4 1h-12l-5 1c0-1 0-2 1-1h1l-1-2h-1l-2 1h-2l-2 1-2 1-1 2-1 1-1 1-1 1-2 1-3 3-5 4-3 3-3 1-1 2-2 1-4 1h-4c-1 0-2 2-1 3v2 2c0 2 1 2 2 1l1 1c2 1 4 2 6 0h6l1 1 2 1 2 1h1c0 1 0 1 0 0l2-2 1-3c0-3 3-5 5-3h2a28 28 0 0110-2l3-1h2l2-1c1-1 2 0 2 2h1l4-2h0l1-2 2-1c0-2 1-2 2-2h3c2-1 4-1 7 1s4 2 6 1l3-1c2 0 2 1-3 7l-2 1-1 2v6c-1 1 0 2 3 3l2 3c0 2 1 3 3 3l2 1h3l1-1 2-2 3-6c2-1 2-2 2-3v-1l1-1 2-2 2-1h4c1 1 2 1 2-1s-1-4-3-4l-1-1-2-1v-4-2l3-3c2-1 3-1 2 1-1 1 0 6 1 6s2 0 1-1v-1c0-1 0-1 0 0h4l2 1c1 1 0 1-2 2l-2 1h4l6-1h10l1-2 1-2 2-2 2-3 2-1 2 1-1 2c0 7 0 8 2 8l2-2 1-2c2-1 2-4 1-4l1-4 1-1 2-2c2-1 3-1 4 1 1 3 2 2 2-1l1-4v-4h2l2-1 1 1c1 0 0 3-2 4h-1v2l-1 1v6 2c1 1 3 1 3-1l3-3h2c2-1 3-2 3-7l1-4h1l3-2c3 1 3 0 0-4l-3-7v-2l1-4v-3l1-1c-1-2 3-4 5-4l1-5v-4-3-5l-1-3c-2-2-2-4 0-7l1-4 1-1h1c2-1 2-1 3 1 2 2 4 1 2-2v-1-1-3-1l1-3 1-2 2-1 2-5 1-4v-6-2l-1-1v-2l-3-4v-2l-1-3-1-2-2-3c-1 0-3-2-3-4l-1-2v-3-3-4c1-2 0-3-1-1-1 1-2 1-4-1l-3-1m-38 69l-2 2-2 3v2c-1 1 0 2 1 1v1c-1 2 0 3 2 1 3-2 4-5 2-5l-1-3 1-1-1-1m-91 42c0 2 2 4 3 2v-2c-1-2-3-2-3 0m-3 3v0m-64 29c-1 0-2 1-2 3v2 1l1 1h-1l-2 1v2c-1 1 0 2 1 1l2-2 1-3 1-2c2-2 1-5-1-4m174 1l1 1v-1h-1m-79 6l-1 2-1 2-2 1h-5l-1-1-7-1c-1 1-3 2-4 1-1 0-2 1-1 3v2l-3 1h-1c-3 2-5 2-6-1l-1-2-4 4c-1 1-1 1-2-1l-1-1-1 1 1 1c1 0 2 2 1 3 0 2 0 3-3 4l-2 2-4 2c-2 0-3 1-1 1l2-1c3-1 3-1 3 1v1l1 1 1 1h-1l-2 1h1l1 2-1 1h-1l1 1c1-1 2 0 1 1s-1 1 1 1c3 0 3 0 3 2-1 1-1 1 1 1h4c0-4 0-4 3-6l3-4 2-2 2-2c2-2 7-1 9 2l2 3 1-1 3-6v-1l1-1 3-1 2-2v-1-1l-1-2c-1-1 0-5 2-5 2 1 4-1 3-2s-1-2 1-3c1-3 1-3-2-1m-10-1c-2 0-3 1-2 2h2c1 1 2-1 2-2h-2m-31 3l-1 1-1-1h2m6 2c0 1 2 2 3 1l-1-1h-2m-7 1c-1 1 0 1 1 2h1l-1-1-1-1m12 0v1l1-1h-1m0 2l1 1v-1h-1m112 1v1h1v-1h-1m-156 2c-1 0-2 0-3 2l-3 3-4 2h2l-2 1h-2c-1-2-2-2-2 1l-4 2-1 1v1l2 2 4 4v2l-1 1c-2 0-3-1-2-2v-2l-1-1-1 1 1 4c1 1 2 3 1 4-2 2 0 2 1 0 3-3 8-3 5-1-1 2 1 3 2 2 2-2 2-5 0-5h-2v-1c1 0 2-1 1-2l-1-3c2-2 4-1 4 1l4 6 1 2v2l-1 1-2 4-1 2-2 2-1 2c-2 0-2 1-2 3l-1 4 1 1c1 1 2 4 1 5v1c0 1-2 2-3 1h-1l1 1 1 1c0 1 1 2 4 2l1 1h3l-1-2c-2-1-2-3-1-5l1-3c0-1 3-1 3 1 1 1 0 1-1 1-1-1-2 0-1 1 3 3 3 6 2 8-2 3-3 4-1 3l2-1c2-1 5-4 4-5 0-3 2-4 4-1h2l1-5 1-3v-4l1-4 3-5v-2l1-2 1-1 1-1 1-1v-2h2v-5l-1-1-1-2-3-2c-2 0-3-1-1-3l3-3c0-3-2-4-5-2-1 1-4 0-5-1h-1l-2-5c1-1 0-1-1-1h-4-1m-17 1v2c1 0 2-2 1-3l-1 1m44 0l2 1c2 1 2 1 1-1h-3m-47 9v0m-2 3l-1 1 2-2-1 1m42 2c-1 1 1 2 1 1v-1h-1m-48 1l-1 5 2-4-1-1c1-1 0-1 0 0m189 3l2 1v-1h-2m-197 4l-1 2h4v-2h-3m23 8v4 1l3-4v-1-1-1c0-1-2 0-3 2m5-1c-1 1-1 2 1 2l1-2h-2m-3 7h1l-1-1v1m-6 7h1v-1l-1 1m-3 2v1l1-1h-1m23 21v1l-1 2-1 1v3 2c1 1 1 1 1-2v-2c2-1 2-6 1-5m-11 8l-1 2c1 2 3 2 4 1v-2l-3-1"
      fill="#0a0505" />
    <path id="circle"
      d="M241 18h0m-5 5h2c1 0 1 0 0 0h-2m-8 1c-1 1 0 4 1 4 2 0 2-3 1-4h-2m30 1l1 1c2 0 2 0 0-1h-1m-66 1h4l-2-1h-1l-1 1m60 0h0m-4 1l3 2c1 0 1 0 0 0l-2-1-1-1m-46 2l-1 1h1l1 1h7l3 2 3 1 1-1c0-1-1-2-3-2h-4l-3-1-3-1h-2m55 2l4 2-3-2h-1m-10 2l1 1-1-2v1m-54 1h1c2 0 4 1 3 2v1c1 1 0 3-2 3h-1c-2 2-3 2-4 1v2c2 1 0 3-1 1h-2c-1 1-1 1 1 1l8 3 2 1c0-2 3-2 5 0 1 2 7 4 13 5l4 1 3 2 3 2h-3l-4-1h-9l-10 1c-2 0-5-1-4-3v-1h-2c-1-1-3 0-4 1h-2l-3 1c-5 1-7 1-8-1l4-3 2-2-3 1c-1 1-2 1-4-1l-3-1h-6l-1 1c0 1-3 1-3-1l-1 1v1h-3l-7 2a70 70 0 01-9 5l-4 1h-3l-1 1-3 3-7 8-2 2-4 6-3 5-2 3-4 5-1 3-3 4c0 2-7 12-8 12l-3 3-3 7 1-7a1055 1055 0 00-5 13 88 88 0 01-5 22l-5 20-2 11c-2 9-3 11-3 22-1 23-1 28 2 33l2 4 3 3 2 2 1 1v-1-1-2l-5-5-2-3a102 102 0 011-50l2-5v3l1 5v4l1 3v6 9l1 12c0 10 0 12 2 14 3 3 4 7 4 10 0 2 0 2 3 5 1 2 4 3 3 2l-1-1h-1v-1l1-2h1l-3-3v-1l-1-1v-3l4 5h1c2-1 2 2 1 4l-1 1h2c1 0 0 2-2 2 0-1 0 0 0 0l-1 1v1l1 2c0 2 0 3 3 5l1 1h1l6 5s0 1 0 0h3c2 0 2 0 4-3 2-2 3-3 6-2h2c1 0 2 0 1 1l2 5h1c1 1 4 2 5 1 3-2 5-1 5 2l-3 3c-2 2-1 3 1 3l3 2 2 2c-1 0 0 0 0 0v1l2 1 3 2 2 2a45 45 0 014 1c2 0 8 8 6 9v3l2 1c4 2 10 3 11 2l2-2c3-2 3-2 9 0h11l2-1 2 1 2 1 3 1h3l1-1c3 0 3 0 5 2 3 3 7 3 7 1h2l6 1c3 1 3 1 5-1l1-1 2-1 3-1 4-1h3l3-2 4-2 1-1 7-2 4-1c3-1 3-1 3 1l3-1 3-2c2 0 3-1 3-2 2-1 3-2 4-1h3l2-1h2l2-2 2-1 1-1c1 0 3-1 4-4l10-10 2-2 4-2 13-13c1-3 2-3 3-3s2-1 2-3l4-3 1-1v-2l1-1 1-1c0-2 2-2 3 0 2 2 2 2 0 5-3 4-4 4-6 4l-1 1v2l-1 1-2 2-2 1c-2 0-3 1-4 3l-6 5-3 4 1-1c3-2 6-2 6 0v1l1-1c0-2 0-2 2-2l2-2c0-2 1-4 3-5s5-4 6-7c2-4 6-8 7-7h1l2-2 1 1 1 1c1 0 2-6 1-7v-1l1-4 2-4c2-1 2-2 3-6l1-7-1-1h-1c-1 2-2 2-3 0-1-1 0-6 1-7l1-3 1-3c1-1 1-1-1-1s-2 0-2 2c-1 2-2 2-2-1v-1h-1c-2 1-3 0-3-2l-1-3v-6-8l1-6 1-2c1-3 0-8-1-10l1-2c1-1 2-1 2 1v-1-3c1-1 0-5-2-5l-1-3c1-2 0-3-1-4l-1-3v-4c-2 1-3 0-1-2l-1-1c-1 0-3-3-2-5l-1-3h-2l-1-2v-2-1c-2-5-2-7-1-6v-1c0-1 0 0 0 0-1 0-3-1-3-3l-1-2-1-1-1-2-1-1-2-2c-1 0-3-2-3-4v-2l-2-2-1-1c-1 1-2 2-3 1v-2-3l1-3v-4l-2-1-1-1v1l1 3v2l-1 2c0 2 0 3-1 2h-2c-1 1-2 1-3-1l-4-6s0-1 0 0h-1l-1 1c-1 1-1 1-3-1l-1-3-1 2c-2 2-2 2-3 0l-1-2-2-1h-5l-1 2v4l2 1 2 1 6 4 1 1c2 0 2 1 1 3h-4c-4-1-4-1-4 1l-1 1-1 2-2 3-2 1c0 2-2 1-3-1-1-3 0-4 1-6 1-3 0-8-1-8-2 0-4-3-4-4l1-4c0-3 1-4 2-4l2-2 2-1 1-1 1-2 1-2h-2l-1-4v-2 1c-1 2-3 1-4-1-2-3-1-6 1-3h1l-2-2-1-1-1 1c-2 2-3 2-6 0l-3-3-4-2c-6-4-9-6-12-6h-2l-2-1-9-3-4-1-2-2h-1-1-2c0 1-1 1-2-1 0 0 0-1 0 0l-6-1-13-2-4-2h-7m26 1h3-3m56 0l1 1v-1h-1m-83 0l1 1-1-1m18 0h2-2m45 0v2h2v-2h-1-1m-23 2v1c-1 1 0 2 2 2v-1c-2 0-2 0-1-2h-1m27 2c-1 0-1 0 0 0v-1 1m12 1l2 2 4 1 2 1-4-2-5-3 1 1m-9-1l-1 2c-1 2 1 4 11 10l3 2 2 2 1 1a142 142 0 004 2l1 2c0 2 2 4 4 4v1h6v-2l1-2-1-2h-1c0-1-2-3-4-3s-2-1-2-2l-1-1-2-1-1-1-2-1-2-2-1-2h-2c-1 1-2 0-2-1l-4-2-3-2-3-2h-1m-27 1l7 4c2 1 2 0-1-1l-3-2-3-1m31 3l-2 1v-2l2 1m21 0v1h1l-1-1m-117 1l-1 1 2-1 1-1-2 1m103-1l1 1-1-1m-41 1c1 1 0 2-1 1-2 0-1-1 0-1h1m38 2c2 1 2 2 1 2l-4-3c0-1 2-1 3 1m-33 0v2c-2 0-3-1-2-2h2m54 0v1l1-1h-1m-127 1h1c2-1 2-1 0-1l-1 1m114 2l1 2v1h-2l-1-1v-2h2m-33 2v1l-2-1h2m43 0l1 2h1l-1-2c0-1-1-2-1 0m7 0v0c0-1 0-1 0 0m-156 1v1l1-1h-1m115 3l-1 1-1-1h2m16 0h1-1m15 2v3l-1-2v-1c-1-2 0-3 1-2v2m8-1l1 1h1l-1-1h-1m-33 2l2 2-3-1-2-1-1-1c0-1 1-1 4 1m-88 1l-2 2-2 1-1 1c-1 0-2-2 0-3 1-2 5-3 5-1m116 3v1l-1-2 1 1m-113 3l1 1 3 4h2l2 2v2l1-1h4l3 1c3 0 1 2-3 2l-4 1c-3 1-4 1-3-1l-6 3c-2 1-2 2-4 1l-2 1-3 1-2 1h-2c-1-1 1-3 4-4l5-5-3 1c-4 3-6 2-6-2l1-3c0-1 0-2 2-2l5-2c3-2 4-2 5-1m-49 2l-2 3 2-2v-1m53 6v0m-5 2c-2 1-2 1 0 1h1l1-1h-2m131 4l1 2v-2h-1m-2 3l1 2v-2h-1m3 0l3 4h1l-1-1-2-2-1-1m12 4v7h1c2 0 5 4 5 7l1 2 1 2v1l2 2 1 2v-1l1-1v-1c-2-1-2-2-1-3l2 1h1c1-1-2-3-3-2h-1v-1c1 0 3-2 2-3 0 2-2 0-2-2l-1-2v-3l1 2 3 2c1 1 3 3 2 4 0 1 0 2 2 3l1 2 2 3 3 4 1 1 1 3 1 2 2 5a134 134 0 007 13l-1-3a23 23 0 00-3-8 178 178 0 00-21-37l-1 3-2-1-1-2-3-1h-3m-49 3c-1 2-2 2-2-1l2-1v2m43 7l-1 2c-2 0-2-1-2-2h3m-18 7c2 2 3 2 4 1 1-2 2-1 1 1v10l1 2c0 2 2 4 3 4l2 3 1 2 1 3v2l3 4v2l1 1v8l-1 4-2 5-2 1-1 2-1 3v6c1 2 0 4-1 2h-6l-1 4c-2 3-2 5 0 7l1 4v3h1c1 1 0 8-1 7v2l-1 4-2 1c0 1 0 3-2 4l-1 2-1 1v1l-1 3v2l3 7c2 3 3 5 1 5l-2-1-1 2-2 1-1 1v3c0 4-1 5-3 6h-2l-3 3c0 2-2 2-3 1v-2-1-3-2l1-1v-2h1c2-1 3-4 2-4l-1-1-2 1h-2v4l-1 4c0 3-1 4-2 1-1-2-2-2-4-1l-2 2-1 1-1 4c1 0 1 3-1 4l-1 2-2 2c-2 0-2-1-2-8l1-2-2-1-2 1-1 1v1l2-1c0-2 2-1 2 0 0 2 0 2-2 3a56 56 0 00-4 1l-3 4h-10l-6 1h-4l2-1c2-1 3-1 2-2l-2-1h-4c0-1 0-1 0 0v1c1 1 0 1-1 1s-2-5-1-6c1-2 0-2-2-1l-3 3v2 4l2 1 1 1c2 0 3 2 3 4s-1 2-2 1h-4l-2 1-2 2-1 1v1c0 1 0 2-2 3l-3 6-2 2-1 1h-3l-2-1c-2 0-3-1-3-3l-2-3c-3-1-4-2-3-3v-2-2-2l1-2 2-1c5-6 5-7 3-7l-3 1c-2 1-3 1-6-1s-5-2-7-1h-3c-1 0-2 0-2 2l-2 1-1 2h0l-4 2h-1c0-2-1-3-2-2l-2 1h-2l-3 1h-2l-8 2h-2c-2-2-5 0-5 3l-1 3-2 2c0 1 0 1 0 0h-1l-2-1-2-1-1-1h-6c-2 2-4 1-6 0l-1-1c-1 1-2 1-2-1v-2-2c-1-1 0-3 1-3h4l4-1 2-1 1-2 3-1 3-3 5-4 3-3 2-1 1-1 1-1 1-1 1-2 2-1 2-1h2l2-1h1l1 2h-1c-1-1-1 0-1 1l5-1h12l4-1c2-2 2-2 6-2l7-1c2-2 3-1 3 2 0 2 0 3 2 2 1-2 1-2 2-1l1 2h1l1-1 1-1 1-1h1l2-1 1-2v-1c-2-3-2-5 0-6l1-2 2-2 6-7h-5-1c-2 1-2-1 0-2l3-2c2-2 4-2 3-1 0 1 0 2-2 2-2 2-2 2 0 1h3l1-3 1-1c2 0 2-3 1-4l-1-1v-2h1l3-3 3-1 4-2h1v3c1 0 1 0 0 0h-1v-1l-1 2-1 2-2 1-2 1-1 1 2 1c1 0 1 2-1 3-2 0-1 1 1 2s6 0 7-2l3-1 5-2 1-2v1h1l2-1c3 0 10-8 11-13l4-4c3 0 6-3 6-8l1-3v-2l1-3a2884 2884 0 014-8l2-7 1-3 1-3-1-2v-3h-5c-1-1-1-2 1-2 3 0 4-6 2-9v-2l-1-1c-1-1 0-4 2-4 3 0 5-5 4-8v-1-2h4l1 1 1 5c0 2 2 2 3 0 0-2 1-2 2-1 2 2 3 1 4-2 1-4 1-5-2-3l-4 1c-2 0-2-3 0-5 1-3 2-3 4-1m-65 1v1h1l1-1 1 1h1c2 0 3 0 2 1h-6-1-1l-1 1h-2c-1-2 1-4 2-2h1c0-1 1-2 2-1m104 2l1 1c1 2 0 2-2 2v3l2 1c0-1 1-2 2-1v3c-1 1 0 2 1 1 1 0 2 1 2 4l1 4 1 1v-2l-1-4-1-2-2-4-3-7h-1m-234 1v1l1-1h-1m121 1v1l-1-1h1m10 0h-1 1m11 1l-1 2h-1l1-3 1 1m-5 0l-5 3-3 1h-2l-2 1c-1 2-2-1 0-2l1-1 2-1 9-1m-12 1h-1 1m9 3v2l-2-2h2m3 1l-1 1v-1h1m98 1l1 1v-1h-1m-102 1l-2 4-1 1c-1 1-2 0-1-2s4-5 4-3m11 0v2l-1-2h1m9 0l2 5c-1 1-3-1-3-4l1-1m83 1l1 2v1-1l-1-2m-100 2l-1 1-1-1h2m20 3l-1 2v-2h1m-169 0v0m125 1l-2 1v-1h2m5 1c0 2-1 2-1 1l1-2v1m-122 0l-1 1v-1h1m115 2h-1l1-1v1m1 5l2 4-1 3-1-1-1-3v-4l1 1m-118 2c1 2 0 3-1 2v-3c1-1 1-1 1 1m253 0h1v-1l-1 1m-136 2c0 1-1 2-2 1 0-1 0-3 1-2l1 1m140 0v0c1-1 1-1 0 0m-136 5l-1 2v-4l1 2m131-1v0c0-1 0-1 0 0m-136 0l-1 1v-1s0-1 0 0h1m142 1l1 1v-2l-1 1m4 1l1 1v-1h-1m-196 1v1l-1-1h1m189 2a222 222 0 001 5v-4l-1-2v1m-256 0c0 3-2 6-4 5l1-2v-2l2-2 1 1m124 2l-1 2v-3c1-1 1 0 1 1m-55 0l-2 3v-2l2-1m195 2l1 1v1-1l-1-1m-138 3v1c-1 1-2-1-2-2 1-1 1-1 2 1m-56 2v2l-1-5 1 3m188 0h0c0-1 0 0 0 0m-131 1l-1 1c0-2 1-2 1-1m129 0v0s0-1 0 0m-191 2c-1 2-2 0-2-1h1l1 1m7 0l-3 4v-3c2-2 3-2 3-1m186 2l1 2v-2h-1m-125 1l-1 2v-3l1 1m-3 2l2 2 1 2-5-5c0-1 2-1 2 1m129 0c-1 1 0 1 1 1v-1h-1m-194 2v1l-1-2c1-1 1 0 1 1m7 1l-1 1v-2l1 1m195 3l1 2v-1l-1-2v1m-201 0v1l-1-1h1m188-1v3c1 0 2-1 1-2l-1-1m5 1l-1 5v3h1l1-5-1-3m-118 2v1c-1 1-2 0-1-1h1m-74 1l-1-1c-1 0 0 0 0 0l1 1m97 0l-1 1v-1h1m-20 1l-2 1 1-1h1m19 0v3l-1 1 1 1c2 0 1 3-2 5-2 2-3 1-2-1v-1c-1 1-2 0-1-1v-2l2-2v-2h1l1-1h1m6 1h-1c-1 0-2 0-1-1l2 1m-78 1v4c-1 1-2-3-2-5 1-1 2 0 2 1m68-1l-1 1h-2l3-1m95 0v1l-1 1v1c0 1 1 1 1-1v-2m-275 2v0m108-1v1l-1-1h1m126 3l1 3-1 4v2l-1 5-1 1-1-1c-2-2-4-7-3-8l4-7c1-2 2-2 2 1m-42-1l-2 1v-1h2m-2 1h4l-1 2-3 1-1-1c-2 1-3-1-2-2h3m-76 5l-1 1v-2l1 1m73 0h-1v-1l1 1m53-1l1 5c-2 3-2 4-4 2v-2l1-2c-1-2 0-3 2-3m-64 2c0 1-2 2-3 1v-1h3m100 0v0m-181 1l-1 3-1-4 2 1m86 0v1c-2 1-2 1-2-1h2m-7 1h3c2 2-4 3-7 3-2-1-2-2 0-2l2-1h2m12 1l-2 1v-1h2m57 0v2l1 3-1 5-3 7-4 7-2 4c-2 4-8 10-9 10l-1-1c-1-2 0-3 1-3 2 0 4-2 3-4-1-1 0-3 1-2h1c0-1-1-2-2-1 0 2-2 3-2 1l1-2 2-3 2-2 1-2c-1 0 0-2 3-5l3-6a406 406 0 011-4l1-2c1-2 2-3 3-2m36 0v3l1-1-1-2m-143 3l1 3-4-4 3 1m151-1v1l1-1h-1m-149 1l-1 1v-1h1m-6 2c0 2 0 2-2 1l-1-2 3 1m-13 0l1 3-4-4c0-1 1-1 3 1m48-1l-1 1v-1h1m-56 1l-1 1-1-1h2m30 0v3l1 2c-1 1-2 0-3-1l-1-2h-1l1-1h2c-1-1 0-1 1-1m146 1v1l1-1-1-1v1m-153 2c1 1 0 2-1 1v-3l1 2m-28 2c3 2 3 3 2 3l-5-5c1-1 1-1 3 2m184 0v-3 3m-143-1v1h-2c-1 1-1 0-1-1h3m23 0l-1 1v-2l1 1m-34 1l-1-1 1 1m-13 1v1c-1 0-2-1-1-2l1 1m23 2l-2 3v-3h2m-20 0l2 1c0-1 0 0 0 0v3c-1 1 7 4 11 5h3l1 1c2 0 2 0 1 1-2 1-11-1-15-4-6-4-9-6-8-7l3 2c3 2 3 2 2 0-2-2-1-4 0-2m23 2v1l-1-1h1m-18 2l-1 1v-1h1m2 1l-1 1v-2l1 1m150 0v1l1-1h-1m-145 2h-1v-1l1 1m150 0l-2 2-1 2 1-1 2-3m-8 0l1 1-1-1m-185 8v2c-1 2-3 0-3-2s2-2 3 0m45 0l-2 2-2-1 4-1m-51 4v1-2 1m-94 11v0m276 16c-1 1 1 2 1 1v-1h-1m-71 2v1l-1-1h1m69 2l-1 3 2-4-1 1m-270 1l-2 4 1-2 1-1 1-1h-1m123 2v2c-2 1-2 2-1 3s-1 3-3 2c-2 0-3 4-2 5l1 2v2l-2 2-3 1-1 1v1l-3 6-1 1-2-3c-2-3-7-4-9-2l-2 2-2 2-3 4c-3 2-3 2-3 6h-4c-2 0-2 0-1-1 0-2 0-2-3-2-2 0-2 0-1-1s0-2-1-1l-1-1h1l1-1-1-2h-1l2-1h1l-1-1-1-1v-1c0-2 0-2-3-1l-2 1c-2 0-1-1 1-1a21 21 0 006-4c3-1 3-2 3-4 1-1 0-3-1-3l-1-1 1-1 1 1c1 2 1 2 2 1l4-4 1 2c1 3 3 3 6 1h1l3-1v-2c-1-2 0-3 1-3 1 1 3 0 4-1l7 1 1 1h5l2-1 1-2 3-4v1m-10 0c0 1-1 3-2 2h-1-1c-1-1 0-2 3-2h1m-93 4v2l2-2-1-1-1 1m58-1l1 1 1-1h-1-1m11 2c0 1-1 2-2 1-2 0-1-1 1-1h1m175 1v0c0-1 0 0 0 0m-184 1l1 1h-1c-1-1-2-1-1-2l1 1m12-1l-1 1v-1h1m0 3l-1-1h1v1m112 1h-1v-1h1v1m55 2v1l1-2-1 1m-182 0c1 2 1 2-1 1l-2-1h3m181 2v1l1-1h-1m-21 3l-3 3 4-2c1-2 1-2-1-1m18 1l-3 3 4-4-1 1m-187 8v1h-1c-1-1 0-1 1-1m172 0l1 1v2 1l1-3-2-1m-32 2l1 1 1 1-2 1h-1l-3 2-3 2-9 3-1-1 1-1 1-2c0-1 1-2 2-1 0 1 1 1 4-2l5-2 2-1h2m21 6l-1 1-1 2 3-1 1-1-2-1m9 1l-1 1-4 4-3 2-2 2-2 1v1l1-1h1c2 0 4-2 5-3l2-2 1-1 2-3c2-1 2-2 0-1m-16 2l-2 2h1l1-1 2-2-2 1m-18 3l-5 3c-1 0-1 1 0 0h2l5-2 1-1h-3m-14 5l-1 2-2 1-3 1h1l3 1c2 1 2 1 3-1l1-2c2-2 0-3-2-2m32 2l-4 3 4-1c2-2 3-3 0-2m-42 3h0m-107 1c1 1 0 2-2 2s-1 0 1 1h2c1-1 3 1 3 2l1 1h2l2 1 2-1c3 0 3-1 1-1l-9-5c-2-2-3-2-3 0m108 2l1 1v-1h-1m-46 2h0m74 1s-1 0 0 0h0m-5 3l-2 2 3-3-1 1m-33 2v-1 1m27 3l-3 1-2 1-1 1h-2l-1 1h2l2-1 2-1 3-1 2-2-2 1m-11 5h-1 3-2"
      fill="#e0242d" />
  </g>
</svg>