<svg height="437.524558" viewBox="0 0 400 437.52455796" width="400" xmlns="http://www.w3.org/2000/svg"><g fill-rule="evenodd"><path   d="m318.762.138c-11.547.509-25.641 3.407-40.465 8.321-2.59.858-4.89 1.561-5.111 1.561-.368 0-6.601 2.27-10.121 3.687-3.377 1.359-5.698 2.461-5.698 2.706 0 .143-.189.32-.419.393-1.639.52-15.669 7.443-19.816 9.778-3.215 1.81-8.455 5.278-10.696 7.077-5.474 4.398-9.463 8.244-13.376 12.899-.862 1.025-1.681 1.985-1.82 2.133-.511.544-4.137 5.486-5.283 7.201-14.444 21.611-23.113 52.105-24.379 85.756l-.144 3.831-1.964 1.185c-9.427 5.686-18.828 13.538-23.163 19.346-.443.594-.933 1.213-1.088 1.375-.318.332-3.942 5.848-3.942 6 0 .054-.214.438-.476.852-5.113 8.1-9.521 23.185-9.627 32.948-.044 4.055-.068 4.158-1.333 5.607-.908 1.041-5.965 7.983-8.496 11.666-5.833 8.485-9.091 13.442-12.685 19.3-3.093 5.041-6.415 13.352-8.148 20.385-3.051 12.385-1.462 19.098 5.364 22.659 3.029 1.58 5.372 3.199 7.079 4.893 3.176 3.15 3.973 4.904 7.297 16.056 2.407 8.075 4.586 13.592 6.302 15.957.992 1.367 4.594 4.96 6.204 6.189 1.254.957 6.333 4.482 6.458 4.482.042 0 .457.256.921.569 1.33.896 6.396 3.606 10.384 5.555l3.644 1.781 1.499 2.973c2.228 4.419 2.67 6.042 2.846 10.451.355 8.868-3.417 22.611-9.702 35.345l-.676 1.369 2.417-2.351c18.931-18.416 25.165-28.614 25.637-41.939.317-8.963-2.181-14.352-12.089-26.073-3.836-4.538-5.966-7.671-7.766-11.429-1.405-2.931-1.109-4.481.316-1.656 3.004 5.955 7.521 10.242 13.717 13.015 5.299 2.373 8.258 5.761 11.591 13.274.671 1.513 1.297 2.835 1.391 2.937.281.307.195-5.679-.121-8.379-1.196-10.227-4.793-17.273-12.034-23.577-2.229-1.941-3.717-3.85-4.386-5.63-2.465-6.562 4.222-15.07 11.79-15.002 2.542.022 23.069.853 23.566.954l.472.095-.122 2.414c-.742 14.647 7.193 27.637 25.036 40.982 10.185 7.617 13.654 12.148 12.262 16.012-.283.785-.406 3.719-.181 4.306.69 1.797 3.23-3.948 3.597-8.137.826-9.406-4.749-22.567-11.071-26.132-5.024-2.834-7.848-10.917-7.857-22.493-.007-8.804 1.433-13.624 6.666-22.306.324-.538 1.155-1.928 1.846-3.089.691-1.16 1.331-2.139 1.422-2.175.091-.035-.046-.345-.305-.687-3.249-4.302-1.925-3.95 1.618.429 10.89 13.464 12.797 17.074 14.853 28.123 4.129 22.187 1.175 64.416-7.716 110.314-.86 4.435-.858 4.42-.613 4.42.847 0 4.905-3.853 8.069-7.662 11.733-14.124 20.362-35.164 23.649-57.662 2.726-18.659-1.357-37.782-11.88-55.641-5.601-9.505-11.524-16.942-20.776-26.084-2.735-2.703-2.826-2.852-2.211-3.638.212-.27.387-.556.389-.635s.357-.72.788-1.424 1.148-2.009 1.594-2.901l.811-1.622-1.643 1.565c-.904.861-1.909 1.844-2.233 2.184-1.215 1.275-6.064 5.381-8.432 7.141-2.936 2.182-3.828 2.63-6.453 3.245-5.076 1.188-4.991 1.184-27.944 1.196-11.562.006-21.818.08-22.79.165-10.4.908-15.18 2.269-20.543 5.847-2.102 1.403-5.487 4.662-6.916 6.66-.19.266-.79 1.103-1.333 1.86-7.458 10.397-7.353 23.549.327 41.038.913 2.08.857 2.1-1.323.461-12.648-9.508-17.514-17.477-17.423-28.533.025-2.999-.039-4.022-.323-5.206-.946-3.936-2.411-6.09-5.965-8.769-3.34-2.518-3.367-2.248.65-6.463 4.252-4.46 4.448-5.137 1.707-5.9-8.79-2.447-9.277-5.604-2.685-17.389.63-1.127 1.317-2.358 1.527-2.736 4.327-7.815 14.449-21.671 20.571-28.161 6.051-6.415 9.699-6.456 11.507-.13 1.185 4.145 1.343 4.31 4.826 5.033 7.381 1.534 8.127.321 3.434-5.583-5.505-6.926-5.184-8.173 3.416-13.298 13.433-8.006 17.886-12.453 17.876-17.849-.01-5.048-2.28-6.073-7.267-3.28-6.555 3.67-10.172 5.197-13.262 5.601-.54.07-1.224.173-1.52.229-.648.121-.626-.207.186-2.778 2.353-7.461 9.812-16.974 18.306-23.348 5.85-4.391 12.578-8.213 24.679-14.021 14.346-6.885 19.937-10.079 28.094-16.052 4.032-2.952 5.185-3.85 8.546-6.656 3.855-3.218 9.673-8.789 12.317-11.795 1.158-1.315 2.163-2.436 2.235-2.49.238-.18 3.405-4.241 4.958-6.358 4.334-5.909 8.095-13.505 9.644-19.477.807-3.113 1.686-7.172 1.807-8.35l.111-1.08-1.211 2.259c-5.213 9.724-6.317 11.59-10.233 17.29-3.45 5.022-9.134 11.351-13.243 14.745-.972.804-1.812 1.505-1.866 1.56-.931.937-5.543 3.933-8.289 5.384l-2.492 1.317-.837-.747c-8.656-7.729-8.038-25.592 1.736-50.158 4.396-11.048 9.053-19.255 14.716-25.933 3.543-4.179 7.969-8.793 10.489-10.938.486-.413 1.37-1.199 1.965-1.745 2.666-2.448 10.387-8.156 12.869-9.513.648-.354 1.311-.75 1.474-.88.542-.434 4.206-2.549 5.852-3.379.896-.452 1.604-.871 1.572-.932-.107-.207.818-.723 5.292-2.95 3.942-1.963 6.033-2.91 11.547-5.228 4.727-1.988 15.479-5.499 20.137-6.576.811-.188 1.739-.404 2.063-.481 2.069-.493-8.066-1.115-13.949-.855m-107.367 3.517c-119.153 5.476-211.081 99.885-211.081 216.777 0 120.14 97.996 216.869 219.627 216.789 5.537-.003 11.088-.109 13.065-.247 3.531-.248 10.184-.814 10.481-.892.091-.024-3.506-.008-7.993.035-129.056 1.248-228.846-109.466-213.174-236.51 13.737-111.354 113.998-192.72 226.714-183.987l3.748.29 3.914-1.55c4.494-1.78 10.69-4.125 12.242-4.633 1.355-.444 1.273-.483-2.828-1.35-17.297-3.654-38.374-5.473-54.715-4.722m82.502 14.354c-2.351 1.233-3.513 1.939-5.236 3.18l-1.221.88 4.329 1.24c39.615 11.341 75.715 34.607 102.608 66.131 2.054 2.407 2.942 3.309 1.742 1.768-.315-.405-1.399-1.797-2.407-3.094-24.562-31.585-59.102-56.926-96.268-70.629l-1.496-.552zm-77.195 57.073c-.665 2.089-1.377 4.329-1.581 4.977-4.351 13.793-5.267 21.048-5.624 44.518l-.13 8.566-2.847 1.211c-1.566.666-2.874 1.185-2.906 1.152-.65-.65-.805-16.724-.213-22.146 1.893-17.351 6.785-31.83 14.176-41.962.434-.595.274.078-.875 3.684m51.472 61.016c.004.558 1.737 6.606 2.662 9.285 5.306 15.377 13.927 26.521 24.842 32.111.81.415 1.562.817 1.67.893 2.108 1.482 14.284 6.3 20.53 8.124 17.103 4.995 39.078 6.558 58.35 4.148 6.431-.804 5.034-1.301-9.627-3.427-11.716-1.7-17.168-2.589-23.529-3.838-16.787-3.297-27.527-7.007-33.466-11.563-3.008-2.307-12.89-10.582-19.708-16.504-.981-.852-2.049-1.773-2.373-2.046-.325-.273-1.034-.902-1.576-1.397-.543-.496-1.597-1.432-2.343-2.08-.746-.649-1.451-1.268-1.567-1.376-.117-.108-.566-.495-.998-.86-.432-.366-1.272-1.119-1.866-1.675-2.913-2.724-11.002-9.927-11.001-9.795" fill="#0F2347"/><path d="m315.864.139c.244.046.641.046.885 0 .243-.047.044-.085-.443-.085-.486 0-.685.038-.442.085m12.773 0c.244.047.598.045.786-.004s-.012-.088-.445-.085c-.432.002-.586.042-.341.089m-15.032.193c.189.049.499.049.688 0 .189-.05.034-.09-.344-.09s-.533.04-.344.09m-1.965.196c.19.05.499.05.688 0 .189-.049.034-.089-.344-.089s-.533.04-.344.089m-95.088 2.959c1.81.032 4.772.032 6.582 0 1.81-.033.329-.059-3.291-.059s-5.101.026-3.291.059m-7.662.192c.405.043 1.068.043 1.473 0 .406-.042.074-.077-.736-.077-.811 0-1.142.035-.737.077m20.33-.001c.348.044.967.044 1.375.002.407-.043.122-.078-.634-.079-.757-.001-1.09.034-.741.077m-23.667.196c.298.045.74.044.982-.003s-.003-.083-.543-.082-.738.04-.439.085m27.701 0c.299.045.741.044.982-.003.242-.047-.002-.083-.542-.082-.541.001-.738.04-.44.085m-30.749.194c.243.047.641.047.884 0s.044-.085-.442-.085-.685.038-.442.085m33.595 0c.243.047.641.047.884 0s.044-.085-.442-.085-.685.038-.442.085m-35.854.193c.189.05.498.05.687 0 .189-.049.035-.09-.344-.09-.378 0-.533.041-.343.09m38.411.004c.244.047.598.045.785-.004.188-.049-.012-.088-.444-.086s-.586.043-.341.09m-40.668.196c.244.047.598.045.785-.004.188-.049-.012-.087-.444-.085s-.586.042-.341.089m42.925-.003c.189.049.498.049.687 0 .189-.05.035-.09-.344-.09-.378 0-.533.04-.343.09m1.964.196c.189.05.499.05.688 0 .189-.049.034-.09-.344-.09s-.533.041-.344.09m1.768.197c.189.049.499.049.688 0 .189-.05.034-.09-.344-.09s-.533.04-.344.09m-52.063.196c.19.049.499.049.688 0s.035-.09-.344-.09c-.378 0-.533.041-.344.09m85.048 1.935c-1.12.259-3.167.827-4.549 1.263-1.383.436-2.677.799-2.876.808-.252.011-.279.049-.09.124.151.059-1.485.747-3.634 1.528-2.15.781-6.059 2.273-8.688 3.314-2.628 1.042-5.043 1.895-5.365 1.895s-.538.077-.479.172c.058.095-.501.647-1.242 1.228-1.939 1.517-2.55 2.737-1.227 2.447.359-.079.246.035-.365.368-1.1.599-.907.649.28.072.483-.235.835-.499.781-.587-.055-.088.038-.107.206-.043.177.068.305.013.305-.133 0-.137.054-.195.121-.128.068.067.664-.157 1.327-.498.662-.341 1.248-.629 1.302-.639.482-.094.982-.357.982-.516 0-.107.089-.14.197-.074.108.067.196.047.196-.044 0-.092.198-.181.439-.2.242-.018.471-.126.508-.239.038-.114.15-.157.249-.096.099.062.18.013.18-.108s.079-.171.175-.111c.097.06.222-.011.278-.156.231-.602 14.744-6.464 16.623-6.714.486-.065 4.979-1.565 6.205-2.072.324-.134.708-.224.854-.199.146.024.211-.045.143-.153-.067-.109.035-.29.226-.403 1.127-.663-.421-.717-3.062-.106m-52.724 8.29c.462.041 1.169.041 1.572-.001.402-.043.024-.077-.84-.076-.865.001-1.194.035-.732.077m13.361.001c.571.04 1.455.039 1.965-.001.509-.04.042-.073-1.039-.073-1.08.001-1.497.034-.926.074m-17.587.192c.298.045.74.044.982-.003.241-.046-.003-.083-.543-.082-.54.002-.738.04-.439.085m22.885.001c.351.044.926.044 1.277 0 .351-.043.064-.079-.639-.079-.702 0-.989.036-.638.079m-26.029.196c.299.045.741.044.982-.003.242-.047-.002-.084-.543-.082-.54.001-.738.039-.439.085m29.369-.003c.243.047.641.047.884 0s.044-.085-.442-.085c-.487 0-.685.038-.442.085m-32.022.197c.245.047.598.045.786-.004s-.012-.088-.444-.085c-.432.002-.586.042-.342.089m34.772 0c.243.047.641.047.884 0s.044-.085-.442-.085-.685.038-.442.085m44.426-.041c-.014.054-.036.181-.05.281-.013.101-1.041.703-2.284 1.339s-3.257 1.792-4.475 2.568-2.271 1.412-2.34 1.412c-1.239 0-2.787 2.479-2.215 3.548.409.765 1.098.453 3.088-1.399 1.077-1.003 1.532-1.306 1.866-1.243.397.075.403.067.055-.085-.887-.388 7.525-5.515 8.612-5.25.231.057.305.051.166-.013-.186-.084-.142-.212.165-.479.853-.739-.297-.983-2.153-.456-.333.094-.431.067-.332-.093.077-.126.091-.228.031-.228s-.121.044-.134.098m-81.359.238c.245.046.598.045.786-.004.188-.05-.012-.088-.444-.086s-.586.043-.342.09m-79.324 4.674c-.27.154-.403.281-.295.281s.418-.127.688-.281c.27-.155.402-.281.294-.281s-.417.126-.687.281m173.674.589c.27.155.579.281.687.281s-.024-.126-.294-.281c-.271-.154-.58-.28-.688-.28s.025.126.295.28m-178.193 1.376c-.27.154-.403.28-.295.28.109 0 .418-.126.688-.28.27-.155.403-.281.295-.281s-.418.126-.688.281m183.301.884c.378.207.776.376.884.376s-.113-.169-.491-.376c-.379-.207-.776-.377-.884-.377s.113.17.491.377m-185.658.196c-.379.207-.6.377-.492.377s.506-.17.885-.377c.378-.207.599-.376.491-.376s-.506.169-.884.376m-4.323 2.063c-1.35.691-2.367 1.257-2.259 1.257s1.302-.566 2.652-1.257c1.351-.691 2.368-1.257 2.26-1.257s-1.302.566-2.653 1.257m193.517-.589c.486.26.973.473 1.081.473s-.202-.213-.688-.473c-.486-.261-.972-.474-1.081-.474-.108 0 .202.213.688.474m2.947 1.372c0 .054 1.061.63 2.358 1.28 1.296.65 2.357 1.137 2.357 1.083s-1.061-.63-2.357-1.28c-1.297-.65-2.358-1.137-2.358-1.083m-200.246 1.096c-.621.321-1.129.627-1.129.681s.53-.17 1.179-.497c.648-.327 1.178-.638 1.178-.691 0-.131.037-.146-1.228.507m-3.929 2.064c-.734.399-.69.565.049.183.324-.168.59-.347.59-.398 0-.127-.021-.12-.639.215m209.872-.22c0 .054.266.235.59.403.324.167.589.26.589.206s-.265-.235-.589-.403c-.324-.167-.59-.26-.59-.206m-211.64 1.203c-.734.398-.69.564.049.182.324-.168.59-.347.59-.398 0-.126-.022-.119-.639.216m213.802-.025c0 .054.265.236.589.403.324.168.589.261.589.207s-.265-.235-.589-.403-.589-.261-.589-.207m-215.963 1.203c-.735.399-.69.565.049.183.324-.168.589-.347.589-.398 0-.127-.021-.119-.638.215m217.731-.22c0 .054.265.235.589.403.324.167.59.26.59.206s-.266-.235-.59-.403c-.324-.167-.589-.26-.589-.206m-181.14 1.189c-.27.154-.402.28-.294.28s.417-.126.687-.28c.27-.155.403-.281.295-.281s-.418.126-.688.281m-38.949.407c-.734.398-.689.564.049.182.325-.168.59-.347.59-.398 0-.126-.021-.119-.639.216m35.02 1.361c-.27.154-.403.281-.295.281s.418-.127.688-.281c.27-.155.403-.281.295-.281s-.418.126-.688.281m123.472 1.109c-.753.772-1.149 1.238-.879 1.035.514-.385 2.479-2.439 2.333-2.439-.046 0-.7.632-1.454 1.404m66.312-1.316c0 .054.265.236.589.403.324.168.59.261.59.207s-.266-.236-.59-.403c-.324-.168-.589-.261-.589-.207m-10.413.6c.487.26.973.473 1.081.473s-.202-.213-.688-.473c-.486-.261-.972-.474-1.08-.474s.201.213.687.474m12.083.396c.216.176.57.407.786.513l.393.193-.393-.32c-.216-.176-.57-.407-.786-.513l-.393-.193zm-197.004 1.875c-1.918.967-3.487 1.803-3.487 1.857 0 .087 7.053-3.375 7.252-3.561.328-.305-.749.182-3.765 1.704m84.125-.061-.677.737.737-.677c.685-.631.827-.797.677-.797-.033 0-.365.332-.737.737m104.546-.465c.2.183 2.537 1.295 2.537 1.207 0-.11-2.27-1.282-2.483-1.282-.075 0-.1.033-.054.075m-225.266.836c-1.002.665-1.356 1.016-.573.569.689-.393 1.609-1.076 1.457-1.083-.056-.002-.454.229-.884.514m238.707.999c.307.313 5.599 3.806 5.599 3.696 0-.054-1.171-.879-2.603-1.834-2.79-1.86-3.316-2.187-2.996-1.862m-121.718 2.125c-1.022 1.03-1.899 1.936-1.95 2.013-.05.077.812-.742 1.916-1.821 1.104-1.078 2.007-1.984 2.007-2.013 0-.148-.258.091-1.973 1.821m113.761-1.195c0 .054.354.279.786.5.432.22.786.356.786.302s-.354-.278-.786-.499c-.432-.22-.786-.357-.786-.303m-234.924.8c-.566.381-1.029.735-1.029.787 0 .053.487-.227 1.081-.622.944-.627 1.221-.858 1.029-.858-.029 0-.515.311-1.081.693m34.679.106c-.406.214-.737.433-.737.486 0 .054.353-.083.786-.303.432-.221.786-.443.786-.495 0-.129-.002-.128-.835.312m202.799.468c0 .054.265.235.59.403.324.167.589.26.589.206s-.265-.235-.589-.403c-.325-.167-.59-.26-.59-.206m-204.764.613c-.735.399-.69.565.049.183.324-.168.589-.347.589-.398 0-.127-.021-.12-.638.215m206.532.369c0 .054.266.235.59.403s.589.26.589.206-.265-.235-.589-.403c-.324-.167-.59-.26-.59-.206m-208.3.614c-.735.398-.69.564.049.182.324-.168.589-.347.589-.398 0-.127-.021-.119-.638.216m-34.873.496c-.459.325-.835.635-.835.688 0 .054.398-.176.885-.511.486-.335.884-.648.884-.697 0-.135-.038-.115-.934.52m253.193-.144c0 .054.265.287.589.517.325.231.59.376.59.322s-.265-.287-.59-.518c-.324-.231-.589-.375-.589-.321m-7.269.606c0 .054.265.235.589.403.324.167.59.26.59.206s-.266-.235-.59-.403c-.324-.167-.589-.26-.589-.206m-247.643.813-.589.506.638-.422c.352-.233.639-.461.639-.508 0-.147-.083-.096-.688.424m256.287-.437c0 .054.265.287.59.518.324.231.589.375.589.321s-.265-.287-.589-.518c-.325-.231-.59-.375-.59-.321m1.375.982c0 .054.266.287.59.518s.589.376.589.322-.265-.288-.589-.518c-.324-.231-.59-.376-.59-.322m-259.823 1.026-.589.507.638-.423c.352-.232.639-.46.639-.507 0-.147-.083-.096-.688.423m261.199-.053c0 .048.324.335.721.638s.659.45.583.327c-.155-.251-1.304-1.102-1.304-.965m-229.224.746c-.67.429-.887.717-.295.392.451-.248 1.157-.794 1.031-.797-.054-.002-.385.181-.736.405m-36.002 2.26c-.486.38-1.017.831-1.179 1.003s.258-.104.933-.614c.676-.509 1.228-.965 1.228-1.013 0-.136-.046-.107-.982.624m32.707-.192c-1.002.665-1.355 1.016-.572.569.689-.393 1.608-1.077 1.457-1.083-.056-.002-.454.229-.885.514m237.234.707c0 .06 1.282 1.136 2.849 2.392 1.566 1.257 2.848 2.242 2.848 2.19s-1.127-.996-2.505-2.098c-1.377-1.102-2.659-2.136-2.848-2.298-.189-.161-.344-.245-.344-.186m-274.46 3.113-.884.802.933-.728c.818-.637 1.061-.877.884-.876-.027.001-.447.362-.933.802m31.483.003c-.459.326-.835.635-.835.689 0 .053.398-.177.885-.512.486-.334.884-.648.884-.697 0-.135-.038-.114-.934.52m241.798.445c0 .054.265.287.589.518.325.231.59.376.59.322s-.265-.288-.59-.518c-.324-.231-.589-.376-.589-.322m-244.106 1.223-.589.506.638-.422c.351-.233.639-.461.639-.508 0-.147-.084-.095-.688.424m245.481-.24c0 .054.266.287.59.517.324.231.589.376.589.322s-.265-.287-.589-.518-.59-.376-.59-.321m5.698.184c0 .054.53.558 1.179 1.119.648.562 1.178.977 1.178.923s-.53-.558-1.178-1.119c-.649-.562-1.179-.977-1.179-.923m-252.751 1.135c-1.165.881-1.322 1.13-.229.364.825-.579 1.275-.982 1.076-.964-.034.003-.415.273-.847.6m248.429-.337c0 .054.265.287.589.518s.589.375.589.321-.265-.287-.589-.518-.589-.375-.589-.321m-281.347 2.04-.677.737.737-.677c.405-.372.736-.704.736-.737 0-.15-.166-.008-.796.677m30.119.354c-.784.596-1.425 1.127-1.425 1.18s.663-.403 1.474-1.013c1.28-.963 1.627-1.269 1.424-1.254-.027.002-.69.491-1.473 1.087m258.104-1.029c0 .034.287.321.638.639l.639.577-.577-.639c-.538-.595-.7-.729-.7-.577m1.964 1.805c.367.378.711.688.765.688s-.202-.31-.568-.688c-.367-.378-.711-.688-.765-.688s.202.31.568.688m-291.759.246-.677.736.737-.677c.405-.372.737-.704.737-.736 0-.15-.167-.009-.797.677m292.742.497c0 .054.884.913 1.964 1.909 1.081.997 1.965 1.767 1.965 1.713s-.884-.913-1.965-1.909c-1.08-.996-1.964-1.767-1.964-1.713m-294.499 1.025c-.478.486-.824.884-.77.884s.489-.398.966-.884.824-.884.77-.884-.489.398-.966.884m291.355.09c.378.338 1.218 1.015 1.867 1.506.648.49.869.616.491.279-.378-.338-1.218-1.015-1.867-1.506-.648-.49-.869-.616-.491-.279m-293.523 1.924-1.074 1.13 1.13-1.074c1.049-.998 1.219-1.186 1.074-1.186-.031 0-.54.509-1.13 1.13m296.667.505c0 .05.773.739 1.719 1.53.945.792 1.605 1.297 1.466 1.123-.304-.383-3.185-2.781-3.185-2.653m4.125.184c0 .028 2.41 2.437 5.354 5.354l5.354 5.303-5.303-5.354c-4.929-4.975-5.405-5.442-5.405-5.303m-306.975 5.303-4.911 4.961 4.961-4.91c4.61-4.563 5.049-5.012 4.91-5.012-.028 0-2.26 2.233-4.96 4.961m29.569-.615-1.474 1.39 1.523-1.32c1.34-1.162 1.66-1.48 1.473-1.465-.027.002-.712.63-1.522 1.395m278.585-.318c.367.378.711.687.765.687s-.202-.309-.568-.687c-.367-.378-.711-.688-.765-.688s.202.31.568.688m-173.684 2.28c-.44.875-.769 1.623-.73 1.662s.442-.678.895-1.592c.454-.914.782-1.663.73-1.663s-.455.717-.895 1.593m175.354-.807c.422.433.812.786.866.786s-.247-.353-.669-.786c-.422-.432-.812-.786-.866-.786s.247.354.669.786m-282.72 1.032-.777.835.835-.777c.777-.722.925-.893.777-.893-.032 0-.408.376-.835.835m284.488.54c.422.432.812.786.866.786s-.247-.354-.669-.786-.812-.786-.866-.786.247.354.669.786m-286.744 1.523-1.271 1.326 1.326-1.272c.729-.699 1.326-1.296 1.326-1.326 0-.144-.2.04-1.381 1.272m289.298.835c.86.864 1.607 1.571 1.661 1.571s-.605-.707-1.464-1.571c-.86-.865-1.607-1.572-1.661-1.572s.605.707 1.464 1.572m-160.256-.639c-1.198 1.387-3.774 5.808-5.439 9.335-7.05 14.939-10.309 35.158-8.549 53.042.157 1.596-.061 1.584 3.223.17l2.652-1.142.127-9.411c.33-24.426 1.556-32.322 7.909-50.913.524-1.534.529-1.604.077-1.081m-135.128 5.698-4.616 4.666 4.666-4.616c4.336-4.288 4.755-4.716 4.616-4.716-.028 0-2.128 2.099-4.666 4.666m-24.955-3.144-1.272 1.326 1.327-1.271c.729-.699 1.326-1.296 1.326-1.326 0-.145-.2.039-1.381 1.271m324.858.246c.642.648 1.211 1.179 1.265 1.179s-.427-.531-1.068-1.179c-.642-.649-1.211-1.179-1.265-1.179s.426.53 1.068 1.179m.589 2.75c1.835 1.837 3.38 3.34 3.434 3.34s-1.403-1.503-3.237-3.34c-1.835-1.837-3.38-3.34-3.434-3.34s1.403 1.503 3.237 3.34m-327.603-.687c-.477.486-.823.884-.769.884s.489-.398.966-.884c.477-.487.823-.884.769-.884s-.488.397-.966.884m328.979.098c.422.432.811.786.865.786s-.247-.354-.669-.786-.811-.786-.865-.786.247.354.669.786m-330.561 1.719-.677.737.737-.677c.405-.373.736-.704.736-.737 0-.15-.166-.009-.796.677m227.368-.598c-.135.05-.245.182-.245.294 0 .124.116.108.294-.04.248-.205.299-.17.318.222.018.365.043.387.116.101.109-.423-.129-.707-.483-.577m104.666.549c.367.378.711.687.765.687s-.202-.309-.568-.687c-.367-.378-.711-.688-.765-.688s.202.31.568.688m-333.313 1.522-.577.639.639-.577c.351-.318.638-.605.638-.639 0-.151-.162-.018-.7.577m334.688.049c.367.379.711.688.765.688s-.202-.309-.568-.688c-.367-.378-.711-.687-.765-.687s.202.309.568.687m-335.867 1.327-.577.638.639-.577c.595-.538.729-.7.577-.7-.034 0-.321.287-.639.639m336.555 1.129c.859.865 1.607 1.572 1.661 1.572s-.605-.707-1.465-1.572c-.859-.864-1.606-1.571-1.66-1.571s.605.707 1.464 1.571m.957-.532c.526.617.999 1.122 1.05 1.122.132 0-1.505-1.935-1.779-2.104-.125-.077.203.365.729.982m-312.163 1.564c-2.192 2.291-2.923 3.094-2.817 3.094.058 0 1.012-.972 2.119-2.161 1.108-1.189 1.982-2.161 1.943-2.161-.038 0-.599.552-1.245 1.228m-27.792.736c-.452.541-.778.983-.724.983s.468-.442.92-.983c.453-.54.779-.982.725-.982s-.469.442-.921.982m341.446.835c.814.868.99 1.024.99.876 0-.031-.42-.451-.933-.933l-.933-.876zm1.383.344c.452.541.867.983.921.983s-.272-.442-.724-.983c-.453-.54-.867-.982-.921-.982s.272.442.724.982m.295 1.572c.422.432.811.786.865.786s-.247-.354-.669-.786-.811-.786-.865-.786.247.354.669.786m-318.971.54c-1.391 1.505-1.827 2.014-1.723 2.014.058 0 .656-.619 1.328-1.375 1.28-1.44 1.571-1.91.395-.639m-27.296.639c-.343.432-.579.786-.525.786s.379-.354.721-.786c.342-.433.578-.786.524-.786s-.378.353-.72.786m348.133 0c.342.432.667.786.721.786s-.182-.354-.524-.786c-.343-.433-.667-.786-.721-.786s.182.353.524.786m-.982-.135c0 .034.287.321.638.638l.639.577-.577-.638c-.538-.595-.7-.729-.7-.577m2.357 1.903c.343.432.667.786.721.786s-.182-.354-.524-.786-.667-.786-.721-.786.182.354.524.786m.265 1.131c.848.991 1.633 1.784 1.744 1.76.111-.023.246.08.301.231.068.188.015.223-.172.113-.149-.088-.105.031.099.263.539.614.79.309.306-.371-.226-.318-.481-.535-.566-.482-.086.053-.75-.609-1.477-1.471s-1.425-1.63-1.55-1.707c-.124-.077.467.672 1.315 1.664m-324.933-.689-.577.638.638-.577c.596-.537.729-.7.577-.7-.033 0-.321.288-.638.639m-27.141.786c-.852 1.113-1.302 1.778-1.133 1.676.232-.14 1.536-1.922 1.407-1.922-.048 0-.171.111-.274.246m24.697 2.112c-.452.54-.778.982-.724.982s.469-.442.921-.982c.452-.541.778-.983.724-.983s-.468.442-.921.983m330.004.71c-.065.065.334.683.887 1.373.553.689 1.042 1.217 1.088 1.171.129-.13-1.128-1.879-1.351-1.879-.11 0-.15-.078-.091-.174.128-.208-.364-.66-.533-.491m-357.705 1.254c-.231.325-.375.59-.321.59s.287-.265.518-.59c.23-.324.375-.589.321-.589s-.287.265-.518.589m235.403 1.871c-.235.484-.386.88-.336.88.133 0 .927-1.596.838-1.685-.041-.041-.267.321-.502.805m-38.304-.102c0 .378.04.532.09.343.049-.189.049-.498 0-.687-.05-.189-.09-.035-.09.344m-198.474.196c-.231.324-.376.589-.322.589s.287-.265.518-.589.376-.589.322-.589-.287.265-.518.589m25.344.786c-.343.432-.579.786-.525.786s.379-.354.721-.786.578-.786.524-.786-.378.354-.72.786m172.941 1.179c0 .486.038.685.085.442s.047-.641 0-.884-.085-.045-.085.442m-200.996 2.013c-1.86 2.79-2.187 3.316-1.862 2.997.313-.308 3.806-5.6 3.696-5.6-.054 0-.88 1.172-1.834 2.603m27.045-1.866c-.565.682-.805 1.031-.708 1.031.055 0 .335-.309.624-.687.535-.702.6-.967.084-.344m-2.527 3.389c-.231.324-.375.589-.321.589s.287-.265.518-.589.375-.589.321-.589-.287.265-.518.589m-1.964 2.751c-.231.324-.376.589-.322.589s.287-.265.518-.589c.231-.325.376-.59.322-.59s-.288.265-.518.59m-25.269-.148c-.677 1.148-.721 1.246-.376.835.399-.475.743-1.08.614-1.08-.051 0-.159.11-.238.245m203.707.835c.002.432.043.586.09.342.047-.245.045-.598-.004-.786-.05-.188-.088.012-.086.444m23.424 2.112-1.961 2.014 2.014-1.961c1.871-1.821 2.103-2.067 1.961-2.067-.029 0-.935.907-2.014 2.014m-228.114-1.375c-.676 1.147-.72 1.245-.376.835.4-.476.744-1.081.615-1.081-.052 0-.159.111-.239.246m23.54 2.554c-1.86 2.789-2.187 3.316-1.861 2.996.313-.307 3.806-5.599 3.695-5.599-.054 0-.879 1.171-1.834 2.603m200.833 2.357-.577.639.638-.577c.596-.538.729-.7.577-.7-.033 0-.321.287-.638.638m-203.547 1.769c-.677 1.147-.721 1.245-.376.835.399-.476.743-1.081.614-1.081-.052 0-.159.111-.238.246m-25.124.54c-.168.324-.261.589-.207.589s.235-.265.403-.589.261-.589.207-.589-.236.265-.403.589m235.254.737-.677.736.737-.677c.686-.63.827-.796.677-.796-.033 0-.364.331-.737.737m-236.04.638c-.168.324-.261.59-.207.59s.236-.266.403-.59c.168-.324.261-.589.207-.589s-.236.265-.403.589m24.927-.344c-.676 1.148-.72 1.246-.376.835.399-.475.743-1.08.615-1.08-.052 0-.159.11-.239.245m-25.91 2.112c-.167.325-.26.59-.206.59s.235-.265.403-.59c.167-.324.26-.589.206-.589s-.235.265-.403.589m234.283.491c-.477.487-.823.885-.769.885s.489-.398.966-.885c.477-.486.823-.884.769-.884s-.489.398-.966.884m-18.476 1.327c.815.867.991 1.023.991.876 0-.032-.42-.452-.933-.934l-.933-.876zm-217.084.54c-.22.432-.356.786-.302.786s.278-.354.499-.786c.22-.432.357-.786.302-.786-.054 0-.278.354-.499.786m22.888 2.75c-.167.325-.26.59-.206.59s.235-.265.403-.59c.167-.324.26-.589.206-.589s-.235.265-.403.589m-25.55 2.379c-.602 1.2-1.063 2.213-1.025 2.251s.573-.944 1.189-2.182c.617-1.238 1.078-2.251 1.025-2.251-.052 0-.587.982-1.189 2.182m231.139-.07-.677.737.737-.677c.685-.631.827-.797.677-.797-.033 0-.365.332-.737.737m-71.064.442c0 .378.041.533.09.344.05-.189.05-.499 0-.688-.049-.189-.09-.034-.09.344m-136.391.589c-.221.432-.357.786-.303.786s.279-.354.499-.786c.221-.432.357-.786.303-.786s-.279.354-.499.786m-1.572 2.947c-.22.432-.356.786-.302.786s.278-.354.499-.786c.22-.432.356-.786.302-.786s-.278.354-.499.786m137.57.197c0 .378.041.533.09.344.05-.19.05-.499 0-.688-.049-.189-.09-.034-.09.344m-161.894.5c-.592 1.219-.526 1.389.084.217.272-.524.462-.986.421-1.027-.042-.041-.269.324-.505.81m161.702 1.759c.002.432.042.586.089.342.047-.245.046-.598-.004-.786-.049-.188-.087.012-.085.444m-.193 2.456c0 .486.039.685.086.442.046-.243.046-.641 0-.884-.047-.243-.086-.044-.086.442m-140.784 2.268c-.462.968-.397 1.133.086.218.219-.415.363-.79.321-.832-.042-.043-.226.234-.407.614m140.593.679c0 .594.037.837.082.54s.045-.783 0-1.08c-.045-.298-.082-.055-.082.54m88.154.847c0 .034.287.321.638.639l.639.577-.577-.639c-.538-.595-.7-.729-.7-.577m-230.224 1.617c-.329.722-.266.877.09.22.166-.307.265-.595.22-.64-.045-.044-.184.144-.31.42m141.884 1.662c0 .918.033 1.294.075.834.041-.459.041-1.21 0-1.669-.042-.46-.075-.084-.075.835m-142.67.106c-.329.723-.266.877.09.22.166-.307.265-.594.22-.639s-.184.143-.31.419m237.296 2.313c0 .033.288.321.639.638l.638.577-.577-.638c-.537-.596-.7-.729-.7-.577m3.733 3.339c0 .034.288.322.639.639l.638.577-.577-.639c-.538-.595-.7-.728-.7-.577m-61.296 1.609c-.271.154-.403.281-.295.281s.417-.127.688-.281c.27-.155.402-.281.294-.281s-.417.126-.687.281m-43.959 1.689c-.459.326-.835.635-.835.689 0 .053.398-.177.884-.512.486-.334.884-.648.884-.697 0-.135-.037-.114-.933.52m39.833.276c-.486.26-.796.473-.688.473s.595-.213 1.081-.473c.486-.261.795-.474.687-.474s-.594.213-1.08.474m68.959-.43c0 .034.287.321.638.638l.639.577-.577-.638c-.538-.595-.7-.729-.7-.577m-76.277 3.98c-.735.398-.69.564.049.182.324-.167.589-.346.589-.398 0-.126-.021-.119-.638.216m-39.539 1.378-.589.507.638-.423c.352-.232.639-.461.639-.507 0-.147-.083-.096-.688.423m34.431 1.274c-.406.213-.737.432-.737.486s.353-.083.786-.303c.432-.221.785-.444.785-.496 0-.128-.001-.128-.834.313m73.231.183c.168.324.349.589.403.589s-.039-.265-.206-.589c-.168-.325-.349-.59-.403-.59s.039.265.206.59m-113.568 3.585-.577.639.638-.577c.352-.318.639-.605.639-.639 0-.152-.162-.018-.7.577m-3.24 3.438-.677.737.737-.677c.686-.63.827-.797.677-.797-.033 0-.364.332-.737.737m123.189 2.794c.229.321.516.645.639.721.122.076-.025-.187-.328-.583-.656-.861-.904-.971-.311-.138m-96.57 1.43-.577.639.639-.577c.351-.318.638-.605.638-.639 0-.152-.162-.018-.7.577m-2.836 2.603c-.805.811-1.42 1.474-1.366 1.474s.757-.663 1.562-1.474c.805-.81 1.42-1.473 1.366-1.473s-.757.663-1.562 1.473m103.775.789c.402.42.762.724.801.675s-.29-.392-.73-.764l-.801-.675zm2.494 2.126c.287.358 1.393 1.2 1.393 1.061 0-.043-.376-.378-.835-.742-.459-.365-.71-.509-.558-.319m-140.029 5.345c-.329.723-.266.877.09.22.166-.307.265-.594.22-.639s-.184.144-.31.419m151.638 1.662c.378.207.776.376.884.376s-.113-.169-.491-.376-.776-.377-.884-.377.113.17.491.377m-110.953 2.689c.189.05.499.05.688 0 .189-.049.034-.09-.344-.09s-.533.041-.344.09m-18.664 7.466c.189.049.499.049.688 0 .189-.05.034-.09-.344-.09s-.533.04-.344.09m169.155.982c.189.05.499.05.688 0 .189-.049.034-.09-.344-.09s-.533.041-.344.09m34.578 0c.189.05.498.05.688 0 .189-.049.034-.09-.344-.09s-.533.041-.344.09m-32.709.2c.244.047.598.045.786-.004s-.012-.088-.444-.085c-.433.002-.586.042-.342.089m30.648 0c.245.047.598.045.786-.004s-.012-.088-.444-.085c-.432.002-.586.042-.342.089m-28.487.197c.244.047.598.045.786-.004.188-.05-.012-.088-.444-.086-.433.002-.586.043-.342.09m25.835.002c.299.045.741.044.983-.003.241-.047-.003-.084-.543-.082-.54.001-.738.039-.44.085m-23.182.196c.298.045.74.044.982-.003.242-.046-.003-.083-.543-.082-.54.002-.738.04-.439.085m20.036 0c.298.045.784.045 1.081 0s.054-.082-.54-.082c-.595 0-.838.037-.541.082m-16.306.2c.513.04 1.353.04 1.866 0 .514-.041.094-.074-.933-.074-1.026 0-1.446.033-.933.074m11.5.001c.571.039 1.455.039 1.964-.001.51-.041.043-.073-1.038-.073-1.08.001-1.497.034-.926.074m-360.423 7.517c0 .378.04.533.09.343.049-.189.049-.498 0-.687-.05-.189-.09-.035-.09.344m-.193 2.259c.003.432.043.586.09.341.047-.244.045-.598-.004-.785-.049-.188-.088.012-.086.444m140.271 1.473c0 .379.041.533.09.344.05-.189.05-.498 0-.687-.049-.189-.09-.035-.09.343m-140.463.786c0 .487.038.685.085.442s.047-.641 0-.884-.085-.044-.085.442m21.21.197c0 .378.04.533.09.344.049-.19.049-.499 0-.688-.05-.189-.09-.034-.09.344m119.074 1.768c0 .702.036.99.08.638.043-.351.043-.925 0-1.277-.044-.351-.08-.063-.08.639m-119.27.393c0 .378.04.533.089.344.05-.189.05-.499 0-.688-.049-.189-.089-.034-.089.344m-21.208.687c.002.541.04.738.085.44.045-.299.044-.741-.003-.983-.046-.241-.083.003-.082.543m21.015 1.572c.002.432.042.586.089.342.047-.245.046-.598-.003-.786-.05-.188-.088.012-.086.444m119.459.688c0 .594.037.837.082.54s.045-.783 0-1.08c-.045-.298-.082-.055-.082.54m27.928.245-.776.835.835-.776c.459-.427.835-.803.835-.835 0-.149-.171 0-.894.776m-168.587 1.032c.001.864.035 1.193.077.731.041-.462.04-1.169-.002-1.571-.042-.403-.076-.025-.075.84m21.01.786c.002.54.04.738.085.439s.044-.741-.003-.982c-.046-.242-.083.002-.082.543m-.192 3.143c.002.648.038.89.082.537s.043-.884-.002-1.179-.081-.006-.08.642m-20.994 5.992c0 3.512.026 4.949.059 3.193s.033-4.629 0-6.385-.059-.32-.059 3.192m20.809-.884c0 1.081.033 1.498.073.927s.04-1.455-.001-1.965c-.04-.51-.073-.042-.072 1.038m129.091 1.523-.577.638.638-.577c.351-.317.639-.604.639-.638 0-.152-.162-.018-.7.577m14.102 2.304c.134.214.376.44.538.502.162.063.082-.113-.178-.389-.565-.602-.689-.641-.36-.113m6.78 1.914c.349.044.968.044 1.375.002.408-.043.122-.078-.634-.079s-1.09.034-.741.077m-170.606 5.065c.001.864.035 1.193.077.731.041-.462.04-1.169-.002-1.572-.042-.402-.076-.024-.075.841m20.633 1.375c0 1.08.033 1.497.073.926.04-.57.04-1.455-.001-1.964-.04-.51-.073-.043-.072 1.038m-20.448 2.161c.002.54.04.738.085.439.045-.298.044-.74-.003-.982-.046-.242-.083.003-.082.543m20.631 2.849c0 .594.037.837.082.54s.045-.783 0-1.081c-.045-.297-.082-.054-.082.541m-20.437.196c0 .486.038.685.085.442s.047-.641 0-.884-.085-.044-.085.442m.192 2.259c.003.433.043.586.09.342s.045-.598-.004-.786-.088.012-.086.444m20.439.786c.002.541.04.738.085.44.045-.299.044-.741-.003-.983-.046-.241-.083.003-.082.543m-20.246 1.474c0 .378.04.533.09.344.049-.189.049-.499 0-.688-.05-.189-.09-.034-.09.344m20.432 1.179c0 .378.041.533.09.343.049-.189.049-.498 0-.687s-.09-.035-.09.344m.201 2.259c.002.432.042.586.089.341.047-.244.045-.598-.004-.785-.049-.188-.088.012-.085.444m.192 2.063c0 .378.04.533.09.344.049-.189.049-.499 0-.688-.05-.189-.09-.034-.09.344m.393 3.536c0 .378.04.533.09.344.049-.189.049-.499 0-.688-.05-.189-.09-.034-.09.344m230.093.635c-.305.357-.31.389-.031.173.29-.225.345-.224.347.003.003.212.044.206.194-.025.447-.693.052-.81-.51-.151m-.374 1.526c-.168.324-.261.59-.207.59s.235-.266.403-.59.261-.589.207-.589-.236.265-.403.589m-2.757 1.621-1.173 1.228 1.228-1.173c1.141-1.089 1.318-1.283 1.173-1.283-.031 0-.583.553-1.228 1.228m-3.15 2.947-.577.639.639-.577c.595-.538.729-.7.577-.7-.034 0-.321.287-.639.638m5.219 4.371c.587.595 1.111 1.081 1.165 1.081s-.382-.486-.969-1.081c-.586-.594-1.111-1.08-1.165-1.08s.382.486.969 1.08m-126.466.197c.001.54.039.738.084.439.046-.298.044-.741-.002-.982-.047-.242-.084.003-.082.543m129.413 2.75c.914.919 1.705 1.67 1.759 1.67s-.649-.751-1.563-1.67c-.913-.918-1.705-1.67-1.759-1.67s.649.752 1.563 1.67m-26.962 1.809c.244.047.598.045.785-.004.188-.049-.012-.087-.444-.085s-.586.042-.341.089m-39.186.204c1.167.035 3.024.035 4.125 0 1.102-.035.147-.063-2.122-.063-2.27 0-3.171.029-2.003.063m9.701.001c1.857.032 4.951.032 6.876 0s.406-.059-3.376-.059-5.357.026-3.5.059m25.942-.005c.348.043.967.044 1.375.001.407-.042.122-.078-.634-.079-.757-.001-1.09.034-.741.078m-40.959.195c.297.045.784.045 1.081 0s.054-.082-.54-.082c-.595 0-.838.037-.541.082m33.699.003c.462.042 1.169.041 1.572-.001.402-.042.024-.076-.84-.075-.865 0-1.194.035-.732.076m-36.349.192c.245.047.598.045.786-.004.188-.05-.012-.088-.444-.086s-.586.043-.342.09m-1.868.193c.189.049.498.049.687 0 .189-.05.035-.09-.344-.09-.378 0-.532.04-.343.09m70.285 2.811c.342.432.666.786.72.786s-.182-.354-.524-.786-.667-.786-.721-.786.182.354.525.786m-139.63 2.063c.002.54.04.738.085.439.045-.298.044-.74-.003-.982-.046-.242-.083.003-.082.543m21.65 1.523-2.158 2.21 2.21-2.158c1.216-1.187 2.21-2.181 2.21-2.21 0-.142-.258.105-2.262 2.158m-21.657 2.996c.003.432.043.585.09.341s.045-.598-.004-.786-.088.012-.086.445m23.224 5.766c.537.556 1.009 1.012 1.051 1.012.154 0-1.059-1.314-1.534-1.663-.27-.198-.053.095.483.651m-19.933 2.289c.366.378.71.687.764.687s-.201-.309-.568-.687c-.366-.379-.71-.688-.764-.688-.055 0 .201.309.568.688m39.587.098c-.167.324-.26.589-.206.589s.235-.265.403-.589c.167-.324.26-.59.206-.59s-.235.266-.403.59m-17.347.88c.235.483.461.846.502.805.089-.089-.705-1.685-.838-1.685-.05 0 .101.396.336.88m53.349.246c.459.041 1.211.041 1.67 0s.084-.075-.835-.075c-.918 0-1.294.034-.835.075m5.01.196c.405.042 1.068.042 1.473 0 .406-.043.074-.077-.736-.077-.811 0-1.142.034-.737.077m4.715.196c.405.043 1.068.043 1.474 0 .405-.042.073-.077-.737-.077-.811 0-1.142.035-.737.077m4.715.197c.405.042 1.068.042 1.474 0 .405-.043.073-.077-.737-.077s-1.142.034-.737.077m4.715.196c.406.043 1.069.043 1.474 0 .405-.042.073-.077-.737-.077s-1.142.035-.737.077m4.703.196c.472.05.755.192.812.409.063.237.095.205.111-.109.02-.398-.062-.439-.812-.41l-.835.034zm.63 4.18c0 1.458.031 2.055.068 1.326.038-.73.038-1.923 0-2.652-.037-.73-.068-.133-.068 1.326m-32.308-1.45c-.372.391-.5.604-.284.472.355-.215 1.197-1.183 1.03-1.183-.038 0-.373.32-.746.711m54.492 1.155c.001.648.038.89.082.537.043-.353.042-.884-.002-1.179-.045-.295-.081-.006-.08.642m-98.416 2.554c.001 1.189.033 1.65.072 1.024.039-.625.039-1.597-.001-2.161-.039-.563-.071-.052-.071 1.137m98.418 3.045c0 .703.036.99.079.639.044-.351.044-.926 0-1.277-.043-.351-.079-.064-.079.638m-86.038 1.768c0 1.351.031 1.904.07 1.228.038-.675.038-1.78 0-2.456-.039-.675-.07-.122-.07 1.228m86.217.983c0 .378.041.533.09.343.049-.189.049-.498 0-.687s-.09-.035-.09.344m-86.051 2.947c0 .378.041.533.09.343.049-.189.049-.498 0-.687s-.09-.035-.09.344m112.77.393c0 .378.041.532.09.343.05-.189.05-.498 0-.687-.049-.189-.09-.035-.09.344m.201 2.259c.002.432.042.586.089.341.047-.244.045-.598-.004-.785-.049-.188-.088.012-.085.444m.205 2.652c0 .594.037.838.082.54.045-.297.045-.783 0-1.08s-.082-.054-.082.54m-224.406.098c0 .108.126.418.281.688.154.27.281.403.281.295s-.127-.418-.281-.688c-.155-.27-.281-.403-.281-.295m.786 1.769c0 .108.126.417.281.687.154.27.28.403.28.295s-.126-.418-.28-.688c-.155-.27-.281-.402-.281-.294m127.884.561c0 .214 1.368 2.877 1.478 2.877.054 0-.222-.641-.615-1.425-.736-1.47-.863-1.684-.863-1.452m95.943 1.698c0 .918.034 1.294.075.835s.041-1.211 0-1.67-.075-.084-.075.835m-76.014-.525c.302.397.589.721.638.721.136 0-.714-1.149-.966-1.304-.122-.076.025.186.328.583m-166.08-.163c0 .108.213.595.473 1.081s.473.795.473.687-.213-.594-.473-1.08-.473-.796-.473-.688m19.842 1.965c0 .108.213.594.474 1.08.26.487.473.796.473.688s-.213-.594-.473-1.08c-.261-.487-.474-.796-.474-.688m-18.092 1.74c0 .213 1.565 3.27 1.674 3.27.088 0-1.414-3.124-1.599-3.324-.041-.045-.075-.021-.075.054m124.361 1.993c.914.918 1.706 1.67 1.76 1.67s-.649-.752-1.563-1.67c-.914-.919-1.706-1.67-1.76-1.67s.65.751 1.563 1.67m25.934.196c.587.594 1.111 1.081 1.165 1.081s-.382-.487-.969-1.081-1.111-1.08-1.165-1.08.382.486.969 1.08m-130.649-.62c0 .214 3.136 6.416 3.244 6.416.088 0-2.982-6.267-3.168-6.467-.041-.045-.076-.022-.076.051m182.038 1.523c.317.388.615.673.663.632.049-.041-.21-.358-.575-.706l-.663-.632zm21.391.339c.427.452.804.821.837.821.177 0-.468-.752-.999-1.164-.515-.4-.489-.344.162.343m-18.36 2.884c.696.702 1.31 1.277 1.364 1.277s-.471-.575-1.167-1.277c-.697-.702-1.31-1.277-1.364-1.277s.471.575 1.167 1.277m-201.179.688c.221.432.445.785.499.785.055 0-.082-.353-.302-.785-.221-.433-.445-.786-.499-.786s.082.353.302.786m1.277 2.357c.168.324.349.589.403.589s-.039-.265-.206-.589c-.168-.324-.349-.589-.403-.589s.039.265.206.589m19.156.786c.22.432.445.786.499.786s-.082-.354-.303-.786c-.22-.432-.445-.786-.499-.786s.082.354.303.786m204.165.683c.235.484.461.846.502.805.089-.089-.705-1.685-.838-1.685-.05 0 .101.396.336.88m34.791.398c.001.54.039.737.084.439.046-.299.044-.741-.002-.982-.047-.242-.084.002-.082.543m-257.129-.099c.167.324.349.59.403.59s-.039-.266-.207-.59c-.167-.324-.349-.589-.403-.589s.039.265.207.589m157.996-.117c.195.26.53.58.746.712.216.131.089-.082-.284-.473-.781-.821-.969-.918-.462-.239m76.554 1.296c0 1.027.033 1.447.073.933.041-.513.041-1.353 0-1.866-.04-.513-.073-.093-.073.933m-233.764.197c.167.324.349.589.403.589s-.039-.265-.207-.589c-.168-.325-.349-.59-.403-.59s.039.265.207.59m19.449 1.375c.168.324.349.589.403.589s-.038-.265-.206-.589-.349-.59-.403-.59.039.266.206.59m237.117 3.536c0 2.323.029 3.274.063 2.112.035-1.161.035-3.062 0-4.224-.034-1.161-.063-.211-.063 2.112m-46.645-1.107c0 .054.265.287.589.518.325.231.59.375.59.321s-.265-.287-.59-.518c-.324-.231-.589-.375-.589-.321m23.638 1.107c0 .702.036.99.08.639.043-.352.043-.926 0-1.277-.044-.352-.08-.064-.08.638m-68.182 0c0 .486.039.685.085.442.047-.243.047-.641 0-.884-.046-.243-.085-.044-.085.442m-2.986.884c0 .108.126.418.28.688.155.27.281.403.281.295 0-.109-.126-.418-.281-.688-.154-.27-.28-.403-.28-.295m-158.586.59c.106.216.337.569.513.785l.32.393-.193-.393c-.106-.216-.337-.569-.513-.785l-.32-.393zm161.787 2.75c0 1.081.033 1.498.073.927s.04-1.455-.001-1.965c-.04-.51-.073-.042-.072 1.038m67.767-.688c0 .595.037.838.082.541s.045-.784 0-1.081-.082-.054-.082.54m-209.907-.294c.106.216.337.57.513.786l.319.393-.192-.393c-.107-.216-.337-.57-.513-.786l-.32-.393zm.982 1.571c.106.217.337.57.513.786l.32.393-.193-.393c-.106-.216-.337-.569-.513-.786l-.32-.392zm-18.337.295c.39.706 3.644 5.501 3.733 5.501.11 0-3.383-5.292-3.696-5.599-.135-.133-.147-.101-.037.098m250.243 1.179c0 .486.038.685.085.442s.047-.641 0-.884-.085-.044-.085.442m-23.183.393c0 .486.038.685.085.442s.047-.641 0-.884-.085-.044-.085.442m-207.214.54c1.05 1.619 1.328 2.014 1.414 2.014.052 0-.063-.243-.256-.54-1.05-1.619-1.328-2.014-1.413-2.014-.053 0 .063.243.255.54m199.374 1.326c0 1.081.033 1.498.073.927s.04-1.455-.001-1.965c-.04-.509-.073-.042-.072 1.038m-95.357-.787c0 .133 1.596.927 1.685.838.041-.041-.321-.267-.805-.502s-.88-.386-.88-.336m103.001 1.671c0 .487.038.686.085.442.047-.243.047-.641 0-.884s-.085-.044-.085.442m-.201 2.456c.002.432.043.586.09.342.047-.245.045-.598-.004-.786s-.088.012-.086.444m-222.053.098c.231.325.464.59.518.59s-.091-.265-.322-.59c-.231-.324-.464-.589-.518-.589s.091.265.322.589m18.664.393c.231.324.464.59.518.59s-.091-.266-.322-.59-.464-.589-.518-.589.091.265.322.589m128.733.491c.002.433.043.586.089.342.047-.244.046-.598-.003-.786-.05-.188-.088.012-.086.444m-146.022 1.081c.231.324.464.589.518.589s-.091-.265-.321-.589c-.231-.324-.464-.589-.518-.589s.09.265.321.589m220.482.295c.002.432.042.586.089.341.047-.244.045-.598-.004-.786-.049-.187-.087.013-.085.445m-201.818.098c.231.324.464.589.518.589s-.091-.265-.321-.589c-.231-.324-.464-.589-.518-.589s.09.265.321.589m190.427.786c0 .486.038.685.085.442s.047-.641 0-.884-.085-.044-.085.442m11.19 1.375c0 .378.041.533.09.344.05-.189.05-.499 0-.688-.049-.189-.09-.034-.09.344m-217.912.675c.345.479.886 1.164 1.203 1.522.317.359.074-.033-.539-.871-.614-.837-1.155-1.522-1.203-1.522-.047 0 .195.392.539.871m18.464.191c.369.514.756.987.86 1.051s-.114-.304-.483-.818-.756-.987-.86-1.051c-.103-.064.114.304.483.818m125.189.608c.002.432.043.585.089.341.047-.244.046-.598-.003-.786-.05-.188-.088.012-.086.445m74.063.491c0 .378.04.533.09.344.049-.19.049-.499 0-.688-.05-.189-.09-.034-.09.344m-.197 1.964c0 .379.041.533.09.344.05-.189.05-.498 0-.687-.049-.19-.09-.035-.09.343m-196.312.59c.342.432.666.786.72.786s-.182-.354-.524-.786-.666-.786-.72-.786c-.055 0 .181.354.524.786m104.371 1.277c.003.432.043.586.09.341.047-.244.045-.598-.004-.786-.049-.187-.088.013-.086.445m91.745.098c0 .378.04.533.09.344.049-.189.049-.499 0-.688-.05-.189-.09-.034-.09.344m-194.154 1.176c.341.431.723.847.848.924.126.078-.112-.275-.529-.783-.416-.508-.798-.924-.848-.924s.188.352.529.783m2.556 3.146c.453.54.867.982.921.982s-.272-.442-.724-.982c-.453-.54-.867-.982-.921-.982s.272.442.724.982m-17.681.651c0 .034.287.321.638.639l.639.577-.577-.639c-.538-.595-.7-.729-.7-.577m117.538.724c0 .487.039.686.086.442.046-.243.046-.641 0-.884-.047-.243-.086-.044-.086.442m-97.892.983c.562.648 1.065 1.179 1.119 1.179s-.361-.531-.923-1.179c-.561-.649-1.065-1.179-1.119-1.179s.361.53.923 1.179m-18.468-.332c0 .034.288.321.639.639l.638.577-.577-.639c-.537-.595-.7-.728-.7-.577m2.557 2.889c.781.866 1.519 1.635 1.642 1.708.122.074-.474-.634-1.325-1.574s-1.589-1.709-1.642-1.709c-.052 0 .544.709 1.325 1.575m17.09-1.121c0 .034.287.322.638.639l.639.577-.577-.639c-.538-.595-.7-.728-.7-.577m2.753 3.086c.89.974 1.717 1.832 1.839 1.905s-.563-.724-1.522-1.772-1.786-1.905-1.839-1.905c-.052 0 .633.797 1.522 1.772m-16.899 1.273c.697.703 1.31 1.277 1.364 1.277s-.471-.574-1.167-1.277c-.696-.702-1.31-1.277-1.364-1.277s.471.575 1.167 1.277m20.138 2.26c.751.756 1.409 1.375 1.463 1.375s-.516-.619-1.267-1.375c-.75-.757-1.409-1.376-1.463-1.376s.516.619 1.267 1.376m-15.03 3.015c2.108 2.138 4.892 4.87 6.189 6.072 2.796 2.59 2.441 2.231-4.617-4.674-4.412-4.316-4.7-4.573-1.572-1.398m19.647 1.798c1.78 1.783 3.281 3.242 3.335 3.242s-1.358-1.459-3.139-3.242c-1.78-1.783-3.281-3.242-3.335-3.242s1.358 1.459 3.139 3.242m3.536 3.296c0 .03.685.715 1.523 1.522l1.522 1.469-1.468-1.523c-1.364-1.414-1.577-1.612-1.577-1.468m3.438 3.265c.479.557 3.438 3.241 3.438 3.118 0-.049-.862-.873-1.915-1.832-1.054-.959-1.739-1.537-1.523-1.286m-17.199.659c.482.513.902.933.934.933.147 0-.009-.176-.876-.99l-.933-.876zm97.541.393-.577.639.638-.577c.351-.318.639-.605.639-.639 0-.152-.163-.018-.7.577m-95.764 1.228c.366.378.711.688.765.688s-.202-.31-.569-.688c-.366-.378-.71-.688-.764-.688s.201.31.568.688m1.572 1.375c.366.378.71.688.764.688s-.201-.31-.568-.688-.711-.687-.765-.687.202.309.569.687m18.074.197c.367.378.711.687.765.687s-.202-.309-.568-.687c-.367-.379-.711-.688-.765-.688s.202.309.568.688m.983.759c0 .054.795.773 1.768 1.598.972.825 1.768 1.456 1.768 1.402s-.796-.773-1.768-1.598c-.973-.825-1.768-1.456-1.768-1.402m68.172 3.366c-.477.487-.823.884-.769.884s.489-.397.966-.884c.477-.486.823-.884.769-.884s-.488.398-.966.884m-78.781 2.531c0 .055.53.507 1.178 1.006.649.499 1.179.863 1.179.809s-.53-.507-1.179-1.006c-.648-.499-1.178-.863-1.178-.809m19.056.983c0 .054.531.506 1.179 1.005.649.499 1.179.863 1.179.809s-.53-.507-1.179-1.005c-.648-.499-1.179-.863-1.179-.809m3.34 2.55c0 .054.266.287.59.518s.589.375.589.321-.265-.287-.589-.518c-.324-.23-.59-.375-.59-.321m-17.485.196c0 .055.265.288.589.518.325.231.59.376.59.322s-.265-.287-.59-.518c-.324-.231-.589-.376-.589-.322m19.646 1.376c0 .054.266.287.59.518.324.23.589.375.589.321s-.265-.287-.589-.518-.59-.375-.59-.321m-17.485.196c0 .054.265.287.59.518.324.231.589.376.589.322s-.265-.288-.589-.518c-.325-.231-.59-.376-.59-.322m18.861.786c0 .054.265.287.589.518s.59.375.59.321-.266-.287-.59-.517c-.324-.231-.589-.376-.589-.322m-17.486.209c0 .054.531.458 1.179.898.649.441 1.179.757 1.179.703s-.53-.459-1.179-.899c-.648-.44-1.179-.756-1.179-.702m20.04 1.567c0 .054.398.372.884.707.486.334.884.564.884.51s-.398-.372-.884-.707c-.486-.334-.884-.564-.884-.51m-15.868 1.34c.584.496 1.722 1.207 1.722 1.075 0-.044-.508-.407-1.129-.806-.622-.399-.888-.52-.593-.269m19.011.791c0 .086.396.364 2.014 1.414.297.192.54.308.54.255 0-.085-.395-.363-2.014-1.413-.297-.193-.54-.308-.54-.256m-15.029 1.821c.216.176.569.407.786.513l.392.193-.392-.32c-.217-.176-.57-.407-.786-.513l-.393-.193zm18.664.589c.216.176.569.407.786.513l.393.193-.393-.32c-.217-.176-.57-.407-.786-.513l-.393-.193zm-15.521 1.375c.216.176.57.407.786.513l.393.193-.393-.32c-.216-.176-.57-.406-.786-.513l-.393-.192zm23.674 3.523c0 .054.265.236.589.403.325.168.59.261.59.207s-.265-.236-.59-.403c-.324-.168-.589-.261-.589-.207m-16.699.59c0 .054.265.235.589.403.324.167.589.26.589.206s-.265-.235-.589-.403-.589-.26-.589-.206m141.06.157c0 .081.172.147.382.147s.422-.066.472-.147-.121-.147-.381-.147-.473.066-.473.147m-122.593.235c0 .054.265.236.59.403.324.168.589.261.589.207s-.265-.235-.589-.403c-.325-.168-.59-.261-.59-.207m-16.699.59c0 .054.265.235.589.403s.59.26.59.206-.266-.235-.59-.403c-.324-.167-.589-.26-.589-.206m18.467.393c0 .054.266.235.59.403.324.167.589.26.589.206s-.265-.235-.589-.403c-.324-.167-.59-.26-.59-.206m-16.699.589c0 .054.265.236.589.403.324.168.59.261.59.207s-.266-.236-.59-.403c-.324-.168-.589-.261-.589-.207m19.646.987c0 .054.531.366 1.179.693s1.179.551 1.179.497-.531-.366-1.179-.693c-.648-.328-1.179-.551-1.179-.497m-16.306.786c0 .054.53.366 1.179.693.648.327 1.178.551 1.178.497s-.53-.366-1.178-.693c-.649-.328-1.179-.551-1.179-.497m4.715 2.461c1.243.637 2.348 1.159 2.456 1.159s-.821-.522-2.063-1.159c-1.243-.637-2.348-1.158-2.456-1.158s.82.521 2.063 1.158m17.682-.098c.918.475 1.758.864 1.866.864s-.555-.389-1.473-.864c-.919-.475-1.759-.864-1.867-.864s.555.389 1.474.864m3.929 1.866c.378.207.776.377.884.377s-.113-.17-.491-.377-.776-.376-.884-.376.113.169.491.376m-17.289.295c.27.155.58.281.688.281s-.025-.126-.295-.281c-.27-.154-.58-.281-.688-.281s.025.127.295.281m2.554 1.179c.27.154.58.281.688.281s-.025-.127-.295-.281c-.27-.155-.579-.281-.688-.281-.108 0 .025.126.295.281m82.564 16.933c.189.049.499.049.688 0s.034-.09-.344-.09-.533.041-.344.09m2.161.196c.189.05.499.05.688 0 .189-.049.034-.089-.344-.089s-.533.04-.344.089m2.259.2c.244.047.641.047.885 0 .243-.047.044-.085-.443-.085-.486 0-.685.038-.442.085m30.993.045c-1.201.085-1.43.143-.969.246.629.142 2.738-.071 2.966-.298.072-.073.006-.115-.147-.096-.153.02-.986.087-1.85.148m-28.144.154c.297.045.784.045 1.081 0s.054-.082-.541-.082c-.594 0-.837.037-.54.082m-26.13.191c.19.049.499.049.688 0 .189-.05.035-.09-.344-.09-.378 0-.533.04-.344.09m29.47.008c.405.042 1.068.042 1.474 0 .405-.043.073-.078-.737-.078-.811 0-1.142.035-.737.078m19.941-.001c.351.043.926.043 1.277 0 .351-.044.064-.08-.638-.08-.703 0-.99.036-.639.08m-12.365.201c1.763.032 4.592.032 6.287 0 1.695-.033.253-.06-3.205-.06-3.458.001-4.844.027-3.082.06m13.053.185c.189.049.498.049.687 0 .189-.05.035-.09-.343-.09-.379 0-.533.04-.344.09m-44.693.2c.244.047.598.045.785-.004.188-.049-.012-.088-.444-.086-.432.003-.586.043-.341.09m42.829 0c.244.047.598.045.785-.004.188-.049-.012-.088-.444-.086-.432.003-.586.043-.341.09m-40.472.196c.244.047.598.045.786-.004s-.012-.087-.444-.085c-.433.002-.586.042-.342.089m38.21-.003c.189.049.499.049.688 0 .189-.05.034-.09-.344-.09s-.533.04-.344.09m-36.051.199c.243.047.641.047.884 0 .243-.046.044-.085-.442-.085s-.685.039-.442.085m33.595 0c.243.047.641.047.884 0 .243-.046.044-.085-.442-.085s-.685.039-.442.085m-30.547.199c.298.045.74.044.982-.003.242-.046-.003-.083-.543-.082-.54.002-.738.04-.439.085m27.502 0c.297.045.783.045 1.081 0 .297-.045.054-.082-.541-.082-.594 0-.837.037-.54.082m-24.062.2c.462.041 1.17.041 1.572-.002.402-.042.024-.076-.84-.075s-1.194.035-.732.077m20.133-.001c.405.042 1.068.042 1.473 0 .405-.043.074-.077-.737-.077-.81 0-1.141.034-.736.077m-12.561.2c1.816.033 4.734.033 6.483 0 1.749-.032.262-.059-3.303-.059-3.566 0-4.997.027-3.18.059" fill="#f77b55"/><path d="m318.422.142c.353.044.884.043 1.179-.002.295-.044.006-.08-.642-.079-.649.001-.89.038-.537.081m7.757-.001c.297.045.783.045 1.08 0s.054-.082-.54-.082-.837.037-.54.082m-10.902.194c.245.047.598.046.786-.004.188-.049-.012-.087-.444-.085s-.586.042-.342.089m-86.246 14.739c.353.043.884.042 1.179-.002.295-.045.006-.081-.642-.08-.649.001-.89.038-.537.082m5.792-.002c.297.045.784.045 1.081 0s.054-.082-.541-.082c-.594 0-.837.037-.54.082m16.65 4.083c-.27.155-.402.281-.294.281s.417-.126.687-.281c.271-.154.403-.281.295-.281s-.417.127-.688.281m-23.061 12.867c-.934.707-1.131.909-.612.627.45-.244 1.621-1.2 1.473-1.202-.054-.001-.441.258-.861.575m-8.871 7.516-.975 1.032 1.031-.975c.568-.536 1.032-1.001 1.032-1.032 0-.146-.182.017-1.088.975m-3.144 3.144-.975 1.031 1.032-.975c.567-.536 1.031-1 1.031-1.031 0-.147-.182.016-1.088.975m155.116 21.034c0 .034.287.321.638.638l.639.577-.577-.638c-.538-.595-.7-.729-.7-.577m-304.529.871-.678.737.737-.677c.405-.372.737-.704.737-.737 0-.15-.166-.008-.796.677m16.995 10.904-.777.835.835-.776c.777-.723.926-.894.777-.894-.032 0-.408.376-.835.835m-3.532 3.537-1.37 1.424 1.424-1.37c1.323-1.273 1.514-1.479 1.37-1.479-.03 0-.671.641-1.424 1.425m156.542 20.776c0 .486.038.685.085.442.047-.244.047-.641 0-.885-.047-.243-.085-.044-.085.443m24.494 7.613-.677.736.736-.677c.686-.63.827-.796.677-.796-.033 0-.364.331-.736.737m-2.455 2.455-.777.835.835-.776c.46-.427.835-.803.835-.835 0-.149-.171 0-.893.776m-1.575 1.376-.577.638.639-.577c.595-.538.729-.7.577-.7-.034 0-.321.287-.639.639m5.994 3.241-.677.737.737-.677c.686-.63.827-.797.677-.797-.033 0-.364.332-.737.737m-53.956 6.238c.001.648.038.89.082.537.043-.353.042-.884-.002-1.179-.045-.295-.081-.006-.08.642m41.872 5.648-.577.639.638-.577c.596-.538.729-.7.577-.7-.033 0-.321.287-.638.638m-69.196 4.077c0 .378.041.533.09.344.05-.189.05-.499 0-.688-.049-.189-.09-.034-.09.344m-.188 2.554c0 .486.038.685.085.442s.047-.641 0-.884-.085-.044-.085.442m60.948.115-.589.507.638-.423c.352-.232.639-.461.639-.507 0-.147-.083-.096-.688.423m-61.145 2.439c0 .486.039.685.086.442.046-.243.046-.641 0-.884-.047-.243-.086-.044-.086.442m-.187 3.733c0 .702.036.989.08.638.043-.351.043-.926 0-1.277-.044-.351-.08-.064-.08.639m-.226 5.216c-.018.437-.099.88-.18.984-.081.103-.031.089.111-.031.163-.137.23-.505.181-.984l-.079-.765zm41.568.985c-.513.267-.933.53-.933.584s.442-.126.982-.4c.541-.274.983-.541.983-.593 0-.13.017-.137-1.032.409m56.434.54c0 .034.288.321.639.638l.638.578-.577-.639c-.538-.595-.7-.729-.7-.577m-106.385 4.769-.589.506.638-.422c.352-.232.639-.461.639-.507 0-.148-.083-.096-.688.423m100.505 1.555c0 .108.127.417.281.687.155.27.281.403.281.295s-.126-.418-.281-.688c-.154-.27-.281-.402-.281-.294m-112.194 7.858c-.805.811-1.42 1.474-1.366 1.474s.757-.663 1.562-1.474c.805-.81 1.42-1.473 1.366-1.473s-.757.663-1.562 1.473m121.819 7.481c.372.44.716.769.764.73.049-.039-.255-.399-.675-.801l-.764-.73zm2.149 2.342c.696.703 1.31 1.277 1.364 1.277s-.471-.574-1.167-1.277c-.696-.702-1.31-1.277-1.364-1.277s.471.575 1.167 1.277m-96.316 12.811c.243.047.641.047.884 0s.044-.085-.442-.085-.685.038-.442.085m3.438 4.871c.003.432.043.586.09.342.047-.245.045-.598-.004-.786s-.088.012-.086.444m148.527 3.377c.189.05.498.05.687 0 .189-.049.035-.09-.344-.09-.378 0-.533.041-.343.09m2.161.197c.189.049.498.049.687 0 .189-.05.035-.09-.344-.09-.378 0-.532.04-.343.09m27.013.003c.244.047.641.047.884 0 .244-.047.045-.085-.442-.085-.486 0-.685.038-.442.085m-24.558.196c.244.047.641.047.885 0 .243-.047.044-.085-.443-.085-.486 0-.685.038-.442.085m21.513.002c.297.045.784.045 1.081 0s.054-.082-.541-.082c-.594 0-.837.037-.54.082m-18.177.198c.349.043.968.044 1.375.001.408-.042.122-.078-.634-.078-.756-.001-1.09.033-.741.077m14.051.001c.406.043 1.069.043 1.474 0 .405-.042.074-.077-.737-.077-.81 0-1.142.035-.737.077m-7.17.197c.459.042 1.21.042 1.67 0 .459-.041.083-.075-.835-.075-.919 0-1.295.034-.835.075m-169.217 5.603-.577.639.638-.577c.352-.318.639-.605.639-.639 0-.152-.162-.018-.7.577m-45.424 7.22c0 .378.041.533.09.344.05-.189.05-.499 0-.688-.049-.189-.09-.034-.09.344m16.802 10.158c.243.047.641.047.884 0 .243-.046.044-.085-.442-.085-.487 0-.685.039-.442.085m-5.17 3.251-.577.638.639-.577c.595-.538.728-.7.577-.7-.034 0-.322.288-.639.639m18.854 1.473c.629.784 1.184 1.425 1.233 1.425.131 0-1.71-2.315-2.07-2.604-.168-.135.208.396.837 1.179m-37.407.639c-.231.324-.376.589-.322.589s.287-.265.518-.589.376-.59.322-.59-.287.266-.518.59m-113.497 3.536c0 .594.036.838.081.54.045-.297.045-.783 0-1.08s-.081-.054-.081.54m109.96 1.474c-.334.486-.564.884-.51.884s.372-.398.707-.884c.334-.487.564-.885.51-.885s-.372.398-.707.885m39.735-.16c.189.05.499.05.688 0 .189-.049.034-.09-.344-.09s-.533.041-.344.09m-149.693 2.321c.001.648.037.89.081.536.044-.353.043-.883-.002-1.178-.045-.296-.081-.007-.079.642m230.386 25.196c-1.335 1.378-1.39 1.454-.279.387.762-.732 1.461-1.263 1.554-1.178.092.084.104.042.026-.093-.077-.135-.057-.246.046-.246s.238-.132.3-.294c.172-.447.139-.419-1.647 1.424m-.978 8.006c.367.378.711.688.765.688s-.202-.31-.568-.688c-.367-.378-.711-.688-.765-.688s.202.31.568.688m-8.055 1.703c0 .126.061.168.135.094.074-.073.449.155.835.508l.7.642-.677-.737c-.696-.757-.993-.909-.993-.507m11.592 1.789c0 .03.685.715 1.522 1.523l1.523 1.468-1.469-1.522c-1.364-1.414-1.576-1.612-1.576-1.469m-27.063 2.439c.189.05.498.05.687 0 .189-.049.035-.09-.343-.09-.379 0-.533.041-.344.09m-40.662.206c.516.04 1.312.04 1.768-.001s.033-.075-.939-.074c-.973.001-1.346.034-.829.075m17.086.002c1.594.033 4.202.033 5.796 0s.29-.06-2.898-.06-4.492.027-2.898.06m19.057-.004c.405.043 1.068.043 1.474 0 .405-.042.073-.077-.737-.077-.811 0-1.142.035-.737.077m-39.978.193c.244.047.598.045.786-.004.188-.05-.012-.088-.444-.086-.433.002-.586.043-.342.09m-2.458.193c.189.049.498.049.688 0 .189-.05.034-.09-.344-.09s-.533.04-.344.09m-48.779 5.905-1.074 1.13 1.13-1.074c.621-.59 1.13-1.099 1.13-1.129 0-.146-.188.024-1.186 1.073m-21.952 1.425c0 .378.041.533.09.344.05-.19.05-.499 0-.688-.049-.189-.09-.034-.09.344m157.322 4.518c.231.325.464.59.518.59s-.09-.265-.321-.59c-.231-.324-.464-.589-.518-.589s.09.265.321.589m-132.597 5.466c.348.56.669 1.018.714 1.018.141 0-.802-1.584-1.081-1.815-.146-.122.018.237.367.797m-21.332.035c.422.433.812.786.866.786s-.248-.353-.67-.786c-.422-.432-.811-.785-.865-.785s.247.353.669.785m79.424 1.322c.353.043.883.042 1.179-.002.295-.045.006-.081-.642-.08-.649.001-.89.038-.537.082m4.715.196c.353.044.884.043 1.179-.002s.006-.081-.642-.08c-.649.002-.89.038-.537.082m4.715.196c.353.044.884.043 1.179-.002.295-.044.006-.08-.642-.079s-.89.038-.537.081m4.715.197c.353.044.884.043 1.179-.002s.006-.081-.642-.08c-.648.002-.89.038-.537.082m4.715.196c.354.044.884.043 1.179-.002.295-.044.007-.08-.642-.079-.648.001-.89.038-.537.081m1.873 2.412c0 .594.037.837.082.54s.045-.783 0-1.08-.082-.054-.082.54m-76.634 2.358c0 .378.04.533.09.343.049-.189.049-.498 0-.687-.05-.189-.09-.035-.09.344m98.46 2.161c0 1.458.031 2.055.068 1.326.038-.73.038-1.923 0-2.652-.037-.73-.068-.133-.068 1.326m40.001-1.572c.221.432.445.786.499.786s-.082-.354-.302-.786c-.221-.432-.445-.786-.499-.786s.082.354.302.786m-61.832 1.179c0 .486.038.685.085.442s.047-.641 0-.884-.085-.044-.085.442m-76.625 2.063c.002.432.042.586.089.341.047-.244.046-.598-.004-.786-.049-.188-.087.012-.085.445m12.779.884c0 .594.037.837.082.54s.045-.783 0-1.081c-.045-.297-.082-.054-.082.541m127.46-.688c0 .108.127.418.281.688.155.27.281.402.281.294s-.126-.417-.281-.687c-.154-.27-.281-.403-.281-.295m-99.772 1.474c0 .378.041.532.09.343.05-.189.05-.498 0-.687-.049-.189-.09-.035-.09.344m0 1.375c0 .378.041.533.09.344.05-.189.05-.499 0-.688-.049-.189-.09-.034-.09.344m-27.688 1.768c0 .594.037.837.082.54s.045-.783 0-1.08-.082-.054-.082.54m113.15 5.305c0 .378.041.532.09.343s.049-.498 0-.687-.09-.035-.09.344m-46.004.687c0 .108.126.418.281.688.154.27.281.403.281.294 0-.108-.127-.417-.281-.687-.155-.27-.281-.403-.281-.295m-32.037 2.554c.586.594 1.111 1.081 1.165 1.081s-.382-.487-.969-1.081-1.111-1.08-1.165-1.08.382.486.969 1.08m78.242-.196c.002.432.042.586.089.341.047-.244.045-.598-.004-.786-.049-.187-.088.012-.085.445m-93.567 3.831c.231.324.464.589.518.589s-.09-.265-.321-.589-.464-.59-.518-.59.091.266.321.59m93.783 1.08c0 .973.033 1.395.074.939s.042-1.251.001-1.768c-.04-.516-.074-.143-.075.829m-116.188 3.291c.814.867.991 1.023.991.876 0-.032-.42-.452-.933-.933l-.934-.876zm98.83 1.621c.587.594 1.111 1.08 1.165 1.08s-.382-.486-.969-1.08-1.111-1.081-1.165-1.081.382.487.969 1.081m-19.45 1.338c0 .034.287.322.638.639l.639.577-.577-.639c-.538-.595-.7-.728-.7-.577m36.809 5.243c0 1.027.033 1.447.074.934.04-.514.04-1.354 0-1.867-.041-.513-.074-.093-.074.933m22.179.295c.003.432.043.586.09.342.047-.245.045-.598-.004-.786s-.088.012-.086.444m-145.44 1.523c.814.867.99 1.023.99.876 0-.032-.42-.452-.933-.934l-.933-.875zm145.652 1.817c.001.756.036 1.042.079.634.042-.407.042-1.026-.002-1.375-.043-.349-.078-.015-.077.741m-90.951 7.269c0 1.405.032 1.954.07 1.22.037-.734.037-1.883-.001-2.554s-.069-.071-.069 1.334m68.146-1.375c.002.432.043.586.09.341.047-.244.045-.598-.004-.785-.05-.188-.088.012-.086.444m22.797 1.572c.001.54.039.738.084.439.046-.299.044-.741-.002-.982-.047-.242-.084.002-.082.543m-31.235 3.045c0 .594.036.837.081.54s.045-.783 0-1.08c-.045-.298-.081-.054-.081.54m31.027-.197c0 .379.041.533.09.344.05-.189.05-.498 0-.687-.049-.19-.09-.035-.09.343m-125.569 1.057c.201.182 1.752.906 1.752.818 0-.112-1.483-.892-1.695-.892-.076 0-.102.033-.057.074m94.539 1.989c.001.54.039.738.085.439.045-.299.044-.741-.003-.982-.047-.242-.084.002-.082.543m-66.99 5.501c.002.648.038.889.082.536s.043-.883-.002-1.179c-.045-.295-.081-.006-.08.643m63.204 3.198c-.005.42.594.513.945.146.311-.324.304-.329-.119-.076-.384.23-.475.226-.636-.027-.13-.205-.188-.218-.19-.043m-81.093 4.464c.002.432.042.585.089.341s.046-.598-.004-.786c-.049-.188-.087.012-.085.445m.004 4.224c0 .486.038.685.085.442.047-.244.047-.641 0-.884-.047-.244-.085-.045-.085.442m-101.429 17.19c.367.378.711.688.765.688s-.202-.31-.568-.688c-.367-.378-.711-.687-.765-.687s.202.309.568.687m102.74 4.568-.677.737.737-.677c.685-.631.827-.797.677-.797-.033 0-.365.332-.737.737m-8.148 8.153-1.37 1.425 1.424-1.37c1.323-1.273 1.515-1.479 1.37-1.479-.029 0-.67.641-1.424 1.424" fill="#f77b55"/><path d="m231.974 15.073c.352.044.926.044 1.277 0 .352-.043.064-.079-.638-.079s-.99.036-.639.079m5.011 86.4c.002.433.042.586.089.342s.045-.598-.004-.786-.087.012-.085.444m-.004 2.063c0 .379.04.533.09.344.049-.189.049-.498 0-.687-.05-.19-.09-.035-.09.343m-27.501 15.03c.002.432.042.586.089.341.047-.244.045-.598-.004-.786-.049-.187-.087.013-.085.445m-28.098 24.067c0 .378.04.533.089.343.05-.189.05-.498 0-.687-.049-.189-.089-.035-.089.344m171.614 49.254c.243.047.641.047.884 0s.044-.085-.442-.085-.685.038-.442.085m6.486 0c.244.047.598.046.786-.003.187-.05-.013-.088-.445-.086s-.586.042-.341.089m-218.572 15.775c0 .378.04.533.09.344.049-.189.049-.499 0-.688-.05-.189-.09-.034-.09.344m72.4 59.083c.46.041 1.211.041 1.67 0 .46-.041.084-.075-.835-.075-.918 0-1.294.034-.835.075m5.898-.001c.353.043.883.042 1.179-.002.295-.045.006-.081-.642-.08-.649.001-.89.038-.537.082m-83.395 30.211c.001.54.039.738.084.439.046-.298.044-.741-.002-.982-.047-.242-.084.003-.082.543m126.351 21.906c0 1.999.029 2.816.065 1.817.036-1 .036-2.635 0-3.635-.036-.999-.065-.182-.065 1.818m-93.734 38.015c.001.649.038.89.082.537.043-.353.043-.884-.002-1.179s-.081-.006-.08.642m-82.968 20.199c0 .034.287.321.638.639l.639.577-.577-.639c-.538-.595-.7-.729-.7-.577m171.991 27.1-.577.638.639-.577c.351-.317.638-.604.638-.638 0-.152-.162-.018-.7.577m-18.308 31.913c.189.05.499.05.688 0 .189-.049.034-.09-.344-.09s-.533.041-.344.09" fill="#f77b55"/><path d="m20.682 225.54c0 .487.039.685.085.442.047-.243.047-.641 0-.884-.046-.243-.085-.044-.085.442" fill="#f77b55"/></g></svg>