<svg
className="Face"
          version="1"
          xmlns="http://www.w3.org/2000/svg"
          viewBox="0 0 800 800"
        >
          <path d="M392 29.6c-25.2 3.9-48.6 12.6-71.5 26.5-5.8 3.5-10.6 5.5-17.5 7.2-16 4-27.7 11.4-36.9 23.4-2.7 3.5-7.5 8.1-10.8 10.2-6 4.1-36.3 28.8-36.3 29.7 0 .3 1 .2 2.1-.1 1.9-.6 1.8-.2-1 3.9-4.4 6.3-8.4 14.7-11.1 23.1-1.2 3.8-4.1 9.7-6.5 13-5.3 7.5-7.7 12.2-10.4 20.4-2.3 6.9-5 20.4-5.2 26.1-.1 1.9-1.3 7.3-2.6 12-2.7 9.6-4.5 30.9-2.5 29.6.9-.5 1.2 1.4 1.2 6.8v7.6h-6.7c-16.9.1-22.8 11.8-15.4 30.4 2.9 7.2 3.1 8.6 3.1 19.9 0 25.1 3.2 51.3 8 65.3 1.7 4.7 1.8 6.3.9 8.9-1.2 3.2-.3 10.8 2.1 19.7 1.5 5.2 9.9 17.6 15.3 22.5 4.5 4 4.7 4.4 4.7 9.5 0 4.2-.4 5.6-2 6.6-2.8 1.7-2.8 8.4 0 11.2 2.1 2.1 2.7 5 1 5-.5 0-1-.6-1-1.3 0-.8-.3-.8-.9.2-.5.8-1.8 1.2-3.1.8-1.8-.5-2.1-.2-1.7 1.4.3 1.1-.1 2.3-1.1 2.9-1.1.6-1.3.9-.4 1 .8 0 1.1.7.7 1.9-.3 1.2 0 2.1 1 2.5.9.3 1.3 1 1 1.6-.3.5.3 1 1.4 1 1.2 0 2.1.4 2.1 1 0 .5.7.7 1.6.3.9-.3 2 0 2.4.8.7 1.1 1 1 1.6-.4.3-.9 1.1-1.7 1.8-1.7 2.2 0 3.2-4.3 2.1-8.8-.5-2.4-1.3-4-1.8-3.6-.4.4-.7.1-.7-.7 0-1.2-.2-1.2-.9 0-.5.7-1.1.9-1.4.4-.3-.5.6-2.6 2-4.6 2.4-3.3 2.5-4 1.5-7.9-.6-2.4-1.3-6.5-1.5-9.1-.5-4.7-.4-4.8 2.2-4.5l2.6.3.7 12c1.1 17.8 3.6 40.6 5.9 52.5 2.5 12.8 6.3 22 22.5 54 6.8 13.5 12.4 25 12.4 25.5-.1 1.2-6.5 8.5-7.5 8.5-.5 0-4.4 3.5-8.9 7.7-11.6 11.1-25.6 23.1-53.6 45.8-13.5 10.9-31.2 25.5-39.4 32.4-11 9.3-15.5 12.5-17.2 12.3-1.4-.2-6.7 2.1-13.1 5.7-13 7.3-28.1 14.2-42.3 19.2-10.2 3.7-10.4 3.8-5.9 3.8 8.4.1 19.8-3.6 37.9-12.5l17.5-8.5-12.5 12.7c-11.3 11.5-11.8 12.1-5 6.5 4.1-3.4 16.8-13.9 28.2-23.3 27.2-22.4 47.6-38.3 67.2-52.1 27.7-19.6 35.8-26 41.4-32.7 3-3.6 7.9-9.4 11-12.9 6.2-7.1 6-7.1 10.2 1l1.9 3.7-4.2 2.7c-2.3 1.5-14.3 12.9-26.7 25.4-21.3 21.5-132.6 128.5-134.3 129.3-.5.1-2.1-2.9-3.6-6.9-3.4-8.5-7.1-15.2-11.8-21.1-3.7-4.6-4.8-5-5.7-2.6-1.1 2.8 1.3 8.9 6.6 17 2.8 4.4 6.2 10.3 7.5 13.3l2.4 5.3-5.8 5.5-5.8 5.5 5.7-4.6c3.1-2.5 5.8-4.6 6.1-4.6.5 0 4.3 13.8 5.1 18.5.2 1.6.3-2.8.1-10l-.3-13 23.6-19.5c12.9-10.7 30.2-25.2 38.4-32.3 8.2-7 15.1-12.7 15.4-12.7.2 0-3.5 5.3-8.4 11.7-12.7 16.9-28.1 39-43.5 62.5-18.7 28.5-18.9 28.9-2.7 7.8 39.8-51.7 67.1-82.1 79.8-88.8 3.4-1.9 6.7-3.2 7.2-3 .6.2-5.1 8.9-12.6 19.3-7.5 10.5-18.9 26.9-25.3 36.5-11.5 17.4-24.8 40.6-23.8 41.6.2.3 7.4-7.3 15.8-16.8 18.1-20.4 24.2-26.5 32.3-32.5 12.2-9 12.7-8.6 4.4 3.4-8.2 11.8-23.9 37.6-28.3 46.3l-2.7 5.5 4.7-4.5c2.6-2.5 9.4-10.7 15.2-18.2 5.7-7.6 12.3-15.4 14.6-17.4 4.2-3.6 9.6-6.9 10.2-6.2 1 .9-8.2 17.9-15.9 29.3-9.6 14.4-10.5 15 10.6-7.3 5.4-5.7 9.5-9.5 9.1-8.5-2 5.6-9.7 21.1-14.6 29.3l-5.7 9.5 13.6-14c7.5-7.7 13.3-13.1 12.9-12-.4 1.1-1.6 4.5-2.6 7.5-1.1 3-3 9-4.4 13.3-2.1 7-2.2 7.7-.6 7.7.9 0 4.6-3.7 8.3-8.2 3.6-4.6 9.9-11.9 13.9-16.2 8.7-9.4 8.6-9.4 8.8 7.7.1 7.6.6 11.7 1.6 13.7 2 3.8 2.9 3.8 4.6-.3 1.1-2.5 1.3-9.4 1-33.2-.4-41.3.8-48.2 12.4-68.6 3.2-5.4 6-9.9 6.3-9.9 1.8 0-3.5 78.6-6.2 92-.8 3.6-1.3 6.6-1.1 6.8.4.5 7.3-18.8 9.4-26.5 3.9-14.3 4.1-19.4 3.2-74.3-.6-28.9-1.3-53.9-1.6-55.5-.4-1.7 3.9 4.6 9.5 14 14.9 24.8 21.5 34.1 30.1 42.7 6.7 6.7 9.3 8.5 20.1 13.7 7 3.4 16.6 7.2 22.3 8.7 9.1 2.5 12 2.8 32.5 3.2 19.5.3 32-.2 50-2.4 5.5-.6 19.9-5.3 26-8.4 9.3-4.6 14.2-8.5 25.7-20.2 22-22.3 44.8-53.2 58.3-78.8 7.8-14.9 7.7-15 3.4 6.5-3.6 18.2-13.3 47.9-23.9 73-2.6 6.1-6.4 15.6-8.5 21.2-4.1 10.9-14.3 28.6-23.7 41-11.3 15.1-36.2 39.3-54.6 53.2l-6.8 5.1h27.8l7.9-5.6c30.8-22.1 52.4-48.2 59.4-72.1 1-3.1 12.5-18.2 44.1-57.5 23.6-29.3 44.6-54.6 46.6-56.1l3.8-2.8 1.7 4c2 4.7 7.1 8.3 11 7.8 2.3-.3 2.7.1 3.2 3.3.3 2.1 1.8 4.7 3.5 6.4l3 2.9-6.2 4.7c-14.9 11.3-28.7 29.1-36.1 46.6-5.8 13.5-5.1 14.6 1.8 3.1 12.8-21.2 29.7-41 47.8-56.2 7.1-6 8.5-7.6 7.1-8.1-11.6-4-27.8-11.1-31.3-13.7-4.2-3-4.9-3.2-12.5-3.1-8.1.1-18 2.9-17.7 4.9.1.5 2.3 1.2 4.8 1.5 3.8.4 4.4.7 3.3 1.7-1 .8-3 .8-7.2.1-4.8-.8-5.7-1.3-5.1-2.7.3-.9.9-4.8 1.1-8.7.5-6.3.2-7.7-2.7-14.3-3.4-7.7-3.5-9.6-1-18.2 1.2-4.2 1.2-5-.3-7.3-1.4-2.1-2.5-2.6-5.7-2.6-3.5 0-4.3-.5-6-3.2-1-1.7-2.2-5.6-2.6-8.5-.6-5-.3-6.1 6.1-20.4 6.2-14.1 6.8-16.4 9.6-32.2 1.6-9.4 3-17.1 3.2-17.2.1-.1 1.8-.6 3.7-1.1 2.3-.7 4.4-2.3 6.5-5.2 2.5-3.7 3-5.4 3.3-11.5.2-6.1-.1-7.8-2-11.2-1.3-2.2-3-4-3.8-4-2.2 0-2.8-2.3-1.9-7.5.5-2.5 1.1-6 1.4-7.9.4-1.8.9-3 1.2-2.7.3.3 1.2-.2 1.9-1.2 1.1-1.5 1.4-1.4 2.5 1.3 1.4 3.4 1.8 13.4.7 18.2-.6 2.6-.5 3.1.7 2.6 2.2-.8 2.9-4.6 3-14.9 0-5.7-.5-10-1.3-11.6-1.2-2.2-1.1-3.1 1.1-7.4 6.6-13.1 10.7-28.9 11.1-43 .3-9 .4-9.2 4.6-14.5 8.2-10.4 13-23 13-34.1 0-5.6-.2-6.1-4.5-10.2l-4.4-4.3 1.1-6.9c1.2-8.1.6-25-1.7-42.4-.9-6.9-1.8-15.2-2-18.5-.2-3.3-1.1-8.5-2-11.5-.8-3-2.2-9.2-3-13.8-2-11-6.7-25.3-12.7-39-3.6-8-4.7-11.7-4-12.4.8-.8-.3-3.1-3.7-8.2-2.6-3.9-7.4-11.6-10.6-17.1-11.6-19.9-19.8-29.7-51.5-61.5-12.4-12.5-16.8-16.2-22.1-18.8-3.6-1.9-7.7-3.5-9-3.6-1.4-.2-7.2-3-12.9-6.3-26.8-15.4-33.6-17.1-73.5-17.8-12.4-.2-21 .1-27.5 1.1zm-55 39.9c6.1 3.1 8.4 3.3 7.5.5-.8-2.4-.6-2.4 14.8 4.8 8.2 3.9 11.5 5 14 4.6 2-.4 7.6.8 15.7 3.2 12 3.5 13.1 3.7 29.5 3.9 19.5.2 30.2 2 36 5.9 2.8 1.9 5.1 2.6 8.7 2.6 3.5 0 4.7.3 4.2 1.2-.5.8 2.5 1 12 .5 11.5-.5 12.6-.4 12.4 1.1-.2 1.4.5 1.7 3.5 1.6 2.8-.1 3.7.2 3.3 1.2-.4 1.1.7 1.4 4.5 1.4 4.4 0 5 .2 4.5 1.7-1.5 3.9 3.7 3.7 18.2-.8 5.1-1.6 11-2.9 13.2-2.9 13.8 0 29.5 14.2 41.4 37.4 3 5.8 5.1 10.6 4.6 10.6-.4 0 1.8 5.1 4.9 11.2 8.4 16.7 13.1 32.5 17.6 59.4 2.9 17.1 2.9 16.4 1 16.4-1.2 0-1.2.6.1 4.7 4.9 15.7 4.7 23-1.7 47.3-5.3 20.3-6.4 30.6-6.3 59 .1 21.5.3 24.4 2.6 34l2.5 10.5 2.7-11.5c1.4-6.3 3.5-16.9 4.7-23.5 1.7-10 2.7-13.1 5.9-18.6 2.2-3.6 5.2-8 6.9-9.7 4.5-4.9 1.9-3.8-4.1 1.7l-5.3 4.9.4-4.1c.3-3.3.5-3.7 1.4-2.2.9 1.7 1.1 1.6 2.3-.6.7-1.3 1.3-3.4 1.4-4.7 0-1.3.4-2.1.9-1.7.5.3 1.5-2 2.2-5l1.2-5.5 2.2 3.3c3.3 4.9 4.8 10.4 4.1 15.3-1.4 10.3-12.4 27.2-16.8 25.8-1.9-.6-2-.3-1.2 4.7 1.5 9.4.7 20.7-2.1 30.3-2.5 8.6-12.4 31-13.3 30.1-.3-.2-.1-1.2.2-2.2.4-1 .9-5.2 1.1-9.3.4-6.9.3-7.3-1-5-.8 1.4-1.4 3.3-1.5 4.3 0 1-.4 1.6-.9 1.3-.5-.3-.8 1.5-.8 4.2.1 2.6-.5 6.9-1.3 9.7l-1.5 5-.6-6-.6-6-.1 7.5c0 4.7-.8 10.3-2.2 15-1.2 4.1-2.3 8.8-2.4 10.5-.2 1.6-1.3 9.3-2.7 17-2.1 12.1-2.5 13.5-3 10-.5-3-.6-2.4-.4 2 .4 6.1-3.5 30.7-5.3 34.1-.6 1-2.2 4.5-3.7 7.7s-2.9 5.6-3.1 5.4c-.2-.2-.9-3.1-1.4-6.3l-.9-5.9.4 5.9c.2 3.2.8 6.3 1.4 6.9 1 1-2.9 9.9-4.9 11.2-.5.3-1 1.6-1 2.8 0 1.2-1.6 5.1-3.5 8.7-1.9 3.5-3.5 7-3.5 7.6 0 .7-1.1 2.5-2.4 4l-2.3 2.8-.1-3c-.1-1.6-.4-5.8-.8-9.4l-.8-6.5-.9 5c-.4 2.7-1.2 10.2-1.7 16.5-1 13.3-.7 12-2 12-.5 0-1-2.3-1-5.2 0-7.8-.8-5.3-1.1 3.2-.2 6.9-.6 8.4-6.1 19.4-7.9 15.7-13.9 25.1-15 23.4-.6-.8-.7-.5-.3.9.4 1.4.2 2.3-.4 2.3-.6 0-1.1.4-1.1 1 0 .5-3.5 5.8-7.7 11.7l-7.8 10.8-.8-4c-1.9-9.3-1.9-10.4.1-14.2 2.5-4.8 4.5-13.9 3.9-17.8-.4-2.8-.4-2.7-.6.7 0 2-.5 4-1.1 4.3-.5.3-1 2.5-1 4.8 0 5.5-1.5 8.1-2.8 4.7-.7-2-1-1.4-1.5 3.6-.4 3.2-.9 7.5-1.2 9.4-.4 2.7-.3 3 .4 1.5.9-1.9 1-1.9 1 .2.1 1.6-.5 2.3-1.8 2.3-1.1 0-2.2.6-2.4 1.2-.3.7-.6-.3-.7-2.2 0-2.9-.2-3.2-1.1-1.7-.6.9-1.4 1.5-1.9 1.2-1.1-.7-2.3 3-1.6 5.3.3.9.2 3.7-.3 6.2-.7 3.5-.9 3.8-1 1.6-.2-5.2-1.1-2.2-1.6 5.3-.5 8.6-1.8 11.2-2.6 5.6l-.6-4-.2 4.5c-.1 4-.7 5.1-4.6 8.9-2.6 2.5-4.2 3.6-3.8 2.5.4-1 1.2-2.4 1.9-3.1.6-.6.9-2.2.7-3.5-.2-1.3 0-3.4.6-4.8.8-2.2.9-1.9.7 1.8-.2 2.8 0 4.2.8 3.9.6-.2 1-1.4.8-2.5-.2-1.2.2-2.2.7-2.2.6 0 1.1-.5 1.1-1.1 0-.5-.5-.7-1.1-.3-.8.4-.9-.1-.4-1.7.4-1.3 1.2-2.5 1.6-2.7.5-.2.9-1.2.9-2.3 0-1 1.1-4.4 2.5-7.5 2.9-6.4 2.8-6.4 1.5-6.4-.5 0-1 .9-1 1.9 0 3.5-1.9 3.2-2.6-.4-.3-1.9-1-3.8-1.5-4.1-1.2-.7-1.2-.5.7 5 1.2 3.5 1.3 5.1.5 5.9-.8.8-1.1.6-1.1-.7 0-.9-.4-1.5-.9-1.1-.5.3-.8 2-.5 3.8.3 2.2-.1 4-1.4 5.6l-1.9 2.4-1.8-4.7c-1-2.5-1.9-4.5-2.1-4.3-.6.6 1.8 8.2 2.8 8.8.6.4.7 2 .3 4-.7 2.9-.9 3.1-1.5 1.4-.4-1.3-.9.5-1.4 5.2-.5 4.7-1.3 7.6-2.3 8.5-1.5 1.1-1.6 1.1-.9-.7.4-1.1 1-5.7 1.1-10.2.2-4.6.6-8.8 1-9.5.4-.7 0-.4-.9.6-1.4 1.7-1.6 1.8-2.2.2-.3-.9-.4-3-.2-4.6.3-1.6 0-3.1-.5-3.3-.5-.1-.2-.9.7-1.6 1.4-1.2 1.6-1.1 1.7.5.1 1.1.4.5.8-1.1.8-4 3.1-3.8 4.7.5 1.1 3.2 1.2 2.9.8-4.5-.3-7 .5-14.4 2.3-21 .3-1.1.2-1.7-.2-1.3-.8.8-3.6 12-3.9 16.1-.2 1.6-1.3 3.8-2.4 5l-2.2 2.1v-2.6c0-1.5-.4-2.9-.9-3.2-1.2-.8-2.1 1.8-2.1 5.7-.1 3.2-4.3 9.7-5.5 8.5-.3-.3-.8-2.5-1-4.9-.2-2.5-1.2-5.1-2.4-6.3l-2.1-2v2.7c0 3.2-.7 3.3-4 .7-3.3-2.6-4.3-2.5-3.4.2.4 1.3.8 3 .9 3.8.1.8.7 2.5 1.3 3.7.7 1.2 1.3 3.7 1.3 5.5.1 2 .3 2.5.6 1.4.4-1.5.7-1.6 1.3-.5 1.7 2.6 2.1.1.6-3-.9-1.6-1.6-3.7-1.6-4.5 0-.8-.4-1.6-.9-1.8-.4-.2-1.2-1.4-1.6-2.6-.6-2.1-.5-2.3 1.3-1.3 1.2.6 3.7 3.1 5.7 5.6l3.7 4.4-3.2 4.5c-1.8 2.4-3 4.8-2.7 5.3.3.5-.3 1-1.4 1-1.2.1-1.9-.5-1.9-1.7 0-1-.5-2.2-1.2-2.6-.8-.5-.9-.2-.5 1 1.3 3.2 1.9 6.6 1.3 6.6-.3 0-1.3-1.2-2.1-2.8-.9-1.5-1.3-1.8-.8-.7 1.3 3.4.7 11.4-1.3 15.5-2.2 4.6-3.4 5.1-3.4 1.4 0-1.4.4-2.3 1-1.9.6.4 1-.9.9-3.2 0-3-.2-3.4-.9-1.8-.6 1.4-.9.1-.9-4.3-.1-3.9-.5-6.1-1.1-5.7-.6.3-1 4.7-1 9.6 0 6.2-.3 8.8-1.1 8.3-.6-.3-1 .1-.9 1.2.5 4.3-.1 6.1-2.6 7.4-1.9 1.1-2.4 2-2 3.6.5 1.7.1 2.3-1.9 2.6-2.2.5-2.5.2-2.5-2.1 0-1.4.4-3.7.8-5.1.6-2.2.8-1.9 1.3 2 .6 4.3.6 4.2.7-1.8.1-3.4.7-6.2 1.2-6.2.6 0 1 1 1.1 2.2 0 1.3.3 1.8.5 1.2.3-.6 0-3.1-.5-5.5-.8-3.6-.8-4.1.3-2.7 1.1 1.5 1.3.2 1.4-7.8.1-7.8-.2-10.5-1.9-14.5-1.2-2.7-2.3-4.8-2.5-4.6-.3.2.5 2.5 1.7 5.1 1.1 2.6 1.9 5.2 1.6 5.9-.4 1.4-4.7-6.5-5.3-9.9-.2-1.2-.9-3.3-1.4-4.6-.8-1.9-.9-1.6-.4 1.6.3 2.2 1.7 6.2 3 8.9 1.4 2.7 2.3 5.4 2.1 6-.2.7-1.2-.4-2.1-2.3-.9-1.9-1.4-2.6-1-1.5 1.6 5.5 1.9 10.6.9 16.3-.8 4.8-1.2 5.9-2 4.6-.7-1.1-1 1-.8 7 .1 6.6-.2 8.6-1.2 8.6-.9 0-1.5-1.5-1.8-3.8l-.4-3.7-.1 4.2c-.2 4.4-2.3 6-3.6 2.8-.3-.8-.2-1.5.2-1.5 1 0 .9-9.7-.1-10.6-.7-.7-1.2 5.1-1 10.8.1 1.6-.3 2.8-.8 2.8-1.4 0 .2-18.3 1.8-19.8 1.1-1.1 1.3-1 1.3.9 0 3.1 1.2 1.6 1.6-2.1.2-1.6-.1-3-.6-3s-.8-4.4-.8-10.1c.1-6-.3-10.3-.9-10.7-.6-.4-1.4-1.7-1.8-3-1.4-4.6-1.4-1.5 0 3.8.8 3 1.4 7.7 1.3 10.5l-.1 5-.7-4.5-.7-4.5-.1 4.3c-.1 2.4.3 5.2.8 6.3.7 1.3.8 2.5.1 3.7-.7 1-1.1 1.2-1.1.4 0-.7-.4-1.1-.9-.8-1 .6-1.6-1.4-2.7-8.9-.4-2.8-1.3-5.9-2-7-.8-1.1-1.5-3.8-1.6-6-.1-3.8-.1-3.8-.5-.7-.3 1.9.2 5 1 7 1.7 4.2 3.4 24.5 1.9 22.4-.7-1-1.1-.5-1.6 1.8-.4 2.5-.9 3-1.9 2.2-1-.8-1.2-.2-.9 3 .3 2.8.1 3.8-.7 3.4-.7-.5-.9.6-.5 3.8.6 3.9.4 4.6-1 4.6-2.3 0-6.6-4.5-6.5-6.7.1-1.6.2-1.6.6-.1.7 2.5 3.3 3.1 3.3.7 0-1.1-.4-1.7-1-1.4-.6.4-1-.6-1-2.2 0-2.2-.2-2.5-1.1-1.3-.7 1.1-.8.4-.3-2.5.4-2.2.8-4.2 1-4.4.1-.2.9 1.8 1.7 4.5l1.4 4.8 1.1-4.7c1.5-5.8 1.4-7-.3-3.2l-1.3 3-1.2-4.5c-1.5-6.2-1.8-6.8-2-4.5 0 1.1-.7 2.9-1.5 3.9-2 2.6-2 12.5 0 15.2.8 1.2 1.1 2.4.8 2.8-1.1 1.1-9.5.7-8.8-.4.4-.6 1-.8 1.4-.6.3.3.7-.4.7-1.5 0-1-.4-1.9-.8-1.9s-.8-.7-.8-1.6c0-.8.4-1.3.8-1 .5.3.6-.9.4-2.7-.4-2.7-.6-2.9-1.3-1.2-.7 1.8-.9 1.6-1.3-1.4-.2-1.4-1.6-2.6-1.6-1.4 0 .5.7 3.2 1.5 5.8 1.4 4.7.9 8.8-.6 4.9-.6-1.6-.8-1.5-.8.8-.1 2.6-.4 2.8-4.1 2.8-3.5 0-4-.3-4.6-2.7-.3-1.6-1.2-4.5-2-6.6-.8-2-1.4-5.3-1.4-7.3s-.4-3.3-.9-2.9c-1.5.9-3.4-3.4-2.3-4.8.7-.8.5-1.6-.4-2.5-1.2-1.1-1.4-1-1.5.5 0 1.1-.9.2-2-2.2l-2-4 .5 5.7c.7 8.9-2 8.2-4-1-.4-2.1-.3-2.4.5-1.2s1.1.5 1.1-2.8c0-2.3-.4-4.2-1-4.2-.5 0-1 1.2-1 2.7 0 2.3-.2 2.5-1.1 1.3-.8-1.1-.9-.7-.4 1.7.4 1.8.2 3.4-.4 3.8-.6.3-1.1 1.8-1.2 3.3 0 1.5-.4 3.6-.9 4.7-.7 1.4-.8.9-.5-2 .4-2.7.2-3.4-.3-2-.8 1.6-1 1.4-1.5-1.5-.4-1.8-.9-3.1-1.2-2.9-.2.3.3 2.9 1.2 5.9.9 3 1.6 8.4 1.6 12-.1 3.6.1 5.9.4 5.1.4-1.1 1-.8 2.4 1l1.8 2.4-1-3.8c-.6-2.2-.8-4.6-.4-5.5.6-1.4.9-1.3 1.9.8.7 1.4 1.6 4 1.9 5.7.6 3.1.5 3.3-2.3 3.3-1.7 0-3-.5-3-1.2 0-.8-.3-.9-1.1-.1-1.3 1.3-8.8 0-10-1.8-1.1-1.7-1.2-5.9-.1-5.9.4 0 .6-1.9.4-4.3-.2-3.1-.1-3.8.7-2.7.6.8 1.1 3.3 1.2 5.5.1 3.7.1 3.8.9 1.3.9-3.2.1-10.8-1.1-10.8-.5 0-.9-1.5-.9-3.3 0-1.7-1-5.7-2.1-8.7-1.2-3-2.1-6.7-2.1-8.3 0-1.5-.3-2.5-.8-2.2-.5.3-.8 3.6-.8 7.3.1 3.7.3 5.7.5 4.4.8-4.2 2.3-2.2 2.3 3 0 2.9.1 6.9.1 8.8.1 5.7-1.2 11.4-2.2 9.9-.5-.8-.9-2.8-1-4.4-.1-2.4-.3-2-1.3 2-1.1 4.8-1.2 4.9-2.4 2.7-.9-1.5-1.1-4.4-.7-9 .3-3.7.2-8.1-.3-9.7-.8-2.9-.9-2.9-1.6-.8-.4 1.3-1.1 2.3-1.6 2.3-1.2 0-2-4.4-.9-5.1.6-.4.8-2.1.4-4.2-.7-3.8-2.5-4.2-2.5-.6 0 1.1.4 1.7 1 1.4.5-.3 1-.1 1 .4 0 .6-.4 1.1-1 1.1-1.2 0-1.3 5.3-.1 6.5 1.6 1.8 3.7 20.5 2.3 20.5-3.4 0-4.2-1.3-4-6.9.1-4.3.2-4.7.5-1.8.2 2 .8 3.5 1.4 3.2.5-.4.9.2.9 1.1 0 1 .3 1.5.6 1.2.3-.3-.2-3.3-1-6.6-.9-3.3-1.6-7.2-1.6-8.6 0-1.4-.5-2.6-1.1-2.6-.5 0-.9 1.2-.8 2.7.4 5.3-.1 9.7-1 8.8-.4-.6-.5-3.7-.1-7 .8-6.4.2-14.5-1-14.5-.5 0-.6 1.7-.4 3.8.3 2.7-.1 4.3-1.6 6.1-1.8 2.1-2.3 2.2-3.1 1-1.1-1.8-1.2-6.6 0-7.3.5-.4 1.4.6 1.9 2.1.7 2.2.9.7.9-6.2 0-5.1-.2-6.7-.4-3.7-.5 6-2.3 6.2-2.3.2 0-2.1-.4-4.1-.9-4.4-.5-.3-1.1-2-1.3-3.8-.3-1.8-.8-4.1-1.3-5.1-.4-1-.3-1.7.4-1.7.6 0 1.1.8 1.2 1.7 0 1.5.2 1.5.9-.2 1.2-2.8 1.2-3.7-.2-2.9-.8.5-.9 0-.4-1.7.3-1.3 1.3-4.7 2-7.4.8-2.8 1.8-5.9 2.2-6.9.5-1.3.4-1.7-.4-1.3-1.1.8-3.8 7.7-3.4 9 .1.5-.3 2.6-.9 4.8-.9 2.7-1.5 3.6-2.1 2.7-.4-.8-.8 1.2-.9 4.7 0 5.6-1.5 12-1.9 8.5-.6-4.5-1.8 6.5-1.4 12 .8 10.2 1.5 13.4 2.6 11.9.7-1.1.8-.9.4.4-.3 1-.7 3.1-.7 4.5-.1 2.7-.1 2.7-.9-.3-.7-2.7-.8-2.7-.9-.6 0 1.3-.4 2.1-.8 1.7-.8-.7-1.7-18.9-1.4-27.9 0-2.7.8-6.4 1.7-8.2.9-2.1 1.4-5.1 1.1-8.1l-.3-4.9-.2 5.7c-.2 6.5-1.9 7.8-2.5 2.1-.3-2.4-.4-1.6-.4 2.2 0 3.3-.4 8.9-.8 12.4-.7 5.3-1 6-1.7 4.1-.5-1.3-.6-4.3-.2-6.6.4-2.6.2-4.4-.5-4.8-.6-.4-1.2-2.8-1.2-5.4-.2-4.6-.2-4.6-.9-1.2-.6 2.9-.8 3.1-.9 1-.3-2.7-2.9-10.2-3-8.5-.2 2 3 12.9 4 14.1.6.7 1.2 6.1 1.4 11.9.1 5.9.7 11.1 1.3 11.7.7.7.8-.1.1-2.8-1.2-5.5-1-6.5.6-2.4.7 1.9 1.3 6 1.3 9s-.2 4.7-.5 3.7c-.2-.9-.9-1.5-1.4-1.1-1.9 1.2-5.9-4-5.8-7.6l.1-3.5 1.9 4c2.2 4.3 2.1 2.7-.4-5.9-1.6-5.6-2.6-4.4-2.8 3.2l-.1 4.7-.9-4.4c-1.1-5.6-2.3-6.9-1.4-1.6l.6 4-2-2.4c-2.4-2.6-2.6-6.8-.7-12.1 1.1-3.1 1.4-3.2 2.3-1.6.6 1 .8 2.8.6 4-.4 1.8-.3 1.9.6.5 1.7-2.6 2.1-14.8.8-21.4l-1.2-6-.5 10.5-.5 10.5-1.4-4.5c-.8-2.5-1.4-6.1-1.4-8 .1-4.2 1.9-14.5 2.8-15.9.3-.6.1-1.1-.4-1.1-.6 0-1.2-1-1.3-2.3-.1-1.2-.4.7-.7 4.3l-.6 6.5-1.2-8.5-1.2-8.5.6 8.5c.2 4.7.9 8.8 1.5 9.1.6.4.7 1.6.2 3l-.8 2.4-.6-2.4c-.3-1.4-1.2-2.7-1.9-2.9-1-.3-1.2 0-.6 1.4 2.1 5.3 3.5 12.6 3.4 18.4-.1 4.8-.3 5.8-.9 4-.7-2.3-.8-2.3-1 1l-.3 3.5-.7-3.5c-.7-3.2-.7-3.3-.9-.7-.1 3.5-1.2 2.9-4.5-2.7-2.5-4.3-2.6-4.6-1.1-8.8 1.3-3.9 2.1-9.2.8-6-.2.6-1 .9-1.6.5-.6-.4-.8-.1-.5.8.3.8 0 2.8-.8 4.4-1.3 3-1.3 3-.7-1 .9-5 .6-10.3-.7-13.5-.6-1.4-1.4-5.2-1.9-8.5l-.9-6-.2 8.5c-.2 4.7-.3 9.1-.3 9.7.1.7-.3 1.3-.7 1.3-.5 0-1 .8-1.3 1.7-.2 1-.7-.4-1.2-3.2-.5-3.4-.4-5 .4-5.3.6-.2.8-.8.5-1.3-.3-.5-.7-3.5-.9-6.5-.3-5.5-.9-7.3-2.1-6.1-.4.4-.2 1.2.4 2 .6.7.8 2.4.5 3.7-.6 2.2-.7 2.3-1.5.4-.5-1.2-.6-.6-.2 1.9.3 2.6.2 3.7-.5 3.2-.6-.3-1.1-.1-1.1.4 0 .6.5 1.1 1 1.1.6 0 1 1 1 2.2 0 2.1-.2 2.1-2-.7-1.1-1.7-2-3.8-2-4.8 0-.9-.4-1.7-1-1.7-1.3 0-7-11.4-7-14.2 0-1.7-.3-1.9-.9-.9-1.6 2.6-3.2-2.4-2.6-8.6.3-4.2.2-5-.4-2.8-.7 2.3-.9 2.5-1 .9 0-1.2-.8-3.5-1.6-5l-1.5-2.9v4c0 3-.3 3.6-1 2.5-.5-.8-1-2.9-1-4.5 0-2.1-.3-2.6-.9-1.6-1.5 2.4-3.1-2.2-3.3-9.6l-.1-6.8-.6 5.5c-.6 5.3-.6 5.4-1.9 2.7-.6-1.5-1.2-4.2-1.3-6 0-2.6-.2-2.8-.8-1.2-.7 1.8-.9 1.7-2.4-1.1-.9-1.7-1.5-4.7-1.3-6.5.2-1.9.1-2.6-.1-1.7-.2 1-.8 1.8-1.2 1.8-1.4 0-3.9-6.7-3.5-9.6.3-2.2.2-2.5-.4-.9-.8 1.7-1.2 1.4-3.6-2.7-2.5-4.2-2.6-5-1.6-9.1.7-2.4 1-5.7.7-7.3-.3-2.4-.4-2.3-.6 1.1-.1 2.2-.6 4.9-1.1 6-.7 1.7-.9 1.6-1-1-.1-2.3-.3-2.6-.8-1.2-1.1 2.6-10.4-17.9-9.7-21.3.5-2.1.4-2.2-.3-.5-.8 1.8-1.1 1.6-2.6-1.9-.9-2.1-1.6-4.7-1.6-5.7 0-1.1-.4-1.9-.9-1.9-1.1 0-1.9-4.5-3-16-.5-4.7-1.5-10.9-2.3-13.8-.9-2.9-1.2-5.5-.8-5.7.4-.2.7-4.2.7-8.7 0-7.9 0-8-.6-2.3-.5 5.2-.7 5.6-1.3 3-1.4-6-2-23-1-26.8.7-2.5.7-4.6.1-6-.9-2.1-.9-2.1-.5.1.3 1.3.2 3.1-.2 4-.4 1-.9-3-1.2-8.8-.3-5.8-.2-10.7.3-10.8.4-.2.6-3.1.5-6.5-.1-6-.1-6.1-.7-1.7-.4 2.9-.9-1.6-1.3-13-.4-9.6-1.2-19.2-1.7-21.3-.7-2.9-.6-4.8.5-7.5 1.2-3.1 1.2-3.4.1-2-1.7 2.2-2.7 2.3-2.7.4 0-.8-.5-1.6-1.2-1.8-.6-.2-1.1-2-1-3.9.5-8.3.1-22.7-.6-25.9-.6-2.6-1 0-1.5 10.2-.4 8.1-.3 14.7.3 16.2.5 1.4 1.1 17.2 1.3 35.1.3 31.1.2 32.5-1.6 33.1-4.6 1.5-8.2-6.9-5.3-12.7 2.1-4.3 2-7.2-.4-10l-2-2.4 1.1 2.8c1.1 2.4.9 3-1.1 5.2-1.7 1.8-2.4 3.8-2.5 6.5 0 2.2-.4 3.9-.9 3.7-5.5-1.8-16.2-32.7-11.4-32.7 1.3 0 1.1-1.1-.9-6.8-2.8-7.6-6.3-21.7-6.2-24.7 0-1.2.6-.6 1.4 1.8 1.9 5 8.1 16.6 10.5 19.7l2.1 2.5-.7-3c-.4-1.7-2.6-7.3-5-12.6-10.2-22.3-11.8-43.9-4.9-62.4 1.4-3.6 2.5-7.3 2.5-8.3-.1-3.5-5 3.9-6.8 10.1l-1.7 6.2-.5-8.5c-.4-6.4-.8-8.5-1.9-8.5-1.7 0-4.9-8.6-5-13.3-.1-4.1 2-9.1 4.8-11.6 4.4-3.9 19.1-2.5 19.1 1.9 0 2.6 5.2 17.5 6.1 17.5.4 0 2.2 2.1 4 4.7 5.4 7.8 7.5 16.8 9.4 41 .4 4.6 1 8.3 1.4 8.3.4 0 1.7-6.4 3-14.3 1.3-7.8 3-14.9 3.7-15.7.7-.9 4.7-13.6 8.9-28.4 8.1-29 8.7-33.6 5.9-43.3-.9-3-1.4-6.8-1.1-8.3.3-1.5.1-3.2-.4-3.7s-1.3-4.2-1.6-8.1c-.3-4-1-7.2-1.4-7.2-1.4 0-1-18.4.6-30.5 1-7.6 1.1-11.1.4-11.6-2.4-1.5 6.3-15 16.7-26 7.5-7.9 10.9-13.1 10-15.4-.5-1.5 3.6-14.4 7.3-22.8 2.5-5.7 13.9-17.4 22.8-23.5 3.4-2.3 6.5-4.2 6.9-4.2.4 0 3.9-2.5 7.8-5.5 6.1-4.6 9.3-6.2 20.6-10 7.4-2.4 14.1-4.5 14.8-4.5.7 0 3.5 1.1 6.2 2.5zm260.4 386.2c-3.5 2.5-4.1 1.2-2.7-5.7l.6-3.3 2 3.8c1.9 3.7 1.9 3.9.1 5.2zm-399.6 2c-.2 1.7-.9 2.8-1.8 2.8s-1.6-1.1-1.8-2.8c-.3-2.2.1-2.7 1.8-2.7s2.1.5 1.8 2.7zm400.2 3.4c0 1.9-3.9 7.7-5.6 8.3-1.2.5-1.5.2-1-1 .3-.8.6-2.7.6-4 0-1.6.8-2.8 2.3-3.4 3-1.2 3.7-1.2 3.7.1zm-398.3 10.8c2.6 5.3-4.2 8.6-8.7 4.1-2.2-2.2-1.7-5.8.5-4 .9.8 1.5.8 2 0 .3-.5.1-1-.5-1s-.8-.5-.5-1.1c1.2-1.8 5.9-.5 7.2 2zm16 24.3c-.3.8-.6.5-.6-.6-.1-1.1.2-1.7.5-1.3.3.3.4 1.2.1 1.9zM573.1 559c2.4 2.3 3.9 4.6 3.9 6.1 0 2.7-1.5 11.9-2.5 16.1-.7 2.7-.5 2.8 2.8 2.8 4.1 0 4.6.9 5.4 9.6 1.4 15.5-3.7 29.4-21.9 59.7-18.4 30.5-26.1 44.4-25.4 45.6.4.5.1 1.3-.5 1.7-.8.5-1 .2-.5-.7.4-.8 0-.5-.8.5-.9 1.1-1.6 2.5-1.6 3 0 .6-1.2 3-2.8 5.2l-2.7 4.2.1-16.2c.1-13.8.4-16.7 2.1-20.6 3-6.6 10.8-30.6 14.8-45.4 4.5-16.7 13.3-53.2 14.1-58.8.3-2.3 2.4-8.3 4.7-13.1l4.1-8.8 1.4 2.7c.8 1.5 3.2 4.3 5.3 6.4zm-23.2-.8c-.1 7.4-1.7 9.2-1.8 2-.1-3.5.3-6.2.9-6.2.6 0 1 1.9.9 4.2zm-284 47.6c.1.7-.3 1-.9.7-.5-.3-1-2.1-.9-3.8.1-3.1.1-3.1.9-.7.4 1.4.8 3.1.9 3.8zm-7.1 19.4c.6 4 1.4 9.8 1.7 12.8.3 3 .8 7.1 1.1 9.1.5 3.6.5 3.7-6.3 7.5-3.7 2.1-11 6.7-16.2 10.2l-9.4 6.4 2.4-3.8c1.3-2.2 6.7-10.9 12.1-19.4 5.3-8.5 9.5-15.6 9.3-15.8-.2-.2-2 .6-4 1.8l-3.7 2.3 2.2-4.4c2.7-5.3 8.3-13.8 9.1-13.9.3 0 1.1 3.3 1.7 7.2zm335.2-5.6c0 .2-6.9 9.5-15.3 20.6-8.5 11.2-21.1 28.4-28.2 38.3-12.1 17-17.2 23.7-13 17 9.8-15.5 38.6-62.7 42.3-69l4.6-8 4.8.3c2.6.2 4.8.6 4.8.8zm-91 21.9c0 1.9-.4 3.5-1 3.5-1.1 0-1.3-3-.4-5.4 1-2.5 1.4-1.9 1.4 1.9zm-8.1 6.7c-.5 1.7-.7 3.4-.4 3.6.2.2.9-1.6 1.7-3.9l1.3-4.4.3 3.9c.3 2.9-.2 4.4-1.9 6.2-1.2 1.3-2.6 2.4-3.1 2.4-1.1 0-1-5 .4-11.2 1-4.9 1.2-5.1 1.9-2.5.4 1.5.3 4.2-.2 5.9zm-203-2.5c-.1 3.4-.2 3.5-.9 1.3-1.1-3.6-1.1-5 0-5 .6 0 1 1.7.9 3.7zm179.8 1c-.3 1-.5.4-.5-1.2 0-1.7.2-2.4.5-1.8.2.7.2 2.1 0 3zm7.3-.9c0 1.5-.2 1.5-1 .2-1.3-2-1.3-3.3 0-2.5.6.3 1 1.4 1 2.3zm22 .1c.6 1.3.7 2.1.2 1.7-.6-.3-1.3 0-1.5.6-.3.7-.6-.2-.6-2.1-.1-3.7 0-3.8 1.9-.2zm-39.1 2.6c-.1 1.7-.2 1.7-.6.2-.2-.9-.8-1.5-1.3-1.2-.4.3-.6-.4-.3-1.6.4-1.6.8-1.7 1.4-.7.5.7.8 2.2.8 3.3zm7.2 8.5c-.5 2.4-1.6 4.9-2.3 5.6-1.1 1.2-1.3.7-1-2.9.4-3.7 2.8-8.4 3.9-7.3.2.2-.1 2.3-.6 4.6zm-139.2 6.4c0 1.7-.4 4-.8 5.1-.6 1.4-.9.7-1.4-2.9-.4-2.7-.7-6.5-.7-8.5l.1-3.6 1.4 3.4c.8 1.8 1.5 4.7 1.4 6.5zm164.1-6.1c0 .2-.9 1.2-2 2.2-1.9 1.8-2 1.7-2-.3 0-1.5.6-2.2 2-2.2 1.1 0 2 .2 2 .3zm-29.3 4.9c0 1.8.3 4.2.8 5.3.7 1.7.6 1.8-.6.8-1.5-1.2-1.6-.4-1.9 13.9 0 3.2-.5 6-1 6.3-.5.3-.7-1.2-.4-3.2.5-4.1 0-3.6-1.2 1.2l-.7 3-.7-3c-.8-3-.8-3-.9.7-.1 3.5-2.1 6.7-2.1 3.3 0-.9-.4-1.3-1-1-1.4.9-1.2-2.9.2-4.3.9-.9.9-1.2 0-1.2-.8 0-.8-1 .2-3.8.8-2.3 1-4.5.5-6-.5-1.3-.5-2.2.1-2.2.5 0 .7-.6.4-1.4-.3-.8-.1-1.7.5-2 1.3-.8 2.5 3.7 1.8 6.4-.3 1.1 0 2 .5 2 .7 0 .9-1.7.6-4.5-.3-2.5-.2-4.5.3-4.5s.6-.6.3-1.4c-.7-1.8 1.4-5.8 2.7-5.1.5.4.9-.1.9-.9 0-.9.2-1.6.4-1.6.3 0 .4 1.5.3 3.2zm-139.6 4c1.1 2.1 1.1 2.2-.4.9-1-.7-1.7-1.7-1.7-2.2 0-1.5.9-1 2.1 1.3zm144.4 4.9c-.5 5.2-.4 7 .4 6.5.7-.4 1.1.1 1.1 1.3 0 2.3-2.5 5.7-5.2 7.2-1.6.8-1.6.7-.3-2.3 1.7-4.3 3.1-13.9 1.6-11.8-.6.8-1.1 1.2-1.1.8 0-1.2 3.2-8.8 3.7-8.8.3 0 .2 3.2-.2 7.1zm3.5-3.9c0 2.1-.3 2.9-1 2.2-.5-.5-.7-1.9-.4-3.2.9-3.1 1.4-2.7 1.4 1zm-146 5.4c.7 1.8.6 3.3-.4 5.1-1.2 2.4-1.4 2.5-1.9.7-.5-1.5-.4-6 .2-8.2.3-.9 1.3.2 2.1 2.4zm138.3 4.4c-.3 1.2-.8 1.9-1.1 1.6-.5-.6.5-3.6 1.2-3.6.2 0 .2.9-.1 2zm-109.4 1.7c0 2.5-.1 2.6-.9.8-1.2-2.7-1.2-3.5 0-3.5.6 0 1 1.2.9 2.7zm-27.3 5.3c-.1 4.2-.5 6.9-1.1 6.6-1.4-.5-.6-13.6.8-13.6.3 0 .4 3.1.3 7zm42.6 1c-.3.8-1.2 2.4-2 3.5-1.3 1.9-1.4 1.8-.7-1 .4-1.7.7-4.8.7-7l-.1-4 1.3 3.5c.7 1.9 1.1 4.2.8 5zm-26.5-2.8c-.3.7-.5.2-.5-1.2s.2-1.9.5-1.3c.2.7.2 1.9 0 2.5zm77.5 0c-.9.9-1.2.7-1.2-1.2s.3-2.1 1.2-1.2c.9.9.9 1.5 0 2.4zm-44.8 10.5c.5 9.8.4 11.3-.9 11.3-.9 0-1.9-1-2.4-2.3-.9-2.3-.5-4.1.7-3.3.4.2.6-1.4.3-3.7-.2-2.3-.7-4.4-1.1-4.7-1.6-1-1.4-3.6.5-6.2 1.1-1.4 2.1-2.5 2.1-2.5.1.1.4 5.3.8 11.4zm2.7 1.3c.1 4.7.4 7.5.6 6.2.2-1.2.8-2.2 1.3-2.2s.7-1.4.4-3c-.4-1.7-.4-3-.1-3 .8 0 3.7 10.3 3.1 11.2-.8 1.3-5.4.9-5.9-.5-.8-2.6-1.4-21.1-.5-19.2.5 1.1 1 5.8 1.1 10.5zm71-5.7c-1.8 1.8-2.3.1-.9-2.9 1.3-2.8 1.3-2.8 1.6-.5.2 1.3-.1 2.8-.7 3.4zm-118.1 2c0 1-.4 1.6-1 1.2-.5-.3-.6-1.3-.3-2.2.4-1.1.3-1.4-.5-.9-.8.5-1.2-.2-1.2-2.1l.1-2.8 1.4 2.5c.8 1.4 1.4 3.3 1.5 4.3zm89.2 6.7c-.4 4.9-.5 5-3.7 5-2.9 0-3.2-.3-3.1-2.9.1-1.6.4-2.7.8-2.5.3.2.9-1.5 1.3-3.8.4-2.4 1.5-5.1 2.4-6.2 1.5-1.7 1.6-1.6 2.2 1.8.3 2 .4 5.9.1 8.6zm-85.6-8.6c1.4 1.5 2 6.6.7 6.6-1.8-.1-3.1-1.7-3.5-4.8-.5-3.4.5-4.1 2.8-1.8zm18.1 3.8c-.3.7-.5.2-.5-1.2s.2-1.9.5-1.3c.2.7.2 1.9 0 2.5zm91.6-1.2c-.3 1.1-.9 2-1.4 2-.5 0-1.4 1.1-1.9 2.5-1 2.5-3 3.5-3 1.4 0-.9 5.6-7.4 6.7-7.8 0-.1-.1.8-.4 1.9zm2.9 1.5c.4 1.7.1 2.5-.8 2.5-1.4 0-1.9-3.1-.7-4.3.9-1 1-.9 1.5 1.8zm5.6-.7c.2.7-.4 1.5-1.3 1.8-2 .8-2.7.1-1.9-2 .7-1.8 2.5-1.7 3.2.2zM354 698.7c0 2-3.7 1.5-4.2-.5-.8-3.1.2-4.2 2.3-2.4 1 .9 1.9 2.2 1.9 2.9zm19.7-2.5c-.3.8-.6.5-.6-.6-.1-1.1.2-1.7.5-1.3.3.3.4 1.2.1 1.9zm71.9.5c-1 1-1.9-.5-1-1.8.6-1.1.8-1.1 1.2 0 .2.7.1 1.5-.2 1.8zm-97.7.4c1.1 1.9 1.1 2.1-.4 1.5-.9-.3-1.9-.6-2.1-.6-.2 0-.4-.7-.4-1.5 0-2.1 1.3-1.9 2.9.6z" />
          <path d="M307.5 250.1c-13.3 2-26.1 8.1-36 17.1-7 6.4-9.9 10.3-6.9 9.1.9-.3-.6 1.5-3.4 4.1-5.8 5.5-11.5 13.8-11 16.1.2 1.3.9 1.1 4-1 2.1-1.4 5.9-3.5 8.4-4.5 4.5-2 4.5-2 3.9 0-.6 1.8-.2 1.7 5.7-.7 6.7-2.8 20.8-4.5 20.8-2.5 0 .6-.6 1.3-1.2 1.5-3.3 1.4 6.4-.8 11.2-2.5 9.6-3.4 15.8-4 34-3.5 18.4.6 30.1 2.2 46.2 6.2 5.3 1.4 10.6 2.5 11.8 2.5h2l-2-4c-3.1-6-8.4-11.4-13.2-13.5-2.4-1.1-7.7-3.8-11.8-6.1-9.9-5.6-31.9-14.9-39.5-16.8-8.4-2-16-2.5-23-1.5zM533.5 273c-3.3.5-9.1 1.5-12.8 2.4-8.4 2-9.1 2-8.4.1.8-2-8.6 2.2-17.8 8-7.2 4.5-18.4 13.5-19.7 15.9-1 1.9 9.9 2.8 18.3 1.5 16.3-2.4 58.7-2.3 54.8.2-.9.6.7.9 4.6.9 5.7.1 5.9.1 3.5 1.5l-2.5 1.4 3 .1c1.7 0 5.9 1.6 9.5 3.5 3.6 1.9 11 5.7 16.5 8.3 5.5 2.7 11.4 6.1 13.2 7.6l3.1 2.7.7-5.5c1.6-12.3-5.5-28.1-15.7-35.2-2.1-1.5-3.6-3-3.3-3.4.2-.4-4.6-2.9-10.8-5.6-10.5-4.5-11.8-4.8-20.7-5-5.2-.1-12.2.1-15.5.6zM167.2 288.5c-2.5 1.8-3 5.5-.8 5.5.8 0 1.8-.5 2.1-1 .3-.6 1.8-1 3.3-1 5.1 0 15.6 13.5 24.5 31.2 2.6 5.4 5.1 9.8 5.4 9.8.9 0-.8-7.2-2.4-10.4-.8-1.6-3.2-5.1-5.3-7.7-2-2.6-5.6-8.1-7.8-12.1-3.7-6.8-10.8-14.8-13.1-14.8-.5 0-1.5-.2-2.3-.5-.7-.3-2.3.2-3.6 1z" />
          <path d="M310 293c-6.5.8-15.5 3.4-17.6 5.1-.6.5-3.7 2.2-6.8 3.8-5 2.5-5.5 3-3.7 3.6 1.5.4 4.1-.3 8.2-2.5 10.2-5.3 19.1-7 36.3-7 24.7.1 35.5 2.9 50.8 13.4 13.1 8.9 13.8 9.2 8.8 4.7-10.6-9.7-23.2-16.1-38.2-19.1-10.7-2.2-28.8-3.2-37.8-2z" />
          <path d="M314.7 302c-4.3.3-8.1 1-8.5 1.6-.4.5-5.6 2.3-11.7 3.8-14.5 3.8-16.8 6.3-7.2 8 2.1.4 7.3 2.3 11.5 4.2 4.2 2 10 4 12.7 4.5 6.9 1.4 25.6 2.3 30.9 1.5 4-.6 4.6-1.1 6-4.7.9-2.2 1.6-5.8 1.6-8.1 0-4.1 0-4.2-1.6-2-2.6 3.7-8.4 2.4-8.4-2 0-2.9 2.5-3.2 9.3-1.3 9.1 2.5 15.3 6.2 17.2 10.1 2.7 5.7 2.2 6-18.5 13.2-6.7 2.3-9 2.6-21 2.6-10.6-.1-14.9-.5-20.3-2.1-6.7-2-6.8-2-5-.1 4.1 4.5 6.8 5.1 21.8 4.5 12.3-.4 15.9-1 30-4.7 9.9-2.6 17.8-4.2 20.8-4.1 4 .2 4.7-.1 4.7-1.7 0-3.9-13.5-13.7-24.9-18.1-11.6-4.5-24.1-6.1-39.4-5.1zm-4.7 11.4c0 3 .3 6.2.7 7.1.5 1.4.2 1.6-1.8 1-3.7-1.1-13.2-6.9-13.2-8 .1-.8 11.2-5.4 13.6-5.5.4 0 .7 2.4.7 5.4zm61.8 7.8c1.8 1.8 1.4 2.8-1.2 2.8-1.9 0-2.3-.4-1.9-2 .6-2.3 1.4-2.5 3.1-.8zM179 313.3c0 1.6.5 3.7 1 4.8 1.4 2.5 7.1 2.6 9.3.1 2.6-2.8 2-3.4-1.3-1.7-3.5 1.8-4.5 1.4-7.1-2.9l-1.9-3.1v2.8zM506.5 311.6c-11.3 1.6-16.5 2.8-20.1 4.4-5.1 2.2-12 8.3-12.7 11.2-.5 1.6.3 1.2 3.6-1.9 8.6-8.3 15.7-10.3 38.7-11 19.4-.6 31.6.9 39.4 4.7 2.6 1.2 6.9 4.9 10.1 8.6 6 6.8 7.7 7.7 5.1 2.5-4-7.7-14-14.2-25.5-16.6-6.6-1.4-33-2.7-38.6-1.9zM398.7 316.5c1 2.6 1 16.3 0 19.2-1.2 3.4 1 2.9 2.8-.7.8-1.6 1.5-5.5 1.5-8.9 0-5.1-.4-6.4-2.6-8.8-1.9-2.1-2.4-2.3-1.7-.8z" />
          <path d="M506 319c-13.3 2.1-28 8.6-28 12.3 0 .7 1.9 1.8 4.3 2.5 2.3.7 7.1 3 10.7 5.1 9.1 5.4 14.6 7.1 29 8.8 10.7 1.3 13 1.4 15.8.2 3.1-1.3 2.8-1.4-7-1.5-11.4-.1-22.6-2.9-34-8.4-6.1-2.9-6.2-3-2.3-2.4 2.2.3 5.1.8 6.5 1 1.9.4 2.2.3 1-.5-.8-.5-3.2-1.3-5.2-1.6-3.9-.7-5.8-2.8-5.8-6.4 0-2.5 2.5-3.9 8.5-4.7l4.5-.7v13.4l3.5 1.5c4.9 2 20.9 2.9 26.2 1.5 5.1-1.4 6.7-3.9 6-9.3-.5-3.6-.4-3.8 1.6-3.2 2.8.8 9.8 4.3 11.5 5.7 1.1.8.6 1.5-2 2.9l-3.3 1.8 8-.6c11-.8 11.9-1.3 6-3.4-2.7-.9-5-2.1-5-2.6 0-.4-2.8-1.8-6.2-2.9-6.9-2.4-8.6-3.5-6.3-4.3 1.8-.6-16.5-3.8-25.9-4.5-3.6-.3-9.1-.1-12.1.3zm30.4 5.6c1.4.5 2.4 4.4 1.2 4.4-.2 0-1.1.3-1.9.6-1.7.6-4.7-2.1-4.7-4.2 0-1.4 2.7-1.9 5.4-.8zm-47.7 9c-.6.7-5.7-1.8-5.7-2.7 0-.4 1-1.5 2.2-2.4 2.2-1.5 2.3-1.4 3.1 1.6.4 1.7.6 3.3.4 3.5zM464.7 323c-4.1 4.8-4.6 12.4-1.1 17.4 1.1 1.6 1.2 1.1.7-3.5-.4-4.7-.1-6.2 2.5-11.2 3.4-6.3 2.2-7.9-2.1-2.7zM185.8 326.2c-4.4 6.3-3.6 26.4 1.7 42.8 2.4 7 6.2 14.7 7 13.9.2-.2-.4-3.1-1.2-6.3-1.2-4.9-1.3-7-.3-12 .7-3.4 1.6-6.9 2.1-7.9.7-1.1.6-1.7-.1-1.7-.6 0-2.1 2.3-3.4 5.2l-2.3 5.1-1.7-4.4c-1-2.4-2.1-8.2-2.3-13-.5-8.2.8-15.1 4.3-23.7 1.1-2.5-1.5-1.1-3.8 2zM259.1 330.1c-1.8 1.1-3.1 2.2-2.9 2.5.5.5 9.8-3.4 9.8-4.1 0-1.2-3.8-.3-6.9 1.6zM577 330c-1.2.8-1 1 1 1 1.4 0 3.2-.5 4-1 1.2-.8 1-1-1-1-1.4 0-3.2.5-4 1zM577.3 335.7c.9.2 2.5.2 3.5 0 .9-.3.1-.5-1.8-.5-1.9 0-2.7.2-1.7.5zM291.6 339.5c.8 1.9 7.6 5.3 13.9 7 10.5 2.7 29.3 1.3 35.4-2.6 1.3-.9 1.3-.9-.4-.4-1.1.3-5.8 1.1-10.4 1.7-10.3 1.4-21.3-.1-31.8-4.1-4.1-1.7-6.9-2.3-6.7-1.6zM269.9 341c-2.9 2.3-2.3 2.5 2.2.6 1.9-.7 4-1.1 4.8-.8.8.3 1.1 0 .7-.7-1.1-1.7-5.1-1.3-7.7.9zM568.4 349.2c-2.1 1.9-5 4.2-6.4 5.1-2 1.4-2.1 1.7-.7 1.7 4.1 0 12.4-6.5 11.5-9.1-.3-.8-1.8 0-4.4 2.3zM494 354.5c2 2.4 10.7 5.4 20.1 7.1 10.3 1.8 29 1.6 32.3-.3 1.4-.8-.9-.9-9.5-.6-12.5.6-23.3-1-36.6-5.2-4.7-1.5-7-1.8-6.3-1zM459.8 357.9c-1.2 5.2-.9 57.9.2 55.9.6-1 .9-12.9.8-30.5-.2-15.8-.6-27.3-1-25.4zM403.7 391.7c-.4.3-.7 2.2-.7 4.2 0 4.1-2.9 11-6.6 15.8-3.3 4.4-1.4 4.2 3.6-.3 4.1-3.7 6-8.2 6-14.4 0-3.7-1.2-6.5-2.3-5.3zM180 392.6c0 .6 1 3.3 2.1 6 1.2 2.6 2.5 7.1 2.9 9.8l.6 5.1 1.2-4c1.5-5.2.1-10.5-3.8-14.8-1.6-1.8-3-2.7-3-2.1zM377.7 404.4c-6.4 2.3-15 10.3-18.7 17.5-.7 1.4-1.2 5.9-1.2 10.2 0 6.3.4 8.4 2.1 10.8 3 4.2 10.9 9.1 14.5 9.1 2.8-.1 2.9-.2 1.1-1.1-9.3-5.1-14.5-11.6-14.5-18.3 0-7 7.3-18.3 15.6-24.2 2.9-2.2 5.4-4.2 5.4-4.7 0-.9.3-.9-4.3.7zM475 416c0 .6 1.8 4.6 3.9 8.8 4.4 8.8 5.6 13.6 4.6 18.1-.9 4-5 9-9 10.7l-3 1.3 3 .1c11.2.1 17.4-15.4 11.1-27.7-3.9-7.8-10.6-14.9-10.6-11.3zM212.3 427.5c0 4.4.2 6.1.4 3.7.2-2.3.2-5.9 0-8-.2-2-.4-.1-.4 4.3zM588.3 433c0 3 .2 4.3.4 2.7.2-1.5.2-3.9 0-5.5-.2-1.5-.4-.2-.4 2.8zM502.4 438.8c1.1 7.5 6.3 16.1 12.5 20.7 4.8 3.5 6.1 3.1 2.5-.8-4-4.1-6.3-7.6-11.4-16.7l-4.2-7.5.6 4.3zM580.1 442.5c0 3.3.4 6.9.8 8 .5 1.2.7-.9.4-5-.6-9.1-1.1-10.5-1.2-3zM334 444.1c-2.5 3.4-7.1 8.4-10.3 11.1-6.3 5.2-6.4 6.5-.1 2 6.9-5 16-15.9 15.2-18.2-.2-.6-2.3 1.7-4.8 5.1z" />
          <path d="M375.5 443.8c1.7 1.1 3.6 2.6 4.4 3.5.7 1 2.3 1.7 3.4 1.7 2 0 2 0 .1-1.5-3.1-2.3.5-1.9 4.6.6 4.2 2.6 5.3 3.9 9 11.1 4.2 8.1 8.2 12.3 15.2 15.8 5 2.4 7.4 3 12.8 3 12.4 0 20.7-4.8 27.4-15.8 3.7-6 8.5-11.1 12.5-13.2 2.2-1.1 2.3-1.1 1.8.9-.7 2.8.1 2.7 2.5-.4 1.3-1.7 2.9-2.5 4.9-2.5 1.8 0 2.8-.4 2.4-1-1-1.6-9.3-1.2-12.7.6-4.5 2.3-11 8.7-16.4 16-6.6 9-9.7 10.7-20.5 11.2-14.6.7-18.2-1.4-26.4-15.3-3.1-5.1-6.9-10.5-8.5-11.8-3-2.6-10.5-4.7-16.3-4.7h-3.2l3 1.8zM214.3 451c0 3 .2 4.3.4 2.7.2-1.5.2-3.9 0-5.5-.2-1.5-.4-.2-.4 2.8zM223.3 456.5c0 2.7.2 3.8.4 2.2.2-1.5.2-3.7 0-5-.2-1.2-.4 0-.4 2.8zM583.3 456.5c0 2.7.2 3.8.4 2.2.2-1.5.2-3.7 0-5-.2-1.2-.4 0-.4 2.8zM217.3 456.5c0 2.2.2 3 .4 1.7.2-1.2.2-3 0-4-.3-.9-.5.1-.4 2.3zM239.3 463c0 4.1.2 5.8.4 3.7.2-2 .2-5.4 0-7.5-.2-2-.4-.3-.4 3.8zM228.3 462c0 3 .2 4.3.4 2.7.2-1.5.2-3.9 0-5.5-.2-1.5-.4-.2-.4 2.8zM232.3 464.5c-.1 2.7.3 6.3.7 8l.8 3v-3c0-1.7-.3-5.3-.8-8l-.7-5v5zM248.2 465.5c-.3 5.8-3.7 23.5-4.4 23.5-.4 0-.8 2.8-.8 6.2 0 4.5-.3 5.9-1 4.8-.5-.8-1-2.9-1.1-4.5 0-1.7-.3-2.4-.6-1.7s-.2 2.9.2 4.8c.7 4 2.8 4.2 3.3.3.4-4.2 3.2-19.2 4.3-23.4.6-2.2.9-6.1.6-8.5-.2-2.9-.4-3.4-.5-1.5zM218.6 472.5c-1.4 15.2-1.5 17.2-.7 14 .5-1.7.9-5 1-7.5.1-3 .4-4 1-3.1.5.8.7-.5.4-3.5-.7-7.5-.9-7.5-1.7.1zM300.3 471.8c-3.2 3.2-7.9 7.3-10.5 9.1-9.4 6.7-12.4 19.3-7.8 32.6 1.2 3.5 2.1 8.8 2.2 13.4.1 4.5.3 5.8.5 3.1.2-2.5 1.1-6.8 2-9.6 1.6-5 1.6-5.4-.5-11.6-2.4-7.1-2.8-13.7-1.1-17.1.7-1.2 4.4-5.6 8.3-9.7 7.2-7.6 14.2-16 13.3-16-.3 0-3.1 2.6-6.4 5.8zM524.5 469.9c.4 1.4 3 6.3 5.8 11 3.2 5.4 5.2 10 5.5 12.8.4 3.9-.9 17.5-2.4 25.5-1.7 8.9 5.6-5.6 7.7-15.2 1.4-6.4-.1-12.9-4.1-18.5-1.6-2.2-4.2-6.3-5.9-9.1-1.7-2.8-4-5.9-5.2-7-2.2-1.9-2.2-1.9-1.4.5zM366.7 473.9c-.9 1.6-1.7 3.6-1.7 4.5 0 2.5-4 9.8-6.6 12.3-1.5 1.4-2.4 3.3-2.3 5l.1 2.8 1.3-3.1c.8-1.7 2-3.6 2.8-4.2 1.2-1 1.4-.8 1 1.5-.2 1.6.3.8 1.1-1.7.9-2.4 1.3-4.6 1.1-4.8-.2-.3.5-2.2 1.6-4.3 1.1-2.2 1.7-3.9 1.3-3.9-.3 0 .3-1.6 1.5-3.5 1.1-1.9 1.7-3.5 1.3-3.5-.4 0-1.5 1.3-2.5 2.9zM374.3 473.9c-2 3.5-3.3 4-3.4 1.3 0-2.5-3.9 7.4-4.9 12.7-.4 2.4-.4 5.4 0 6.5.9 2.1.9 2.1.9-.1.1-1.2.6-2.5 1.1-2.8 1.3-.8 1.3 3.6 0 6.9-1.7 4.7-.2 2.7 2.4-3 2.9-6.3 3.2-7.8 1.2-5.1-1.3 1.6-1.4 1.3-1.2-3.2.3-5.5-.7-6-1.9-.9-.5 2.3-.9 2.8-1.2 1.5-.5-1.9 3-9.5 4-8.7.7.6 6-7.1 5.3-7.8-.3-.2-1.3.9-2.3 2.7zM389.1 473.8c-1.4 1.5-2.6 3.4-2.7 4.2-.1.8-.9 3.3-1.8 5.5-1.4 3.3-1.4 3.7-.1 2.1.8-1.1 1.5-2.5 1.5-3.1 0-.6.5-1.6 1.1-2.2 1-1 5.1-9.3 4.6-9.3-.1 0-1.3 1.3-2.6 2.8zM223 474.4c-.5 1.3-1.1 4.1-1.4 6.2-.6 3.8-.6 3.8.8-.6.7-2.5 1.7-5.3 2.1-6.3.4-.9.4-1.7.1-1.7-.4 0-1.1 1.1-1.6 2.4zM241.3 477c0 3 .2 4.3.4 2.7.2-1.5.2-3.9 0-5.5-.2-1.5-.4-.2-.4 2.8zM363.4 475.4c-1 2-2.2 3.6-2.7 3.6-2.1 0-8.2 10-7.5 12.2.2.6 1.7-1.5 3.3-4.7 1.6-3.1 3.5-6 4.2-6.2 1.6-.6 5.7-7.2 5-8-.4-.3-1.4 1.1-2.3 3.1zM380.9 475.2c-.8 1.8-1.3 3.6-1.2 4 .2.4-.8 1.9-2 3.2-1.4 1.5-2.4 3.8-2.4 5.5 0 2.6.2 2.8 1.9 1.8 1-.7 1.8-2 1.8-3s.7-3.1 1.5-4.8c.9-1.6 1.3-3.4 1-3.9-.3-.5-.1-1.9.5-3.1.7-1.1 1-2.3.7-2.5-.2-.3-1 1-1.8 2.8zM451.5 475.7c.3 2.3 0 3.5-1.1 4.1-1.3.7-1.4 1.5-.4 5 .6 2.3 1.6 4.2 2.2 4.2.9 0 .9-.3 0-1.2-1.5-1.5-1.6-6-.1-7.5.7-.7.7-2 0-4.4l-1.1-3.4.5 3.2zM392.6 475.5c-.9 2.6-.7 3.2.5 1.2.6-1 .9-2.1.6-2.3-.2-.3-.7.2-1.1 1.1zM396.4 476.5c-.4 1.7-.9 2.3-1.4 1.5-.5-.8-1.6 1-2.9 4.5-1.2 3.2-2 6-1.7 6.2.2.2 1.2-2 2.2-4.9 1.7-4.9 1.9-5.1 2.2-2.3.4 2.7.5 2.5 1.7-2 .7-2.8 1.2-5.2 1-5.4-.2-.2-.7.9-1.1 2.4zM454.5 476.1c1 3.5 2.3 4.5 1.8 1.5-.3-1.5-1-2.9-1.5-3.2-.6-.4-.7.2-.3 1.7zM579.2 476c0 1.4.2 1.9.5 1.2.2-.6.2-1.8 0-2.5-.3-.6-.5-.1-.5 1.3zM228.7 478.8c-.3 2-.9 4.8-1.2 6.2-.3 1.4.1.7 1-1.4.8-2.1 1.9-4.4 2.4-5 .6-.7.4-1.6-.4-2.3-1-.9-1.4-.4-1.8 2.5zM236.5 478.6c-.9 5-.1 5.2 1.2.4.5-2.2.7-4 .3-4-.4 0-1.1 1.6-1.5 3.6zM354.7 477.9c-1.4 1.6-3.5 4.7-4.7 6.8-1.4 2.6-1.9 3-1.5 1.3.6-2.2.4-2.2-1.3.6-1.1 1.8-2.5 3.5-3.1 3.8-.6.4-1.1 1.2-1.1 1.8 0 .7.6.6 1.5-.2 1.7-1.4 1.8-1 .6 2.2-2.6 7.2-1.5 7.2 1.9 0 2.2-4.6 4-8.8 4-9.2 0-.5.6-1.5 1.3-2.2 1.7-1.8 5.9-7.8 5.4-7.8-.2 0-1.5 1.3-3 2.9zM459 475.7c0 .5.7 1.7 1.5 2.7.8 1.1 1.5 4 1.5 6.5s.4 5.1.8 5.8c1.5 2.4.3-9.6-1.3-12.6-1.5-3-2.5-3.9-2.5-2.4z" />
          <path d="M374.6 480.2c-1 2.6-1.6 5.2-1.3 6 .4.8.6.7.6-.5.1-1 .8-3.2 1.7-4.8.8-1.7 1.3-3.6 1.1-4.2-.2-.6-1.2.9-2.1 3.5zM445.7 477.7c-.5 1.3-1.3 2.3-1.8 2.3s-.9 1.8-.9 4-.4 4-1 4c-.5 0-1 1.9-1 4.2 0 3.7 1.1 4.7 1.6 1.4.4-2.9 1.6-5.6 2.4-5.6 1.2 0 2.3-5.9 1.8-9.6-.3-2.7-.4-2.8-1.1-.7zm-.1 6.9c-.4 1.4-.9 2.4-1.2 2.1-.3-.2-.2-1.7.2-3.1.3-1.5.9-2.5 1.1-2.2.3.3.2 1.7-.1 3.2zM466 476.5c0 .3.7 2.2 1.5 4.2 2.1 5.1 1.7 6.6-.5 1.8-1-2.2-1.9-3.3-1.9-2.5 0 .8.6 2.6 1.4 4 .8 1.4 1.5 5.2 1.6 8.5.1 4.3.3 5.3.8 3.5.4-1.4.6-4.1.3-6.1-.3-2.6 0-3.8 1.1-4.2 1-.4 1.8.1 2.2 1.4.9 2.9 2.3 2.3 1.8-.9l-.4-2.7 2.1 2.5c1.7 1.9 2.1 3.3 1.7 6.1-.4 3.3 1.4 9.9 2.8 9.9.3 0 .1-.9-.5-1.9-1.6-3-1.2-4.9.5-2.7.8 1.1 1.5 1.4 1.5.8 0-2.5 1.6-1 3.2 3 1 2.3 2.1 3.8 2.4 3.5.4-.4.2-1.2-.4-2-1-1.1-2.2-5.6-2.6-9.7 0-.8.4-1.5 1.1-1.5 2.3 0 2.3-1.3-.3-6.6-2.4-5-2.5-4.5-.8 2.6.3 1.4.2 2.5-.4 2.5-.5 0-1.3 1.6-1.7 3.6-.7 4.2-2.1 3.5-3.1-1.5-.5-2.5-.4-3.2.4-2.7 1.7 1 1.5-1.7-.4-5l-1.6-2.9.6 3c.6 2.8.5 2.9-.9 1-.8-1-2.1-3.4-2.7-5.2-1.3-3.5-3-4.6-2.1-1.4.3 1.1.1 2.7-.4 3.6-.8 1.4-1.1 1.3-2-.7-.6-1.3-1.4-3.1-1.7-4.1-.5-1.5-2.6-2.5-2.6-1.2zM347.9 479.9c-.9.9-2 2.7-2.4 4-.6 1.8-.9 2-1.6 1-.7-1.1-.9-1.1-.9.3 0 .9-1 3.8-2.1 6.5-1.2 2.6-2.3 6.1-2.4 7.8l-.3 3 1.4-3.3c.8-1.7 1.9-3.2 2.5-3.2.7 0 .9-1 .5-2.4-.3-1.4-.2-2.7.3-3 1.1-.7 7.4-11.7 6.9-12.1-.2-.1-1 .5-1.9 1.4zM458.2 479.5c-.1 1.1.3 3.8.7 6l.9 4V486c0-1.9-.4-4.6-.8-6-.6-2-.8-2.1-.8-.5zM399.1 481.2c-.4 1.3-1.1 4.3-1.5 6.6-.6 4-.5 4.3 1 2.8 2-2.1 4-1 2.2 1.2-.6 1-2.3 3-3.7 4.7-1.4 1.6-1.9 2.4-1.1 1.7 1.9-1.6 2.8-1.5 3.3.5.3 1.2.5.9.6-.8 0-1.5.7-3.2 1.5-3.8.8-.7 1.4-2.4 1.4-3.9-.1-1.5.2-3.8.5-5.2.6-2.2.5-2.2-.5.2-.7 1.6-1.8 2.8-2.5 2.8-1.3 0-1.2-1.5.4-7.3.7-2.5-.6-2.1-1.6.5zM338.8 484.7c-.9 2.1-2.3 5.5-3.2 7.5-.8 2.1-1.9 3.8-2.4 3.8-.6 0-1.3 1.1-1.6 2.4-.3 1.3-.8 3.2-1.2 4.3-.3 1 .4.1 1.6-2 2.9-5.2 4.3-4.6 2 .8-1.1 2.5-1.6 4.5-1.2 4.5 1.4 0 4.6-9.9 5.3-16.5.1-.6 1-2.7 2-4.8 1.1-2 1.6-3.7 1.1-3.7-.4 0-1.5 1.7-2.4 3.7zM406.4 488c-.1 4.1.2 6.6.6 5.5.5-1.5.9-.8 1.4 2.7.6 3.9 1.2 4.9 3.1 5.4 2.9.7 5.4-.4 3.5-1.6-.9-.6-1.1-2.2-.5-5.6.5-3.3.9-4.3 1.6-3.3.7 1.1.9 1.1.9-.4 0-2.1-2.6-2.3-3.4-.1-.3.9-.6 2.8-.7 4.2 0 2.4-.1 2.5-.9.7-.5-1.1-.9-4-1-6.5l-.1-4.5-1.4 3-1.4 3 .5-3c.4-2.2.3-2.6-.4-1.6-.8 1.1-1.1.7-1.4-2-.2-1.9-.4 0-.4 4.1zM453.1 482.6c0 1.1.3 1.4.6.6.3-.7.2-1.6-.1-1.9-.3-.4-.6.2-.5 1.3zM387.6 482.8c-.3.5-.8 2.9-1 5.3-.5 4.3-.4 4 1.4-2.9.8-3.1.7-4.1-.4-2.4zM569.7 495.3c-3.7 7.3-10.3 20.2-14.7 28.7-8.8 17.2-19.1 42.6-24.2 59.7-3.1 10.6-5 13.6-6.1 9.5-.3-.9-.5.1-.6 2.3-.2 4.7-2.6 9.9-3.5 7.5-.3-.8-.7-4-.8-7l-.3-5.5-1.1 6.5-1.1 6.5-.3-7c-.2-4.4-.5-5.7-.7-3.5-.6 4.9.7 16.1 1.8 15.5.5-.4 1-1.6 1-2.8.1-1.6.3-1.4.8.8l.6 3 1.4-3.3c2-4.7 3-3.9 1.8 1.5-1 5-3.6 8.1-4.9 6-.4-.7-.7.6-.7 2.8.1 2.2.4 3.1.6 2 .8-3.3 2.5-4.8 3.4-3.3.7 1 .9.9.9-.5 0-.9.5-1.7 1-1.7.6 0 1-.9 1-2.1 0-2.9 5.9-21.7 7.1-22.4 1.5-1 1 1.8-.7 4.3-.9 1.4-1.1 2.2-.4 2.2.6 0 .9.8.6 1.7-.3 1-.8 3.1-1.1 4.8-.5 2.8-.4 2.8.9-.5.8-1.9 1.5-4.9 1.5-6.7.1-3.8 1.8-5.3 2.4-2.1.3 1.8.5 1.6.6-.8.1-1.9 1.2-4 3.1-5.9 3.3-3.1 3.3-5 0-2-1.9 1.8-2.9.8-1.1-1 1.7-1.8 5-18.2 4.4-21.8-.4-2.9.8-6.2 7.4-20.3 4.4-9.3 10.5-21.3 13.5-26.7 6-10.5 7-10.6 6.4-.8-.2 2.5-.1 3.3.1 1.7.4-2.3.7-2.7 1.5-1.5.7 1 .8.6.4-1.6-1.9-9.2-1.8-10.1.7-15.1 2.5-4.9 5.2-13.3 4.5-14-.2-.2-3.4 5.6-7.1 12.9zm-29.8 77.1c-1.2 5.6-1.4 5.8-2 3.1l-.7-3-.1 3.2c0 1.8-.5 3.3-1.1 3.3-1.4 0-1.3-.6 1.7-9.5 3.2-9.1 4.4-7.4 2.2 2.9zm-5.7 12.5c.2 1.7.1 2.8-.4 2.5-.8-.5-1.2-5.4-.4-5.4.2 0 .6 1.3.8 2.9zm-8.1 13.8c-1.2 2-1.4 1.4-.5-1.2.4-.9.9-1.4 1.1-1.1.3.2 0 1.3-.6 2.3zM235.2 486c0 1.4.2 1.9.5 1.2.2-.6.2-1.8 0-2.5-.3-.6-.5-.1-.5 1.3zM333 486.4c-.5 1.5-1 3-1 3.4 0 .4-1 1.8-2.1 3.2l-2.1 2.5.6-2.7c.3-1.4.8-3.4 1.1-4.5.3-1-.2-.2-1.1 1.7-.9 1.9-1.7 5.1-1.8 7-.2 1.9-1 5.3-1.9 7.4-1 2.2-1.6 4.1-1.3 4.3.2.2.9-1 1.6-2.6.6-1.6 2-3.7 3.1-4.7s1.7-2.4 1.4-3.3c-.2-.9 0-2.3.5-3.1.5-.8 1-1.1 1-.5 0 .5.9-1.5 2-4.5 1.9-5.5 1.9-8.6 0-3.6zM351.6 487.7c-.9 2.1-1.9 5.1-2.2 6.7-.3 1.6-1 3.8-1.5 4.8-.6 1.1-.8 2.2-.5 2.5.6.7.7.5 4-9.7 2.7-8.3 2.8-10 .2-4.3zM428.3 488.5c0 2.7.2 3.8.4 2.2.2-1.5.2-3.7 0-5-.2-1.2-.4 0-.4 2.8zM578.3 490c0 3.6.2 5 .4 3.2.2-1.7.2-4.7 0-6.5-.2-1.7-.4-.3-.4 3.3z" />
          <path
            className="Lips"
            d="M324.7 488.9c-.9 2.1-2.1 4.2-2.7 4.6-1.3.8-5 8-6.1 12l-.8 3 2.4-2.8c3.2-3.6 3.3-1.8.1 2-1.2 1.5-2.8 3.8-3.5 5-1.5 3-1.3 9.3.4 12.3 1.4 2.5 1.4 2.5 1.5.2 0-1.2.4-2.2.8-2.2.5 0 1.4 1 2 2.2 1 2.2 1.1 2.2 1.2.3.1-1.5.7-.9 2.3 2 2.9 5.4 23.3 35.5 28.9 42.7 11.9 15.2 27.3 22.4 46.3 21.6l7-.3-12-2.7c-22.8-5-25.6-6.9-42.8-28-7.7-9.5-26.7-39.7-26.7-42.5 0-1.1.6-1.4 2.3-.9 1.2.3 3.6.6 5.4.6h3.2l.3 6.2c.2 4.1.7 6.3 1.6 6.4.6.1 1.6.2 2 .3.5 0 1.4 1.2 2 2.5 1.9 4.2 20 15.2 38.9 23.7 21.9 9.9 24.4 10.5 37.5 8.9 31.3-3.6 56.5-18.3 72.3-42.3 3.4-5.1 4.1-5.7 7.2-5.7h3.5l-2.2 3.5c-1.2 1.9-5.2 10.9-9 20-7.4 18-12.8 27.2-19.5 33.4-7.9 7.3-26.7 15.3-38.7 16.6-12.8 1.3-8.3 4.1 5.3 3.3 7.3-.4 9-1 19.2-6.1 12.6-6.3 19.7-12 25.2-20.3 5.6-8.4 12.7-23.4 17.5-36.9 2.4-6.6 4.5-12.2 4.8-12.5.2-.3.2 1.6 0 4.2-.5 4.3-.4 4.6 1.2 3.8 2.6-1.4 4.3-6.4 3.7-10.7-.3-2.1-.8-5.4-1.1-7.3-.5-2.9-.4-3 .3-1 .9 2.5.9 2.5.9-.5 0-1.7-.3-3.9-.7-5-.7-1.7-.9-1.6-1.5 1.3-.4 1.8-1.2 3-1.7 2.6-.5-.3-.7-.9-.5-1.3.3-.4.1-2.1-.4-3.7-.8-2.3-.9-1.3-.7 4.3.2 5.6-.1 7.3-1.1 7.3-.7 0-13.5-2.3-28.4-5.1l-27.1-5.1-9.2 3.1c-11.3 3.9-15.3 3.9-25.7.1-4.7-1.7-10.2-3-12.8-3-4 0-40.4 4.4-68.2 8.2-4.8.6-9 .9-9.4.6-.9-1 2.4-11.4 4.1-12.8 2.2-1.8 1.8-3.2-.7-2.5-2 .5-2.1.4-.7-.7 1.6-1.4 5.3-9.7 4.6-10.5-.3-.2-1.2 1.4-2 3.6zm83 19.7c9.8 3.9 19.2 3.9 29.5 0l7.6-2.8 23.1 4.3c12.7 2.4 23.1 4.6 23.1 4.9 0 .3-12.9 2.2-28.7 4.1-35.5 4.2-53.8 4.5-73.8 1.1-15-2.5-41.1-5.1-52.9-5.3l-8.1-.1 8.5-1.5c15.4-2.5 52.4-7.1 58.7-7.2 4.6-.1 8.1.6 13 2.5zM347 520.7c-.1 2.1-1.1 3.5-4.1 5.6-5.4 3.8-6.9 3.1-6.9-3.3v-5h5.5c5.3 0 5.5.1 5.5 2.7zm14.4 4.2c-.2 6.1-2.1 8.7-7 9.7-5.5 1.1-7.3-2.6-5.8-11.9l.7-3.8 6.1.3 6.1.3-.1 5.4zm122.6-3.1c0 3.2-2.5 7.2-4.6 7.2-1 0-1.4-1.2-1.4-4.4 0-4.6-.1-4.5 5.3-5.5.4 0 .7 1.1.7 2.7zm-107.1-.4l6.4 1.1-.2 8c-.1 4.3-.5 8.3-.7 8.7-1.7 2.7-15.1-.7-18.3-4.6-1.4-1.6-1.1-11.2.4-13.6.8-1.2 4-1.1 12.4.4zm99.5.1c.9 2.4-.5 10.8-2.2 12.7-2.4 2.8-3.2 1.2-3.2-6.2 0-6.9.1-7.2 4.1-7.9.4 0 .9.6 1.3 1.4zm-7.6 6.3c-.2 4.3-1 7.9-2.1 9.5-1.7 2.6-1.9 2.7-4.6 1.3-2.3-1.3-2.9-2.3-3.4-6.2-.7-6.8.4-9.8 3.9-10.5 6.7-1.5 6.7-1.6 6.2 5.9zm-70.4-3.4c6.1.8 10.1 1.8 10.7 2.7.5.8.9 5.7.9 11v9.6l-3.7.7c-7.4 1.2-17.7.7-20.1-1-2-1.4-2.2-2.2-1.8-6.2.2-2.6.5-7.7.5-11.5.1-7.7-1.2-7.2 13.5-5.3zm57 2.1c1.1 2.3 1.6 5.4 1.4 8.7l-.3 5.2-6.5 1.7c-3.6 1-7.7 1.8-9.3 1.8l-2.7.1.5-5.8c1.5-14.9 1.1-14 5.8-14.5 9.7-.8 9.4-.9 11.1 2.8zm-19.4 1c1.4 2.6.8 19.1-.7 20.6-1.7 1.7-15 3.1-19.2 1.9l-4.1-1.1V541c0-5.3.5-9.1 1.7-11.4 1.6-3.4 1.8-3.5 8.2-3.9 3.6-.2 8-.4 9.7-.5 2.3-.2 3.4.4 4.4 2.3zm-23-.5c0 .5-.4 1-1 1-.5 0-1-.5-1-1 0-.6.5-1 1-1 .6 0 1 .4 1 1zm11.4 30.6c.3.9.6 2.2.6 2.9 0 1.7-6 3.5-11.2 3.5-3.2 0-3.9-.4-4.4-2.5-.4-1.4-.4-2.8-.2-3 .4-.5 9.8-2.2 12.9-2.4.9 0 2 .6 2.3 1.5zm11.1.3c-6.9 3.1-8.5 3.4-8.5 1.7s4.7-3.4 9.5-3.4c3-.1 2.9 0-1 1.7zm-28.5 1c0 1.1.3 2.6.6 3.5 1.3 3.5-9.3.8-15.1-3.8-1.9-1.4-1.4-1.5 6.3-1.6 7.4 0 8.2.2 8.2 1.9z"
          />
          <path d="M394.3 488.5c0 2.2.2 3 .4 1.7.2-1.2.2-3 0-4-.3-.9-.5.1-.4 2.3zM431.8 486.5c-.3 1.1-.9 2.9-1.3 4-.7 1.9-.7 1.9.9.4 1-.9 1.6-2.7 1.4-4-.3-2.2-.4-2.2-1-.4zM437.6 490.2c.9 7 1.4 7.4 1.4 1 0-2.8-.5-5.4-1-5.7-.8-.5-.9 1-.4 4.7zM490.7 486.3c-.8 2 .9 6.1 2.2 5.3 1.3-.8 3.1 4.1 3.1 8.4 0 2.1.4 4.1.9 4.4 1.3.8 2.1-1.8 1-3.5-.5-.8-.9-2.6-.9-4s-1.1-3.8-2.4-5.2c-1.4-1.5-2.6-3.7-2.8-4.9-.3-2-.4-2.1-1.1-.5zM319.6 488.7c-.7 1.6-1.7 4.3-2.1 6-.3 1.8-2 5.6-3.6 8.5-1.9 3.6-2.8 6.6-2.8 9.3l.2 4 .6-4c.4-2.2 1.8-6.3 3.1-9 2.4-5.1 6.9-17.5 6.4-17.5-.2 0-1 1.2-1.8 2.7zM418.4 489.3c.3 1 .6 3.3.6 5.1 0 5.2 2.7 4.2 3.2-1.1.2-2.4 0-4.3-.4-4.3-.5 0-.8.6-.8 1.2 0 .8-.8.4-1.7-.7-1.4-1.8-1.5-1.8-.9-.2zM447.7 491.8c-.3 2-.8 4.6-1.1 5.7-.4 1.1 0 .6.8-1 .8-1.7 1.5-2.5 1.6-1.9 0 .5.7 1.9 1.5 3 1.3 1.7 1.3 1.5 0-1.8-.8-2-1.2-4.3-.9-5.1.3-.8.1-1.8-.4-2.1-.5-.3-1.2 1.1-1.5 3.2zM455.7 492.2c.8 4.6 1.3 4.8 1.3.5 0-2.1-.4-3.7-1-3.7-.5 0-.7 1.4-.3 3.2zM218.2 492c0 1.4.2 1.9.5 1.2.2-.6.2-1.8 0-2.5-.3-.6-.5-.1-.5 1.3zM225 493c.1 1.9.7 4.6 1.4 6 1.3 2.3 1.4 2.1.9-2.5-.6-5.9-2.3-8.5-2.3-3.5zM459.7 490.7c-.9.9-.9 4.1.1 4.6.4.3.7-.8.8-2.4.1-3.1.1-3.2-.9-2.2zM474.2 496c0 6.3.1 6.3.8 2 .4-2.5.4-5.4-.1-6.5-.5-1.3-.8.3-.7 4.5zM246.1 494.5c-.1 2.2-.4 5.7-.7 7.7-.4 2.4-.3 3.8.4 3.8 1.2 0 2.1-10.7 1.1-13.5-.6-1.5-.8-.9-.8 2zM308.9 498.2c-1.2 4-2.3 10-2.4 13.3l-.2 6 2.2-9.5c2.4-10.3 3.6-17 3-17-.2 0-1.4 3.3-2.6 7.2zM389.5 494.4c-.4 2-.5 4-.1 4.3.3.4.6-.3.6-1.3 0-1.1.4-2.4 1-3 .5-.5.6-1.5 0-2.3-.6-1.1-1-.4-1.5 2.3zM424 495.8c0 3 .4 5.2 1.1 5.2.7 0 .8-1.6.3-4.8-.9-6.4-1.4-6.6-1.4-.4zM433.2 493.5c0 1.6.2 2.2.5 1.2.2-.9.2-2.3 0-3-.3-.6-.5.1-.5 1.8zM313 495c-.7 1.7-1 3.3-.8 3.6.3.3 1.1-.9 1.7-2.7.6-1.8.9-3.4.7-3.6-.2-.2-.9 1-1.6 2.7zM374.1 495.1c-.6 1.8-1.1 3.7-1 4.3 0 .6.7-.7 1.5-2.8.8-2.2 1.2-4.1 1-4.3-.2-.2-.9 1-1.5 2.8zM379.7 492.7c-.4.3-.6 2.2-.6 4.2l.1 3.6.8-4c.8-4.2.8-4.9-.3-3.8zM382.1 495.6c-.6 2.1-.9 4-.6 4.2.2.2.8-1.3 1.4-3.4.6-2.1.9-4 .6-4.2-.2-.2-.8 1.3-1.4 3.4zM498.1 494c1.4 3.1 1.9 3.6 1.9 2.4 0-.6-.7-1.9-1.6-3-1.4-1.8-1.4-1.8-.3.6zM518.6 493.5c.3 1.1.9 4.4 1.2 7.2.2 2.9.8 5.1 1.2 4.8 1-.6-.6-10-2-12.2-1-1.6-1.1-1.6-.4.2zM353.1 494.8c-.6 1.2-1.1 3.1-1.1 4.4.1 1.7.5 1.2 1.5-1.7 1.5-4.3 1.3-5.9-.4-2.7zM431.1 494.6c0 1.1.3 1.4.6.6.3-.7.2-1.6-.1-1.9-.3-.4-.6.2-.5 1.3zM502 493.6c0 .5.7 1.8 1.5 2.8.8 1.1 1.5 1.6 1.5 1 0-.5-.7-1.8-1.5-2.8-.8-1.1-1.5-1.6-1.5-1zM513.1 493.9c0 .8-.9 2-1.8 2.7-1.5 1.1-2.1 1-3.6-.9-1.8-2.2-1.8-2.2-.6.5 1.3 3 2.8 3.5 4.6 1.7.8-.8 1.1.5 1.1 4.8v5.8l-1.2-3.7c-1.6-5.2-2.5-5.6-1.5-.6.4 2.4.8 4.7.9 5.1 0 .5.9.5 2.1.2 1.8-.6 2-.4 1.5 1.4-1.5 5.3-1.4 6.3.2 2.7 1.5-3.2 2-3.7 2.5-2.2.4 1 .7 2.5.6 3.4-.1 1-.4.7-.9-.8l-.8-2.5v2.5c0 1.4.3 3.4.7 4.5 1.3 3.1 2.3-6.2 1.2-10.5-.5-1.9-.9-2.9-1-2.3-.1.7-.5 1.3-1.1 1.3-.5 0-1.1-1.9-1.1-4.3-.1-4.2-1.6-11.4-1.8-8.8zM233.1 494.8c-.1.7.4 2.3 1.1 3.5.6 1.2 1.5 3.5 1.9 5.2.6 2.4.7 1.9.7-2.5 0-3.6-.2-4.8-.7-3.5-.7 1.8-.9 1.7-1.9-1-.6-1.7-1.1-2.4-1.1-1.7zM229.6 496.5c-.3.9-.5 3.5-.5 5.8.2 4 .2 3.9.9-1.3.7-5.9.6-7.1-.4-4.5zM293 500.2c0 3.2.4 5.8.9 5.8s1.2.8 1.5 1.7c.3 1 .4-.8.1-3.9-.5-8.3-2.4-11-2.5-3.6zM298.1 497.2c-.6 1.6-.6 5.3 0 9.8.5 4 .6 7.7.2 8.3-.4.6-.1.7.7.2.8-.5 1-2.1.7-4.8-.3-2.3-.2-3.5.2-2.8.7 1.1 1 1.1 1.4 0 .3-.8.6 0 .6 1.8.2 6.1 1.6 4.1 1.6-2.2 0-3.5-.3-6.1-.7-5.8-.5.2-.8-.8-.8-2.4v-2.8l-2 2.5c-2.1 2.7-2.6 2.1-.9-1.2.6-1.1.8-2.2.5-2.5-.3-.3-1 .5-1.5 1.9zm1.6 8c-.3.8-.6.5-.6-.6-.1-1.1.2-1.7.5-1.3.3.3.4 1.2.1 1.9zM305 499.5c0 2.8.4 4.4 1 4 .6-.3 1-2.1 1-4s-.4-3.7-1-4c-.6-.4-1 1.2-1 4zM490.5 498.9c.3 2.4 1 5.1 1.5 6 1.2 2.1.5-3.1-1-7.4-.9-2.7-.9-2.6-.5 1.4zM222.6 498.5c-.3.9-.6 2.2-.5 2.8 0 .7.5.1 1-1.2s.8-2.6.5-2.8c-.2-.2-.6.3-1 1.2zM290.9 502.7c-.2 1.6-.1 5.5.2 8.8.5 5.7.6 5.6.7-2.8.2-8.6-.2-11.3-.9-6zM573.1 506.2c-.1 2.6.4 5 .9 5.3 1.2.8 1.2-5.2 0-8-.6-1.5-.9-.8-.9 2.7zM221.3 506.5c0 2.2.2 3 .4 1.7.2-1.2.2-3 0-4-.3-.9-.5.1-.4 2.3zM522.1 509.3c-.1 2.1-.8 5.1-1.6 6.7-.9 1.7-1.3 3-1 3 .2 0 1.4-1.8 2.5-4.1 1.7-3.2 1.9-4.6 1.1-6.7-.9-2.6-.9-2.6-1 1.1zM230.3 512c0 2.5.2 3.5.4 2.2.2-1.2.2-3.2 0-4.5-.2-1.2-.4-.2-.4 2.3zM525.6 510.5c-.3.9-.5 2.9-.5 4.3.1 2 .3 1.7.9-1.3.8-4.3.7-5.7-.4-3zM236.2 513.7c-.6 2.1-1.1 5.8-1 8.3 0 3.9.2 4.2 1 2.1.5-1.4.6-3.1.3-3.9-.3-.8 0-3.2.6-5.4 1.3-5.1.6-6-.9-1.1zM241.3 514c0 2.5.2 3.5.4 2.2.2-1.2.2-3.2 0-4.5-.2-1.2-.4-.2-.4 2.3zM249.3 516.5c0 2.2.2 3 .4 1.7.2-1.2.2-3 0-4-.3-.9-.5.1-.4 2.3zM226.2 517c-1 2.1-1 3.4-.3 4.7.9 1.5 1.1 1.2 1.2-1.7l.2-3.5.7 4 .7 4 .1-3.5c0-1.9-.3-4.3-.6-5.2-.6-1.5-.9-1.3-2 1.2zM295.2 517c0 1.9.2 2.7.5 1.7.2-.9.2-2.5 0-3.5-.3-.9-.5-.1-.5 1.8zM243.4 519.4c-.3 1.9-.4 4.1-.1 4.8.3.7.6 0 .6-1.5.1-1.6.6-3.7 1.1-4.8.7-1.2.7-1.9.1-1.9s-1.3 1.6-1.7 3.4zM251.6 518.6c-.4 1.4-.5 2.9-.2 3.1.3.3.8-.7 1.2-2.1.3-1.5.4-2.9.1-3.2-.2-.3-.8.7-1.1 2.2zM238.3 527.5c0 2.7.2 3.8.4 2.2.2-1.5.2-3.7 0-5-.2-1.2-.4 0-.4 2.8zM563.9 525.5c1.7 5.4 2.1 6.1 1.6 2.5-.3-1.9-1-3.9-1.5-4.4-.7-.7-.7-.1-.1 1.9zM560.4 534.2c-.1 9.1 0 9.5.5 3.3.4-4.1.9-6.2 1.2-5l.7 2v-2c0-1.1-.5-3.5-1.1-5.3-1.1-2.9-1.2-2.1-1.3 7zM250.3 529c0 2.5.2 3.5.4 2.2.2-1.2.2-3.2 0-4.5-.2-1.2-.4-.2-.4 2.3zM531.1 527.6c0 1.1.3 1.4.6.6.3-.7.2-1.6-.1-1.9-.3-.4-.6.2-.5 1.3zM229.1 531.1c-.1 3.2.3 3.8 2.8 4.9 2 .8 3.1 2.1 3.4 3.8.2 1.5.4.2.4-2.8s-.2-4.5-.4-3.3c-.2 1.3-.8 2.3-1.2 2.3-1.8 0-4-2.8-4.4-5.5-.4-2.8-.4-2.7-.6.6zM253.1 530.6c0 1.1.3 1.4.6.6.3-.7.2-1.6-.1-1.9-.3-.4-.6.2-.5 1.3zM530.2 533c0 1.9.2 2.7.5 1.7.2-.9.2-2.5 0-3.5-.3-.9-.5-.1-.5 1.8zM244.1 532.6c0 1.1.3 1.4.6.6.3-.7.2-1.6-.1-1.9-.3-.4-.6.2-.5 1.3zM282.2 535c0 1.9.2 2.7.5 1.7.2-.9.2-2.5 0-3.5-.3-.9-.5-.1-.5 1.8zM254 537.8c0 2.1-.4 4.2-.9 4.7-1 1.2-3.2 9.8-2.6 10.3.2.3.9-1.6 1.6-4.2.6-2.5 1.5-4.3 2-4 .5.3.9-2 .9-5 0-3.1-.2-5.6-.5-5.6s-.5 1.7-.5 3.8zM244.7 537.1c-.3 1.2-.4 3.4-.1 4.9.3 1.4-.1 4.4-1 6.4-.9 2.1-1.5 5.5-1.5 7.5.1 3.5.2 3.4 1.3-1.4.6-2.8 1.4-5.5 1.8-6.1.6-.9.8-13.4.2-13.4-.1 0-.4 1-.7 2.1zM240.7 540.5c.3 2.7.7 5.2.9 5.4.7.8.2-5.4-.6-7.9-.6-1.7-.7-.9-.3 2.5zM250.2 539c0 1.9.2 2.7.5 1.7.2-.9.2-2.5 0-3.5-.3-.9-.5-.1-.5 1.8zM526.6 539.1c-.8 4.2 0 5 .9.9.4-1.7.5-3.4.2-3.6-.2-.3-.7 1-1.1 2.7zM285.1 540.2c-.7 1.2-1.5 4.2-1.8 6.7-.4 4-.3 4.4 1.1 3.2 1.7-1.5 2.2-3.6.6-2.6-1.3.8-1.3.5.5-4.5 1.7-4.9 1.6-5.9-.4-2.8zM553.2 544c0 1.4.2 1.9.5 1.2.2-.6.2-1.8 0-2.5-.3-.6-.5-.1-.5 1.3zM256.6 547.6c-.4 2-.5 3.8-.3 4 .3.3.8-1.1 1.1-3.2.4-2 .5-3.8.3-4-.3-.3-.8 1.1-1.1 3.2zM259 544.5c0 .5.5 1.7 1 2.5s1 1 1 .5c0-.6-.5-1.7-1-2.5s-1-1.1-1-.5zM276.6 546.2c-.3 1.3-.5 3.2-.5 4.3.1 1.1.5.2 1-1.9 1-4.2.6-6.2-.5-2.4zM522.5 553.5c-.4 5.3-.5 9.8-.2 10.1.3.3.8-3.8 1.2-9.1.4-5.3.5-9.8.2-10.1-.3-.3-.8 3.8-1.2 9.1zM269.7 549.2c-.9 2.3-1.5 4.4-1.2 4.6.4.5 1.5-1.9 2.9-6.6 1.2-3.8 0-2.4-1.7 2zM263 551c-.6 2.3-.9 4.4-.7 4.6.2.3.9-1.4 1.5-3.8.6-2.3.9-4.4.7-4.6-.2-.2-.9 1.5-1.5 3.8zM555.1 548.3c-.7.9-1.1 2.6-.9 3.9.4 2.2.5 2.2 1.7-.6 1.4-3.5 1-5.4-.8-3.3zM283.7 554.1c-1 1.8-1.6 3.4-1.4 3.6.3.2 1.4-1.2 2.5-3.2 1.2-1.9 1.8-3.5 1.4-3.5-.4 0-1.5 1.4-2.5 3.1zM278.6 555.7c-.3 2.1-.1 5.6.3 7.8.8 3.5.9 3 .9-3.8 0-4.2-.2-7.7-.3-7.7-.2 0-.6 1.7-.9 3.7zM252.2 559c-.1 3.6-.5 7.6-.7 9l-.6 2.5 1.1-2.4c.6-1.4.9-5.4.7-9l-.3-6.6-.2 6.5zM255.5 554c.3.5.8 1 1.1 1 .2 0 .4-.5.4-1 0-.6-.5-1-1.1-1-.5 0-.7.4-.4 1zM266 557c0 1.2-.9 2.2-2.4 2.6-1.7.4-2.7 1.5-3.1 3.5-.4 1.6-1.1 2.7-1.6 2.3-.5-.3-.6-1.6-.3-3 .3-1.3.3-3.2 0-4.1-1.2-3-2.6.6-2.6 6.7 0 3.8.3 5 1 4 1.4-2.2 2-.9 2.3 4.8.2 2.9.7 5.5 1.1 5.9.5.5.6-2.4.2-6.2-.4-5-.2-7.8.8-10l1.4-3 .3 3c.1 1.6.2 5.5.1 8.5-.1 4.2.1 4.9.7 3 .7-2 .9-1.4 1 3 0 3.9-.2 5.1-.9 4-.7-1-.9.5-.8 5 .1 5.6.2 5.8.5 1.7.2-2.6.8-4.7 1.4-4.7 1.4 0 1.1-11.8-.3-12.2-1-.4-1-1-.1-3 1.3-2.9 2.8-13.8 1.9-13.8-.3 0-.6.9-.6 2zM248.6 559.1c-.3 1.7-.5 4.3-.5 5.8.1 1.4.5.2 1-2.8 1-5.8.6-8.3-.5-3zM270.1 559.5c-.1 1.1-.4 3.1-.6 4.5l-.6 2.5 1.1-2.5c.6-1.3.9-3.3.7-4.5-.4-1.9-.4-1.9-.6 0zM285.9 561.4c-.7 1.4-1.6 2.6-2.1 2.6-.4 0-.8 1.2-.8 2.7.1 2.5.4 2.2 2.5-2.2 1.3-2.7 2.2-5.1 2-5.3-.2-.3-1 .7-1.6 2.2zM525.2 562c0 1.9.3 6 .8 9 .6 4.8.7 5 .8 1.5 0-2.2-.3-6.3-.8-9-.6-4-.7-4.3-.8-1.5zM271.7 566.4c-.4 2.7-.7 5.8-.6 7 0 2.1.1 2.1.9.1.8-1.9.9-1.9.9.2.1 1.3.6 2.3 1.2 2.3.5 0 .7-.5.3-1.2-.4-.6-1-3.9-1.3-7.2l-.7-6.1-.7 4.9zM515.6 568.2c-.3 1.3-.6 4.6-.6 7.3 0 2.8-.5 5.6-1.1 6.2-.6.6-.9 2.3-.6 3.9.4 2.7.4 2.6.6-.6.1-2.3.4-3 1-2.2.5.8 1-2.2 1.4-7.4.6-9 .4-11.3-.7-7.2zM522 571.6c0 2.1.4 4.5.9 5.3.5.8.7-.5.4-3.5-.7-6.1-1.3-7-1.3-1.8zM518.2 578.7c-.1 3.5.2 6.3.7 6.3.5 0 1.2 1.2 1.4 2.7.4 2.6.4 2.6.6-.5 0-1.7-.3-3.2-.9-3.2-.5 0-1.1-2.6-1.3-5.8l-.3-5.7-.2 6.2zM279 577.8c0 2.2.7 5.5 1.6 7.3 1.1 2.4 1.3 2.7.9.9-.3-1.4-.7-4.5-1-7l-.5-4.5 1.4 5c.8 2.7 1.9 6.3 2.4 8 1 2.8 1 2.7 1.1-2 0-3.3-.2-4.5-.8-3.6-.7 1-1.2.2-1.8-2.9-1.1-5.7-3.3-6.5-3.3-1.2zM288.1 577.6c0 1.1.3 1.4.6.6.3-.7.2-1.6-.1-1.9-.3-.4-.6.2-.5 1.3zM523.1 583.7c0 2.9.2 5.3.7 5.3.4 0 .7-1 .8-2.3 0-1.2.4-3.6.7-5.2.5-2.1.5-2.4-.1-1l-.9 2-.5-2c-.3-1.1-.6.4-.7 3.2zM258.2 582c0 1.4.2 1.9.5 1.2.2-.6.2-1.8 0-2.5-.3-.6-.5-.1-.5 1.3zM272.2 583.5c0 1.1.4 3.3.8 5 .7 2.7.8 2.7.8.5 0-1.4-.4-3.6-.8-5-.6-2-.8-2.1-.8-.5zM268 587.3c.4 4.1.5 4.1.8.8.2-1.8 0-3.7-.5-4.2s-.6 1.1-.3 3.4zM293.3 588c-.1 3 .3 6.6.7 8 .8 2.5.8 2.5 1-.5.1-2.6.3-2.7 1-1 .8 1.7.9 1.6.9-.9.1-2.1-.3-2.7-1.3-2.3-1.2.5-1.6-.5-1.9-4.1-.3-4.6-.3-4.6-.4.8zM286.2 591.4c-.7 3.8-1 7.1-.7 7.4.3.3.5-.3.6-1.4 0-1 .7.3 1.4 3.1.8 2.7 1.4 6.8 1.3 9l-.1 4-.7-3.5c-.6-3.1-.8-3.2-.9-.8-.1 3.5 1.6 8.1 2.9 7.3.5-.3 1-1.1 1-1.6 0-.6-.4-.8-.8-.5-.4.2-.6-2.7-.4-6.5.3-4.1 0-6.9-.6-6.9-1.1 0-2.4-8.2-1.4-9 .4-.3.5-2.1.2-4-.4-3.1-.6-2.7-1.8 3.4zM504.2 591.2c-.1 3.2.2 5.8.7 5.8.6 0 1.2 1.7 1.4 3.7l.4 3.8.1-4.3c.1-2.3-.2-4.2-.7-4.2-.6 0-1.2-2.4-1.4-5.3l-.3-5.2-.2 5.7zM510.3 590c0 2.5.2 3.5.4 2.2.2-1.2.2-3.2 0-4.5-.2-1.2-.4-.2-.4 2.3zM261.1 589.6c0 1.1.3 1.4.6.6.3-.7.2-1.6-.1-1.9-.3-.4-.6.2-.5 1.3zM278.3 592.2c-1.6 4.3-1.8 7-.3 4.8.7-1.2 1-.8 1 1.4 0 2.1.3 2.7 1 2 .7-.7.7-3 .3-6.4l-.8-5.3-1.2 3.5zM271.2 592.5c0 1.6.2 2.2.5 1.2.2-.9.2-2.3 0-3-.3-.6-.5.1-.5 1.8zM269.2 594c0 1.4.2 1.9.5 1.2.2-.6.2-1.8 0-2.5-.3-.6-.5-.1-.5 1.3zM513.3 598c0 2.5.2 3.5.4 2.2.2-1.2.2-3.2 0-4.5-.2-1.2-.4-.2-.4 2.3zM290.1 597.1c-.1 4 2 9.4 3 7.7.5-.7.8-2.4.8-3.8-.1-2.3-.2-2.3-.9.5l-.8 3-.2-3c-.1-1.7-.5-3.9-1-5-.8-1.8-.9-1.7-.9.6zM510.6 596.7c-.2 1-.7 3.4-1 5.3-.8 4.4.8 1.1 1.7-3.8.7-3.4.2-4.5-.7-1.5zM304.7 596.7c-.8 1.4-1.9 6.8-1.3 6.2.8-.8 2.6-6.9 2.1-6.9-.2 0-.6.3-.8.7zM297 600.1c0 1.9.4 4.1.9 4.8.6 1 .8-.1.4-3-.7-5.5-1.3-6.3-1.3-1.8zM500.1 600.6c0 2.3-.4 5.7-.8 7.5-.6 3.1-.5 3.3 1 2 1.8-1.4 2-5.4.7-10.6-.7-2.9-.8-2.8-.9 1.1zM273.4 599.3c-1 2.8-.8 7 .4 7.4.8.3 1.2-.9 1.2-4.1 0-4.6-.6-5.8-1.6-3.3zM301.2 600.5c0 1.6.4 4.3.8 6 1.1 4.2 1.1.1.1-5-.7-3.4-.9-3.5-.9-1zM503.3 603.5c0 2.7.2 3.8.4 2.2.2-1.5.2-3.7 0-5-.2-1.2-.4 0-.4 2.8zM276.3 606.5c0 3.3.2 4.5.4 2.7.2-1.8.2-4.5 0-6s-.4 0-.4 3.3zM280 605c0 1.8.6 3.3 1.5 3.6.8.4 1.5 1.4 1.5 2.3.1.9.8 2.7 1.6 4.1 1 1.6 1.3 1.8.8.5-.4-1.1-1.2-4-1.7-6.5-.6-2.5-1.7-5.1-2.4-5.8-1.1-1.1-1.3-.8-1.3 1.8zM404.5 604.9c-.7 3.2-2.3 3.9-4.3 1.9-.7-.7-1.2-.8-1.2-.2 0 .6 1 1.6 2.3 2.2 2.2 1 2.2 1.1-.5 1.1-2.2.1-2.8-.4-2.9-2.2-.1-2.2-.1-2.2-.8.2-.6 2.3-.7 2.3-2.4.7-.9-1-1.7-1.3-1.7-.7 0 1.9-4 1.2-4.1-.7-.1-.9-.5 0-1 2.1-.7 2.8-.5 5.4.7 9.5 1.8 6.5 3.8 9.5 2.3 3.6-1.9-7.3-2.2-12.4-1-12.4 2.4 0 5.1 2.1 5.1 4 0 1.1.4 2 .9 2s.7-.9.4-2c-.3-1.1 0-2 .6-2s1.1.4 1.1.9.9.7 2 .4c1.8-.5 2 0 2.1 4.3.1 2.7.3 4 .6 2.9.2-1.1.6-3 .9-4.3.2-1.3 1.2-2.2 2.3-2.2 1.6 0 1.8.6 1.3 4.6-.6 5.5.6 5.3 3.9-.6 1.3-2.2 2.8-3.9 3.3-3.6.6.2 1 .7 1 1.2-.1.5-.4 2.7-.7 4.9-.4 2.2-.4 3.3 0 2.5.7-2 7.5-9 8.6-9 .4 0-.3 1.5-1.7 3.3-1.5 1.9-2.6 3.8-2.6 4.2 0 1 3.7-3.2 4.3-4.8.2-.7.8-.8 1.3-.4.4.4.3 1.7-.4 2.7-1.9 3.1-1.4 3.5 1.3 1 2.5-2.4 3.5-4.7 1.4-3.4-.7.4-1 .1-.7-.6.2-.8 1-1.6 1.8-1.8.7-.3 1 0 .6.6-.3.6-.2 1.3.4 1.7.6.3 1.3-.1 1.7-1 .3-1 2-2.3 3.7-3.1l3.1-1.3-2.7-.1c-1.9 0-2.8-.5-2.8-1.6 0-1.4-.2-1.4-2.2 0-2.9 2-3.5 2-4.1-.2-.4-1.6-.5-1.6-.6 0-.1 1.1-.9 1.8-2 1.8s-2.2-.8-2.4-1.8c-.4-1.6-.5-1.6-.6 0-.1 1.1-.9 1.8-2.1 1.8-1.5 0-2-.7-2-2.4 0-1.4-.5-2.8-1.1-3.2-.8-.5-1 .2-.7 2.3.4 2.7.1 2.9-2.8 3.1-2.9.2-3.3-.1-3.7-2.5l-.4-2.8-.2 2.7c0 1.6-.5 2.8-1 2.8-1.8 0-2.1-1.7-1-4.9.6-1.8.9-3.4.6-3.7-.3-.3-.8.8-1.2 2.5zm6.5 10.3c-.1.7-.8 2.4-1.6 3.8l-1.5 2.5.5-2.5c.3-1.4.6-3.1.6-3.8 0-.6.5-1.2 1-1.2.6 0 1 .6 1 1.2zm8-.5c0 .5-.7 1.7-1.5 2.7-1.5 2-2 1-.9-1.8.6-1.6 2.4-2.2 2.4-.9zM496.3 611.5c0 4.4.2 6.1.4 3.7.2-2.3.2-5.9 0-8-.2-2-.4-.1-.4 4.3zM375.7 607.2c.4 2.2.4 2.3-1.1.4-1.9-2.3-2.1-1.4-.4 1.7.6 1.2 1.1 3.5 1 5.2-.1 1.6.2 3.7.8 4.5.7 1.1.8.2.4-3-.7-4.3-.6-4.4 1.1-3 1.7 1.4 1.8 1.3 1.2-.3-.4-.9-.2-1.7.4-1.7.7 0 .9 1 .5 2.4-.3 1.4-.2 2.8.4 3.1.5.3 1 1.6 1 2.8 0 1.2.5 2.9 1 3.7.9 1.5.9.6-.7-11.3-.4-2.9-.2-3.7 1.1-3.7s1.5.7 1.1 3.7c-.4 2.9-.1 4.4 1.5 6.3l2 2.5-1-2.8c-.5-1.6-1-4.5-1-6.6 0-3.4-.3-3.9-3.6-4.9-2.7-.8-3.3-.8-2.5.2.6.7.6 1.7.1 2.6-.7 1.1-1.1.8-1.9-1.3-1.3-3.3-2.1-3.5-1.4-.5zM513.2 609c0 1.9.2 2.7.5 1.7.2-.9.2-2.5 0-3.5-.3-.9-.5-.1-.5 1.8zM305.7 610.5c.3 2.2 1 4.9 1.4 6 .6 1.3.6.5.2-2-.3-2.2-1-4.9-1.4-6-.6-1.3-.6-.5-.2 2zM308.3 610.5c0 2.2.2 3 .4 1.7.2-1.2.2-3 0-4-.3-.9-.5.1-.4 2.3zM292.2 613.4c-.1 3.3.4 7.2 1.2 9 .8 1.7 1.6 4 1.8 5.1.2 1.1.8-.6 1.2-3.8.4-3.2.5-6.1.2-6.5-.3-.3-.6.9-.6 2.6 0 1.8-.4 3.2-.9 3.2-1 0-2.1-3.6-2-6.5.1-1.6.2-1.6.9.5.6 2 .8 2.1.8.5 0-1.1-.5-3.8-1.2-6l-1.2-4-.2 5.9zM298.8 617.9c-.7 5.2-.5 7.1.8 5.9.3-.3.4-3 .2-5.9l-.3-5.4-.7 5.4z" />
          <path d="M391.2 615.5c0 1.6.2 2.2.5 1.2.2-.9.2-2.3 0-3-.3-.6-.5.1-.5 1.8zM514.5 617.3c.3 2.7 1 5.6 1.6 6.5.8 1.3.9 1 .3-1.3-2.4-10.4-2.4-10.3-1.9-5.2zM310.4 618.7c.1 2.8.4 4.9.9 4.6.4-.2.7 1 .7 2.7 0 2.1.4 2.9 1.2 2.4.8-.5.9 0 .6 1.4-.4 1.2-.2 2.2.3 2.2s.9 1.7 1 3.7c0 2.1.4 4.7.9 5.8.8 1.9.6-3.1-.5-11l-.4-3 1.6 3c.9 1.6 1.6 5 1.6 7.5l-.1 4.5 1-4.3c.7-3.1.6-4.7-.2-5.7-.7-.9-.9-2.6-.4-4.7.6-2.8.8-3 1.4-1.3 1.1 3 2-4.7 1-8.2-.6-2.1-.9-2.3-.9-.8-.2 3.4-2.8 9.8-3.5 8.7-.4-.6 0-2.5.9-4.1.8-1.7 1.5-3.8 1.5-4.8-.1-1-.7-.3-1.6 1.7-1.3 3.1-1.7 3.3-2.5 1.7-.6-.9-.7-2.6-.4-3.7.5-1.4.2-2-.9-2-.9 0-1.6.6-1.7 1.2 0 .7-.4.4-.8-.6-.5-1.3-.7-.1-.7 3.1zm4.3 7.5c-.3.8-.6.5-.6-.6-.1-1.1.2-1.7.5-1.3.3.3.4 1.2.1 1.9zM512.1 617.7c0 2.4-.4 4.3-.8 4.3-.5 0-2 2.1-3.4 4.8-2.3 3.9-2.6 5.3-1.9 8.7l.8 4 .1-5c.1-2.8.8-5.9 1.6-6.9 1.4-1.9 1.5-1.7 1.6 2l.2 3.9.9-4.5c1.6-7.7 2-11.7 1.5-13.6-.3-1.1-.5 0-.6 2.3zm-.8 6.8c-.3.9-.8 1.4-1 1.1-.3-.3-.2-.9.2-1.5.9-1.6 1.5-1.3.8.4zM277.1 616.6c0 1.1.3 1.4.6.6.3-.7.2-1.6-.1-1.9-.3-.4-.6.2-.5 1.3z" />
          <path d="M315.3 617.5c-.3.9-.3 1.8-.1 2.1.3.3.8-.4 1.1-1.6.6-2.3-.1-2.7-1-.5zM491.7 621.7c-.4 2.7-.2 6.4.2 8.3.7 2.9.9 2 1-4.8.1-4.5-.1-8.2-.3-8.2-.2 0-.6 2.1-.9 4.7zM392.1 620.6c0 1.1.3 1.4.6.6.3-.7.2-1.6-.1-1.9-.3-.4-.6.2-.5 1.3zM280.3 625c0 3 .2 4.3.4 2.7.2-1.5.2-3.9 0-5.5-.2-1.5-.4-.2-.4 2.8zM291.6 624.5c.8 3.7 1.4 4.5 1.4 1.9 0-1-.5-2.6-1-3.4-.8-1.1-.9-.7-.4 1.5zM497.2 626c0 1.4.2 1.9.5 1.2.2-.6.2-1.8 0-2.5-.3-.6-.5-.1-.5 1.3zM323 628.1c0 1.1-.5 3-1.1 4.1-.8 1.5-.8 1.9 0 1.4.6-.4 1.1-.1 1.1.8 0 .8.6 1.8 1.3 2.2.6.4.9.4.5 0-.3-.4 0-2.5.7-4.7 1.5-4.2 1.1-5.4-.6-1.7-.8 2-.9 1.8-.5-1 .3-1.7.1-3.2-.4-3.2-.6 0-1 .9-1 2.1zM488 630.5c.1 1.1.7 2.9 1.5 3.9 1.9 2.6 1.9.6 0-3-1.2-2.3-1.5-2.5-1.5-.9zM334.6 633.5c-.9 2.6-.7 3.2.5 1.2.6-1 .9-2.1.6-2.3-.2-.3-.7.2-1.1 1.1zM482.2 635c0 1.9.2 2.7.5 1.7.2-.9.2-2.5 0-3.5-.3-.9-.5-.1-.5 1.8zM503.7 633.7c-.4.3-.7 1.1-.7 1.7 0 .6.5.5 1.2-.2.6-.6.9-1.4.7-1.7-.3-.3-.9-.2-1.2.2zM341.5 639.5c-.4 2.5-.5 4.8-.2 5.1.2.3.8-1.6 1.2-4.1.3-2.6.4-4.9.2-5.2-.3-.3-.9 1.6-1.2 4.2zM486.6 637.7c1 4 1.4 4.1 1.4.5 0-1.8-.5-3.2-1-3.2-.6 0-.8 1.1-.4 2.7zM299.1 640.5c-.2 2.7-.3 2.8-1.2 1-1-2.1-1-2.2 1 6 .6 2.6.8 2.7 1.3 1 .3-1.1.2-4.1-.2-6.5-.6-3.6-.8-3.9-.9-1.5zM334.7 642.5c-.7 4 .3 17.4 1.2 18 .4.2.5-2.4.4-5.8-.2-3.4-.3-8.3-.3-11 0-5.6-.5-6.1-1.3-1.2zM465.6 643.5c.8 3.7 1.4 4.5 1.4 1.9 0-1-.5-2.6-1-3.4-.8-1.1-.9-.7-.4 1.5zM348.7 647.2c-2.3 6.9-3 10-1.7 6.8.6-1.3 1.5-2.7 1.9-3 .8-.5 2.5-9 1.8-9-.2 0-1.1 2.4-2 5.2zM360.1 648.4c-.6 2.5-1.1 5.5-1 6.8 0 1.3.7-.6 1.5-4.1 1.6-7.4 1.2-9.4-.5-2.7zM367.3 650c0 3.6.2 5 .4 3.2.2-1.7.2-4.7 0-6.5-.2-1.7-.4-.3-.4 3.3zM442.8 650.9c.2 3.1 1 6.9 1.8 8.6 1.2 2.7 1.3 2.7.9.5-.2-1.4-.7-4.7-1-7.3-.6-4.7-.6-4.8 1.4-3.7 3 1.5 2.6.7-.7-1.7l-2.8-2.1.4 5.7zM340.2 648c0 1.4.2 1.9.5 1.2.2-.6.2-1.8 0-2.5-.3-.6-.5-.1-.5 1.3zM353.6 648.5c-.3.9-.6 2.6-.5 3.8.1 1.6.4 1.2 1-1.2 1-3.4.6-5.5-.5-2.6zM437 648.4c0 .2.7.9 1.5 1.6 1.3 1.1 1.4 1 .9-.4-.5-1.4-2.4-2.3-2.4-1.2zM373.2 652c0 1.9.2 2.7.5 1.7.2-.9.2-2.5 0-3.5-.3-.9-.5-.1-.5 1.8zM408.2 651.5c0 1.6.2 2.2.5 1.2.2-.9.2-2.3 0-3-.3-.6-.5.1-.5 1.8zM382.6 657c.4 4.1.8 11 .9 15.3.4 9.1 1.5 11.7 1.4 3.3-.1-7.5.7-8.1 1.6-1.1.3 3 1.1 5.5 1.6 5.5s.9 1.2.9 2.7c0 2.3-.2 2.5-1.1 1.3-.7-1.1-.8-.6-.3 2 .4 1.9.8 4.5.8 5.7.1 1.2.4 2.5.9 2.9.4.4.8 2.3.8 4.3l.2 3.6.7-3.5.7-3.5.2 3.4c.1 4.2.6 3.8 1.4-1.2.5-2.9.3-3.7-1-3.7-1 0-1.3-.6-.9-1.6.3-.9.6-1.9.6-2.2 0-.4.4-.1.9.7.6 1 1.1.2 1.6-2.7.6-3.7 2.6-5.9 4.9-5.3.5.1 1.2-.2 1.5-.8.3-.5.4 3.4.3 8.7-.5 12.4.3 11.7 1.1-1.1.6-9 .5-9.7-1.2-9.7-1.8 0-2.8-3.5-3.4-11.8-.1-1.2-.5-2.2-.9-2.2-.5 0-.8-.6-.8-1.3 0-1.9-2.1-8.9-2.6-8.5-.2.2.1 1.9.6 3.7 1 3.4-.3 16.6-2.1 20.6-.4 1.1-1 2.9-1.2 4-.3 1.2-.5.8-.6-1.2 0-1.7.3-3.4.8-3.8 1.1-.6.9-7-.1-8.1-.4-.3-1 .7-1.3 2.2-1.1 5-1.2 5-2 .9-.3-2.2-1.5-6.6-2.5-9.8-1.1-3.2-1.7-6.3-1.5-7 .2-.7 0-2.8-.5-4.7-.7-2.6-.8-1.6-.4 4zm13.1 12.7c-.3 1-.5.4-.5-1.2 0-1.7.2-2.4.5-1.8.2.7.2 2.1 0 3zm1.2 7.1c1.9 3.8 1.9 3.8 0 5-2.8 1.8-2.9 1.6-2.9-3.8 0-2.8.2-5 .5-5 .2 0 1.3 1.7 2.4 3.8zM343.3 657c0 3 .2 4.3.4 2.7.2-1.5.2-3.9 0-5.5-.2-1.5-.4-.2-.4 2.8zM378.7 655c.4 1.9.6 6.2.6 9.5l-.1 6 .7-5.5c.5-3.7.3-6.8-.5-9.5-1.3-3.8-1.3-3.8-.7-.5z" />
          <path d="M448.1 652.5c0 .5.6 2.1 1.4 3.5.8 1.4 1.4 2 1.4 1.5 0-.6-.6-2.1-1.4-3.5-.8-1.4-1.4-2.1-1.4-1.5zM339.2 656c0 1.4.4 3.6.8 5l.8 2.5V661c0-1.4-.4-3.6-.8-5l-.8-2.5v2.5zM369.8 656.9c-.5 1.8-.8 4.5-.7 6v2.6l1-2.5c.6-1.3.9-4 .7-6l-.3-3.5-.7 3.4zM356.2 658c0 1.9.2 2.7.5 1.7.2-.9.2-2.5 0-3.5-.3-.9-.5-.1-.5 1.8zM362.2 657.5c0 1.6.2 2.2.5 1.2.2-.9.2-2.3 0-3-.3-.6-.5.1-.5 1.8zM409.5 658c.4 1.9 1 6.1 1.5 9.4.5 3.2 1.1 6 1.4 6.3.9.9-.7-11-2.1-15.1-1.3-3.9-1.3-3.9-.8-.6zM348.5 658.1c-.8 2.4.3 20 1.3 21.6.4.6.7-1.9.7-5.7 0-3.7-.4-6.6-.9-6.3-.5.3-.7-2.2-.4-5.6.5-6.6.3-7.3-.7-4zM374.3 659.5c0 2.2.2 3 .4 1.7.2-1.2.2-3 0-4-.3-.9-.5.1-.4 2.3zM386.7 657.5c-.4.9-.6 2.9-.6 4.3.1 2.7.1 2.7.8-.3l.7-3 1.7 3c.9 1.6 1.6 2.5 1.6 2 0-.6-.8-2.5-1.8-4.4-1.5-2.7-1.9-3-2.4-1.6zM402 658c0 .3.9 2.3 2 4.5 2.4 4.7 2.5 5.9.5 7.5-1.7 1.4-2.2 9.5-.5 8.5.6-.3 1-2.1 1-4s.5-3.7 1-4c.6-.3 1-3 .9-5.8 0-2.9-.3-4.6-.6-3.8-.4 1.1-1 .8-2.4-1-1-1.3-1.9-2.2-1.9-1.9zM412.1 659c0 .3.6 2.7 1.4 5.5.8 3 1.4 4 1.4 2.5 0-2-2.6-9.7-2.8-8zM366.4 661.5c-.3.8-.4 2-.2 2.7.3.7.7.1 1-1.5.6-2.9.1-3.6-.8-1.2zM360.8 662.2c-.4.9.4 4.8 1.7 8.5 1.3 3.7 2.4 6.3 2.4 5.6.1-.6-.4-2.4-1-4-.6-1.5-1.4-4.8-1.8-7.3-.4-3-.9-3.9-1.3-2.8zM357.6 666c.3 2.5.9 4.9 1.4 5.4.9.9.6-.4-1.4-7.9-.3-1.1-.3 0 0 2.5zM430.3 671.2c-.1 5.3-.4 10.2-.8 10.7-.3.6-.1 1.1.4 1.1.9 0 1.6-3.7 1.2-6.3 0-.4.4-.7 1-.7.7 0 .9-.9.3-2.8-.4-1.5-1-4.7-1.4-7.2-.5-3.4-.7-2.1-.7 5.2zM372.1 664.6c0 1.1.3 1.4.6.6.3-.7.2-1.6-.1-1.9-.3-.4-.6.2-.5 1.3zM449.3 668.5c0 3.3.2 4.5.4 2.7.2-1.8.2-4.5 0-6s-.4 0-.4 3.3z" />
          <path d="M388.6 666.5c.8 3.7 1.4 4.5 1.4 1.9 0-1-.5-2.6-1-3.4-.8-1.1-.9-.7-.4 1.5zM432.2 667c0 1.4.2 1.9.5 1.2.2-.6.2-1.8 0-2.5-.3-.6-.5-.1-.5 1.3zM344.1 668.6c0 1.1.3 1.4.6.6.3-.7.2-1.6-.1-1.9-.3-.4-.6.2-.5 1.3zM409.3 671.5c0 2.2.2 3 .4 1.7.2-1.2.2-3 0-4-.3-.9-.5.1-.4 2.3zM377.2 672c0 1.4.2 1.9.5 1.2.2-.6.2-1.8 0-2.5-.3-.6-.5-.1-.5 1.3zM414.2 678.7c-.2 6.7 1.2 9.2 2.2 4.1.3-1.7.4-3.3.1-3.6-.3-.3-.6.1-.7.9 0 .8-.4-.6-.8-3.1-.7-4.5-.7-4.5-.8 1.7zM359.3 677.5c0 2.2.2 3 .4 1.7.2-1.2.2-3 0-4-.3-.9-.5.1-.4 2.3zM360 683.6c0 1 .5 2.6 1 3.4.8 1.1.9.7.4-1.5-.8-3.7-1.4-4.5-1.4-1.9zM347 689c0 1.1.4 2 .9 2s.7-.9.4-2c-.3-1.1-.7-2-.9-2-.2 0-.4.9-.4 2zM360.8 691.1c-.7 2 .2 9.9 1.2 9.9 1.4 0 1.6-2.5.5-6.9-.6-2.5-1.4-3.8-1.7-3zM193.8 476.7c.6.2 1.8.2 2.5 0 .6-.3.1-.5-1.3-.5-1.4 0-1.9.2-1.2.5zM461.2 674c0 1.4.2 1.9.5 1.2.2-.6.2-1.8 0-2.5-.3-.6-.5-.1-.5 1.3zM459.1 681.6c0 1.1.3 1.4.6.6.3-.7.2-1.6-.1-1.9-.3-.4-.6.2-.5 1.3zM659 634.8l-3.5.7 2.8 1.9c1.5 1 2.7 2.3 2.7 2.8s-6.4 9.5-14.2 20.1c-15.1 20.4-26.2 36.7-36.8 54.2-3.6 6.1-9.5 13.9-13.3 17.9l-6.8 7.1.4-7.5c.3-4.1.7-8.4 1.1-9.5 2.1-6.7-5.2 10.9-8.5 20.4-3.8 11-9.9 32.9-9.9 35.4 0 .7 1.6-1.7 3.6-5.2 6.2-11.1 12.9-20.5 43.5-60.7 31.4-41.2 39.3-52.3 45.7-64.2l3.9-7.2 20.1-.6c21-.5 23.7-.1 27.1 4 1.2 1.4.8 1.6-3.5 1.6-12 .1-26.2 5.1-38 13.5-7.9 5.7-9.4 7.7-2.2 3.2 19.4-12.5 46.5-13.3 70.7-2.1l7.4 3.4-4.7-4.2c-2.6-2.2-7.2-7.2-10.2-10.9-6.2-7.8-12.1-11.2-22.4-13-7.5-1.3-49.8-2.1-55-1.1zM631.3 650.4c-3.2 2.9-6.3 7.8-12.3 19.6-4.3 8.7-8.2 17.7-8.6 20.1-.8 5.5-.5 5.2 8.8-8.6 9.1-13.7 17.1-29.3 16.6-32.5-.3-2.4-.3-2.4-4.5 1.4zM762.8 668.7c.6.2 1.8.2 2.5 0 .6-.3.1-.5-1.3-.5-1.4 0-1.9.2-1.2.5zM292.5 694.7c18.2 16.8 30 24.3 42.2 26.8 8.5 1.8 32.4 2.8 38.8 1.7 6.5-1.1 6-1.3-22.9-5.7-25.4-3.8-29.2-5.1-42.7-14.3-6.9-4.6-17.6-10.5-15.4-8.5zM58.5 709.6c-1.6.9-7.3 4-12.5 6.9-5.2 2.9-12.6 6.3-16.5 7.5C17.1 728 9 732.9 9 736.5c0 .8 3.9 3.4 8.9 6 14.2 7.3 23.8 17.1 33.8 34.3 5.3 9 5.1 5.7-.2-5.6-4.6-9.7-11.3-18.1-18.8-23.4-7.1-5-11.7-9.2-11.7-10.7 0-.6 3.4-3.8 7.5-7 6.6-5.3 8.9-6.5 20.6-10.3 13.9-4.4 17.9-6.7 17.9-9.9 0-2.4-4.1-2.5-8.5-.3zM595.2 711.5c-1.7 3.7-1.4 4.5.4 1.2.9-1.6 1.4-3.1 1.1-3.3-.2-.2-.9.7-1.5 2.1zM373.2 788.5L361.8 800h4.1c3.6 0 5.2-.8 11.1-5.5 7.7-6.1 10.7-9.9 11.6-14.4.6-2.7.4-3.1-1.6-3.1-1.6 0-5.9 3.6-13.8 11.5zM280 783.4c0 1.9 1.5 6.2 3.3 9.8 3.2 6.3 3.3 6.3 8 6.6l4.8.3-1.7-3.3c-2.7-5.4-10.2-15.5-11.9-16.2-2.5-.9-2.5-.9-2.5 2.8zM57.1 790.6c0 1.1.3 1.4.6.6.3-.7.2-1.6-.1-1.9-.3-.4-.6.2-.5 1.3z" />
        </svg>